  0
SECTION
  2
HEADER
  9
$ACADVER
  1
AC1009
  9
$FILLMODE
 70
0
  9
$EXTMIN
 10
-0.5927
 20
-11.1760
 30
0.0000
  9
$EXTMAX
 10
100.5332
 20
80.2132
 30
0.0000
  0
ENDSEC
  0
SECTION
  2
TABLES
  0
TABLE
  2
LTYPE
 70
1
  0
LTYPE
  2
CONTINUOUS
 70
64
  3
Solid line
 72
65
 73
0
 40
0
  0
ENDTAB
  0
TABLE
  2
LAYER
 70
255
  0
LAYER
  2
1
 70
64
 62
14
  6
CONTINUOUS
  0
LAYER
  2
16
 70
64
 62
174
  6
CONTINUOUS
  0
LAYER
  2
17
 70
64
 62
94
  6
CONTINUOUS
  0
LAYER
  2
18
 70
64
 62
94
  6
CONTINUOUS
  0
LAYER
  2
19
 70
64
 62
54
  6
CONTINUOUS
  0
LAYER
  2
20
 70
64
 62
178
  6
CONTINUOUS
  0
LAYER
  2
21
 70
64
 62
251
  6
CONTINUOUS
  0
LAYER
  2
22
 70
64
 62
251
  6
CONTINUOUS
  0
LAYER
  2
23
 70
64
 62
178
  6
CONTINUOUS
  0
LAYER
  2
24
 70
64
 62
178
  6
CONTINUOUS
  0
LAYER
  2
39
 70
64
 62
14
  6
CONTINUOUS
  0
LAYER
  2
40
 70
64
 62
174
  6
CONTINUOUS
  0
LAYER
  2
41
 70
64
 62
14
  6
CONTINUOUS
  0
LAYER
  2
42
 70
64
 62
174
  6
CONTINUOUS
  0
LAYER
  2
43
 70
64
 62
94
  6
CONTINUOUS
  0
LAYER
  2
44
 70
64
 62
251
  6
CONTINUOUS
  0
LAYER
  2
45
 70
64
 62
251
  6
CONTINUOUS
  0
LAYER
  2
46
 70
64
 62
134
  6
CONTINUOUS
  0
LAYER
  2
47
 70
64
 62
251
  6
CONTINUOUS
  0
LAYER
  2
48
 70
64
 62
251
  6
CONTINUOUS
  0
LAYER
  2
49
 70
64
 62
251
  6
CONTINUOUS
  0
LAYER
  2
51
 70
64
 62
134
  6
CONTINUOUS
  0
LAYER
  2
52
 70
64
 62
214
  6
CONTINUOUS
  0
LAYER
  2
101
 70
64
 62
1
  6
CONTINUOUS
  0
LAYER
  2
102
 70
64
 62
251
  6
CONTINUOUS
  0
LAYER
  2
103
 70
64
 62
251
  6
CONTINUOUS
  0
LAYER
  2
104
 70
64
 62
251
  6
CONTINUOUS
  0
LAYER
  2
105
 70
64
 62
251
  6
CONTINUOUS
  0
LAYER
  2
106
 70
64
 62
251
  6
CONTINUOUS
  0
LAYER
  2
107
 70
64
 62
251
  6
CONTINUOUS
  0
LAYER
  2
110
 70
64
 62
251
  6
CONTINUOUS
  0
LAYER
  2
111
 70
64
 62
251
  6
CONTINUOUS
  0
LAYER
  2
112
 70
64
 62
251
  6
CONTINUOUS
  0
LAYER
  2
113
 70
64
 62
14
  6
CONTINUOUS
  0
LAYER
  2
116
 70
64
 62
5
  6
CONTINUOUS
  0
LAYER
  2
121
 70
64
 62
251
  6
CONTINUOUS
  0
LAYER
  2
122
 70
64
 62
251
  6
CONTINUOUS
  0
LAYER
  2
123
 70
64
 62
251
  6
CONTINUOUS
  0
LAYER
  2
124
 70
64
 62
251
  6
CONTINUOUS
  0
LAYER
  2
125
 70
64
 62
251
  6
CONTINUOUS
  0
LAYER
  2
126
 70
64
 62
251
  6
CONTINUOUS
  0
LAYER
  2
127
 70
64
 62
251
  6
CONTINUOUS
  0
LAYER
  2
128
 70
64
 62
251
  6
CONTINUOUS
  0
LAYER
  2
131
 70
64
 62
251
  6
CONTINUOUS
  0
LAYER
  2
132
 70
64
 62
251
  6
CONTINUOUS
  0
LAYER
  2
144
 70
64
 62
251
  6
CONTINUOUS
  0
LAYER
  2
150
 70
64
 62
251
  6
CONTINUOUS
  0
LAYER
  2
151
 70
64
 62
251
  6
CONTINUOUS
  0
LAYER
  2
152
 70
64
 62
251
  6
CONTINUOUS
  0
LAYER
  2
153
 70
64
 62
251
  6
CONTINUOUS
  0
LAYER
  2
154
 70
64
 62
251
  6
CONTINUOUS
  0
LAYER
  2
155
 70
64
 62
251
  6
CONTINUOUS
  0
LAYER
  2
199
 70
64
 62
251
  6
CONTINUOUS
  0
LAYER
  2
200
 70
64
 62
174
  6
CONTINUOUS
  0
LAYER
  2
201
 70
64
 62
94
  6
CONTINUOUS
  0
LAYER
  2
202
 70
64
 62
134
  6
CONTINUOUS
  0
LAYER
  2
203
 70
64
 62
14
  6
CONTINUOUS
  0
LAYER
  2
204
 70
64
 62
214
  6
CONTINUOUS
  0
LAYER
  2
205
 70
64
 62
54
  6
CONTINUOUS
  0
LAYER
  2
206
 70
64
 62
251
  6
CONTINUOUS
  0
LAYER
  2
207
 70
64
 62
253
  6
CONTINUOUS
  0
LAYER
  2
208
 70
64
 62
5
  6
CONTINUOUS
  0
LAYER
  2
209
 70
64
 62
251
  6
CONTINUOUS
  0
LAYER
  2
210
 70
64
 62
251
  6
CONTINUOUS
  0
LAYER
  2
211
 70
64
 62
251
  6
CONTINUOUS
  0
LAYER
  2
212
 70
64
 62
251
  6
CONTINUOUS
  0
LAYER
  2
213
 70
64
 62
251
  6
CONTINUOUS
  0
LAYER
  2
214
 70
64
 62
251
  6
CONTINUOUS
  0
LAYER
  2
215
 70
64
 62
251
  6
CONTINUOUS
  0
LAYER
  2
216
 70
64
 62
251
  6
CONTINUOUS
  0
LAYER
  2
248
 70
64
 62
251
  6
CONTINUOUS
  0
LAYER
  2
249
 70
64
 62
251
  6
CONTINUOUS
  0
LAYER
  2
254
 70
64
 62
251
  6
CONTINUOUS
  0
ENDTAB
  0
ENDSEC
  0
SECTION
  2
BLOCKS
  0
BLOCK
  8
0
  2
RECT
 70
64
 10
0.0000
 20
0.0000
 30
0.0000
  3
RECT
  0
SOLID
  8
0
 10
-0.5000
 20
-0.5000
 30
0.0000
 11
0.5000
 21
-0.5000
 31
0.0000
 12
-0.5000
 22
0.5000
 32
0.0000
 13
0.5000
 23
0.5000
 33
0.0000
  0
ENDBLK
  8
0
  0
BLOCK
  8
0
  2
PIE
 70
64
 10
0.0000
 20
0.0000
 30
0.0000
  3
PIE
  0
CIRCLE
  8
0
 10
0.0000
 20
0.0000
 30
0.0000
 40
0.5000
  0
ENDBLK
  8
0
  0
BLOCK
  8
0
  2
OCTAGONP
 70
64
 10
0.0000
 20
0.0000
 30
0.0000
  3
OCTAGONP
  0
POLYLINE
  8
0
 66
1
 10
0.0000
 20
0.0000
 30
0.0000
 40
0.0000
 41
0.0000
 70
1
  0
VERTEX
  8
0
 10
-0.5000
 20
-0.2071
 30
0.0000
  0
VERTEX
  8
0
 10
-0.5000
 20
0.2071
 30
0.0000
  0
VERTEX
  8
0
 10
-0.2071
 20
0.5000
 30
0.0000
  0
VERTEX
  8
0
 10
0.2071
 20
0.5000
 30
0.0000
  0
VERTEX
  8
0
 10
0.5000
 20
0.2071
 30
0.0000
  0
VERTEX
  8
0
 10
0.5000
 20
-0.2071
 30
0.0000
  0
VERTEX
  8
0
 10
0.2071
 20
-0.5000
 30
0.0000
  0
VERTEX
  8
0
 10
-0.2071
 20
-0.5000
 30
0.0000
  0
SEQEND
  8
0
  0
ENDBLK
  8
0
  0
BLOCK
  8
0
  2
SQUAREP
 70
64
 10
0.0000
 20
0.0000
 30
0.0000
  3
SQUAREP
  0
SOLID
  8
0
 10
-0.5000
 20
-0.5000
 30
0.0000
 11
0.5000
 21
-0.5000
 31
0.0000
 12
-0.5000
 22
0.5000
 32
0.0000
 13
0.5000
 23
0.5000
 33
0.0000
  0
ENDBLK
  8
0
  0
BLOCK
  8
0
  2
ROUNDP
 70
64
 10
0.0000
 20
0.0000
 30
0.0000
  3
ROUNDP
  0
CIRCLE
  8
0
 10
0.0000
 20
0.0000
 30
0.0000
 40
0.5000
  0
ENDBLK
  8
0
  0
BLOCK
  8
0
  2
ANNULUSP
 70
64
 10
0.0000
 20
0.0000
 30
0.0000
  3
ANNULUSP
  0
CIRCLE
  8
0
 10
0.0000
 20
0.0000
 30
0.0000
 40
0.5000
  0
ENDBLK
  8
0
  0
BLOCK
  8
0
  2
THERMALP
 70
64
 10
0.0000
 20
0.0000
 30
0.0000
  3
THERMALP
  0
LINE
  8
0
 10
-0.2379
 20
0.4500
 30
0.0000
 11
0.2379
 21
0.4500
 31
0.0000
  0
LINE
  8
0
 10
0.4500
 20
0.2379
 30
0.0000
 11
0.4500
 21
-0.2379
 31
0.0000
  0
LINE
  8
0
 10
0.2379
 20
-0.4500
 30
0.0000
 11
-0.2379
 21
-0.4500
 31
0.0000
  0
LINE
  8
0
 10
-0.4500
 20
-0.2379
 30
0.0000
 11
-0.4500
 21
0.2379
 31
0.0000
  0
ENDBLK
  8
0
  0
BLOCK
  8
0
  2
OCTAGONV
 70
64
 10
0.0000
 20
0.0000
 30
0.0000
  3
OCTAGONV
  0
POLYLINE
  8
0
 66
1
 10
0.0000
 20
0.0000
 30
0.0000
 40
0.0000
 41
0.0000
 70
1
  0
VERTEX
  8
0
 10
-0.5000
 20
-0.2071
 30
0.0000
  0
VERTEX
  8
0
 10
-0.5000
 20
0.2071
 30
0.0000
  0
VERTEX
  8
0
 10
-0.2071
 20
0.5000
 30
0.0000
  0
VERTEX
  8
0
 10
0.2071
 20
0.5000
 30
0.0000
  0
VERTEX
  8
0
 10
0.5000
 20
0.2071
 30
0.0000
  0
VERTEX
  8
0
 10
0.5000
 20
-0.2071
 30
0.0000
  0
VERTEX
  8
0
 10
0.2071
 20
-0.5000
 30
0.0000
  0
VERTEX
  8
0
 10
-0.2071
 20
-0.5000
 30
0.0000
  0
SEQEND
  8
0
  0
ENDBLK
  8
0
  0
BLOCK
  8
0
  2
SQUAREV
 70
64
 10
0.0000
 20
0.0000
 30
0.0000
  3
SQUAREV
  0
SOLID
  8
0
 10
-0.5000
 20
-0.5000
 30
0.0000
 11
0.5000
 21
-0.5000
 31
0.0000
 12
-0.5000
 22
0.5000
 32
0.0000
 13
0.5000
 23
0.5000
 33
0.0000
  0
ENDBLK
  8
0
  0
BLOCK
  8
0
  2
ROUNDV
 70
64
 10
0.0000
 20
0.0000
 30
0.0000
  3
ROUNDV
  0
CIRCLE
  8
0
 10
0.0000
 20
0.0000
 30
0.0000
 40
0.5000
  0
ENDBLK
  8
0
  0
BLOCK
  8
0
  2
ANNULUSV
 70
64
 10
0.0000
 20
0.0000
 30
0.0000
  3
ANNULUSV
  0
CIRCLE
  8
0
 10
0.0000
 20
0.0000
 30
0.0000
 40
0.5000
  0
ENDBLK
  8
0
  0
BLOCK
  8
0
  2
THERMALV
 70
64
 10
0.0000
 20
0.0000
 30
0.0000
  3
THERMALV
  0
LINE
  8
0
 10
-0.2379
 20
0.4500
 30
0.0000
 11
0.2379
 21
0.4500
 31
0.0000
  0
LINE
  8
0
 10
0.4500
 20
0.2379
 30
0.0000
 11
0.4500
 21
-0.2379
 31
0.0000
  0
LINE
  8
0
 10
0.2379
 20
-0.4500
 30
0.0000
 11
-0.2379
 21
-0.4500
 31
0.0000
  0
LINE
  8
0
 10
-0.4500
 20
-0.2379
 30
0.0000
 11
-0.4500
 21
0.2379
 31
0.0000
  0
ENDBLK
  8
0
  0
ENDSEC
  0
SECTION
  2
ENTITIES
  0
LINE
  8
20
 10
0.0000
 20
0.0000
 30
0.0000
 11
38.1000
 21
0.0000
 31
0.0000
  0
LINE
  8
20
 10
38.1000
 20
0.0000
 30
0.0000
 11
38.1000
 21
25.4000
 31
0.0000
  0
LINE
  8
20
 10
38.1000
 20
25.4000
 30
0.0000
 11
0.0000
 21
25.4000
 31
0.0000
  0
LINE
  8
20
 10
0.0000
 20
25.4000
 30
0.0000
 11
0.0000
 21
0.0000
 31
0.0000
  0
LINE
  8
52
 10
31.8554
 20
14.8511
 30
0.0000
 11
31.9783
 21
14.9739
 31
0.0000
  0
LINE
  8
52
 10
31.9783
 20
14.9739
 30
0.0000
 11
32.2240
 21
14.9739
 31
0.0000
  0
LINE
  8
52
 10
32.2240
 20
14.9739
 30
0.0000
 11
32.3469
 21
14.8511
 31
0.0000
  0
LINE
  8
52
 10
32.3469
 20
14.8511
 30
0.0000
 11
32.3469
 21
14.3596
 31
0.0000
  0
LINE
  8
52
 10
32.3469
 20
14.3596
 30
0.0000
 11
32.2240
 21
14.2367
 31
0.0000
  0
LINE
  8
52
 10
32.2240
 20
14.2367
 30
0.0000
 11
31.9783
 21
14.2367
 31
0.0000
  0
LINE
  8
52
 10
31.9783
 20
14.2367
 30
0.0000
 11
31.8554
 21
14.3596
 31
0.0000
  0
LINE
  8
52
 10
31.5985
 20
14.2367
 30
0.0000
 11
31.5985
 21
14.7282
 31
0.0000
  0
LINE
  8
52
 10
31.5985
 20
14.7282
 30
0.0000
 11
31.3527
 21
14.9739
 31
0.0000
  0
LINE
  8
52
 10
31.3527
 20
14.9739
 30
0.0000
 11
31.1070
 21
14.7282
 31
0.0000
  0
LINE
  8
52
 10
31.1070
 20
14.7282
 30
0.0000
 11
31.1070
 21
14.2367
 31
0.0000
  0
LINE
  8
52
 10
31.5985
 20
14.6053
 30
0.0000
 11
31.1070
 21
14.6053
 31
0.0000
  0
LINE
  8
52
 10
30.8501
 20
14.2367
 30
0.0000
 11
30.8501
 21
14.9739
 31
0.0000
  0
LINE
  8
52
 10
30.8501
 20
14.9739
 30
0.0000
 11
30.3586
 21
14.2367
 31
0.0000
  0
LINE
  8
52
 10
30.3586
 20
14.2367
 30
0.0000
 11
30.3586
 21
14.9739
 31
0.0000
  0
LINE
  8
52
 10
30.1017
 20
14.9739
 30
0.0000
 11
30.1017
 21
14.2367
 31
0.0000
  0
LINE
  8
52
 10
30.1017
 20
14.2367
 30
0.0000
 11
29.6102
 21
14.2367
 31
0.0000
  0
LINE
  8
52
 10
31.8808
 20
18.3563
 30
0.0000
 11
32.0037
 21
18.4791
 31
0.0000
  0
LINE
  8
52
 10
32.0037
 20
18.4791
 30
0.0000
 11
32.2494
 21
18.4791
 31
0.0000
  0
LINE
  8
52
 10
32.2494
 20
18.4791
 30
0.0000
 11
32.3723
 21
18.3563
 31
0.0000
  0
LINE
  8
52
 10
32.3723
 20
18.3563
 30
0.0000
 11
32.3723
 21
17.8648
 31
0.0000
  0
LINE
  8
52
 10
32.3723
 20
17.8648
 30
0.0000
 11
32.2494
 21
17.7419
 31
0.0000
  0
LINE
  8
52
 10
32.2494
 20
17.7419
 30
0.0000
 11
32.0037
 21
17.7419
 31
0.0000
  0
LINE
  8
52
 10
32.0037
 20
17.7419
 30
0.0000
 11
31.8808
 21
17.8648
 31
0.0000
  0
LINE
  8
52
 10
31.6239
 20
17.7419
 30
0.0000
 11
31.6239
 21
18.2334
 31
0.0000
  0
LINE
  8
52
 10
31.6239
 20
18.2334
 30
0.0000
 11
31.3781
 21
18.4791
 31
0.0000
  0
LINE
  8
52
 10
31.3781
 20
18.4791
 30
0.0000
 11
31.1324
 21
18.2334
 31
0.0000
  0
LINE
  8
52
 10
31.1324
 20
18.2334
 30
0.0000
 11
31.1324
 21
17.7419
 31
0.0000
  0
LINE
  8
52
 10
31.6239
 20
18.1105
 30
0.0000
 11
31.1324
 21
18.1105
 31
0.0000
  0
LINE
  8
52
 10
30.8755
 20
17.7419
 30
0.0000
 11
30.8755
 21
18.4791
 31
0.0000
  0
LINE
  8
52
 10
30.8755
 20
18.4791
 30
0.0000
 11
30.3840
 21
17.7419
 31
0.0000
  0
LINE
  8
52
 10
30.3840
 20
17.7419
 30
0.0000
 11
30.3840
 21
18.4791
 31
0.0000
  0
LINE
  8
52
 10
30.1271
 20
17.7419
 30
0.0000
 11
30.1271
 21
18.4791
 31
0.0000
  0
LINE
  8
52
 10
30.1271
 20
18.1105
 30
0.0000
 11
29.6356
 21
18.1105
 31
0.0000
  0
LINE
  8
52
 10
29.6356
 20
18.4791
 30
0.0000
 11
29.6356
 21
17.7419
 31
0.0000
  0
LINE
  8
52
 10
5.0177
 20
19.9311
 30
0.0000
 11
5.1405
 21
20.0539
 31
0.0000
  0
LINE
  8
52
 10
5.1405
 20
20.0539
 30
0.0000
 11
5.3863
 21
20.0539
 31
0.0000
  0
LINE
  8
52
 10
5.3863
 20
20.0539
 30
0.0000
 11
5.5091
 21
19.9311
 31
0.0000
  0
LINE
  8
52
 10
5.5091
 20
19.9311
 30
0.0000
 11
5.5091
 21
19.4396
 31
0.0000
  0
LINE
  8
52
 10
5.5091
 20
19.4396
 30
0.0000
 11
5.3863
 21
19.3167
 31
0.0000
  0
LINE
  8
52
 10
5.3863
 20
19.3167
 30
0.0000
 11
5.1405
 21
19.3167
 31
0.0000
  0
LINE
  8
52
 10
5.1405
 20
19.3167
 30
0.0000
 11
5.0177
 21
19.4396
 31
0.0000
  0
LINE
  8
52
 10
5.0177
 20
19.4396
 30
0.0000
 11
5.0177
 21
19.6853
 31
0.0000
  0
LINE
  8
52
 10
5.0177
 20
19.6853
 30
0.0000
 11
5.2634
 21
19.6853
 31
0.0000
  0
LINE
  8
52
 10
4.7607
 20
19.3167
 30
0.0000
 11
4.7607
 21
20.0539
 31
0.0000
  0
LINE
  8
52
 10
4.7607
 20
20.0539
 30
0.0000
 11
4.2692
 21
19.3167
 31
0.0000
  0
LINE
  8
52
 10
4.2692
 20
19.3167
 30
0.0000
 11
4.2692
 21
20.0539
 31
0.0000
  0
LINE
  8
52
 10
4.0123
 20
20.0539
 30
0.0000
 11
4.0123
 21
19.3167
 31
0.0000
  0
LINE
  8
52
 10
4.0123
 20
19.3167
 30
0.0000
 11
3.6437
 21
19.3167
 31
0.0000
  0
LINE
  8
52
 10
3.6437
 20
19.3167
 30
0.0000
 11
3.5208
 21
19.4396
 31
0.0000
  0
LINE
  8
52
 10
3.5208
 20
19.4396
 30
0.0000
 11
3.5208
 21
19.9311
 31
0.0000
  0
LINE
  8
52
 10
3.5208
 20
19.9311
 30
0.0000
 11
3.6437
 21
20.0539
 31
0.0000
  0
LINE
  8
52
 10
3.6437
 20
20.0539
 30
0.0000
 11
4.0123
 21
20.0539
 31
0.0000
  0
LINE
  8
52
 10
5.5091
 20
17.5139
 30
0.0000
 11
5.5091
 21
17.0224
 31
0.0000
  0
LINE
  8
52
 10
5.5091
 20
17.0224
 30
0.0000
 11
5.2634
 21
16.7767
 31
0.0000
  0
LINE
  8
52
 10
5.2634
 20
16.7767
 30
0.0000
 11
5.0177
 21
17.0224
 31
0.0000
  0
LINE
  8
52
 10
5.0177
 20
17.0224
 30
0.0000
 11
5.0177
 21
17.5139
 31
0.0000
  0
LINE
  8
52
 10
4.2692
 20
17.3911
 30
0.0000
 11
4.3921
 21
17.5139
 31
0.0000
  0
LINE
  8
52
 10
4.3921
 20
17.5139
 30
0.0000
 11
4.6379
 21
17.5139
 31
0.0000
  0
LINE
  8
52
 10
4.6379
 20
17.5139
 30
0.0000
 11
4.7607
 21
17.3911
 31
0.0000
  0
LINE
  8
52
 10
4.7607
 20
17.3911
 30
0.0000
 11
4.7607
 21
16.8996
 31
0.0000
  0
LINE
  8
52
 10
4.7607
 20
16.8996
 30
0.0000
 11
4.6379
 21
16.7767
 31
0.0000
  0
LINE
  8
52
 10
4.6379
 20
16.7767
 30
0.0000
 11
4.3921
 21
16.7767
 31
0.0000
  0
LINE
  8
52
 10
4.3921
 20
16.7767
 30
0.0000
 11
4.2692
 21
16.8996
 31
0.0000
  0
LINE
  8
52
 10
3.5208
 20
17.3911
 30
0.0000
 11
3.6437
 21
17.5139
 31
0.0000
  0
LINE
  8
52
 10
3.6437
 20
17.5139
 30
0.0000
 11
3.8894
 21
17.5139
 31
0.0000
  0
LINE
  8
52
 10
3.8894
 20
17.5139
 30
0.0000
 11
4.0123
 21
17.3911
 31
0.0000
  0
LINE
  8
52
 10
4.0123
 20
17.3911
 30
0.0000
 11
4.0123
 21
16.8996
 31
0.0000
  0
LINE
  8
52
 10
4.0123
 20
16.8996
 30
0.0000
 11
3.8894
 21
16.7767
 31
0.0000
  0
LINE
  8
52
 10
3.8894
 20
16.7767
 30
0.0000
 11
3.6437
 21
16.7767
 31
0.0000
  0
LINE
  8
52
 10
3.6437
 20
16.7767
 30
0.0000
 11
3.5208
 21
16.8996
 31
0.0000
  0
LINE
  8
52
 10
7.0060
 20
14.2367
 30
0.0000
 11
7.0060
 21
14.9739
 31
0.0000
  0
LINE
  8
52
 10
7.0060
 20
14.9739
 30
0.0000
 11
6.6374
 21
14.9739
 31
0.0000
  0
LINE
  8
52
 10
6.6374
 20
14.9739
 30
0.0000
 11
6.5145
 21
14.8511
 31
0.0000
  0
LINE
  8
52
 10
6.5145
 20
14.8511
 30
0.0000
 11
6.5145
 21
14.6053
 31
0.0000
  0
LINE
  8
52
 10
6.5145
 20
14.6053
 30
0.0000
 11
6.6374
 21
14.4824
 31
0.0000
  0
LINE
  8
52
 10
6.6374
 20
14.4824
 30
0.0000
 11
7.0060
 21
14.4824
 31
0.0000
  0
LINE
  8
52
 10
6.7602
 20
14.4824
 30
0.0000
 11
6.5145
 21
14.2367
 31
0.0000
  0
LINE
  8
52
 10
5.7661
 20
14.9739
 30
0.0000
 11
6.2576
 21
14.9739
 31
0.0000
  0
LINE
  8
52
 10
6.2576
 20
14.9739
 30
0.0000
 11
6.2576
 21
14.2367
 31
0.0000
  0
LINE
  8
52
 10
6.2576
 20
14.2367
 30
0.0000
 11
5.7661
 21
14.2367
 31
0.0000
  0
LINE
  8
52
 10
6.2576
 20
14.6053
 30
0.0000
 11
6.0118
 21
14.6053
 31
0.0000
  0
LINE
  8
52
 10
5.0177
 20
14.8511
 30
0.0000
 11
5.1405
 21
14.9739
 31
0.0000
  0
LINE
  8
52
 10
5.1405
 20
14.9739
 30
0.0000
 11
5.3863
 21
14.9739
 31
0.0000
  0
LINE
  8
52
 10
5.3863
 20
14.9739
 30
0.0000
 11
5.5091
 21
14.8511
 31
0.0000
  0
LINE
  8
52
 10
5.5091
 20
14.8511
 30
0.0000
 11
5.5091
 21
14.7282
 31
0.0000
  0
LINE
  8
52
 10
5.5091
 20
14.7282
 30
0.0000
 11
5.3863
 21
14.6053
 31
0.0000
  0
LINE
  8
52
 10
5.3863
 20
14.6053
 30
0.0000
 11
5.1405
 21
14.6053
 31
0.0000
  0
LINE
  8
52
 10
5.1405
 20
14.6053
 30
0.0000
 11
5.0177
 21
14.4824
 31
0.0000
  0
LINE
  8
52
 10
5.0177
 20
14.4824
 30
0.0000
 11
5.0177
 21
14.3596
 31
0.0000
  0
LINE
  8
52
 10
5.0177
 20
14.3596
 30
0.0000
 11
5.1405
 21
14.2367
 31
0.0000
  0
LINE
  8
52
 10
5.1405
 20
14.2367
 30
0.0000
 11
5.3863
 21
14.2367
 31
0.0000
  0
LINE
  8
52
 10
5.3863
 20
14.2367
 30
0.0000
 11
5.5091
 21
14.3596
 31
0.0000
  0
LINE
  8
52
 10
4.2692
 20
14.9739
 30
0.0000
 11
4.7607
 21
14.9739
 31
0.0000
  0
LINE
  8
52
 10
4.7607
 20
14.9739
 30
0.0000
 11
4.7607
 21
14.2367
 31
0.0000
  0
LINE
  8
52
 10
4.7607
 20
14.2367
 30
0.0000
 11
4.2692
 21
14.2367
 31
0.0000
  0
LINE
  8
52
 10
4.7607
 20
14.6053
 30
0.0000
 11
4.5150
 21
14.6053
 31
0.0000
  0
LINE
  8
52
 10
3.7666
 20
14.2367
 30
0.0000
 11
3.7666
 21
14.9739
 31
0.0000
  0
LINE
  8
52
 10
4.0123
 20
14.9739
 30
0.0000
 11
3.5208
 21
14.9739
 31
0.0000
  0
LINE
  8
52
 10
6.0081
 20
11.6967
 30
0.0000
 11
6.0081
 21
12.4339
 31
0.0000
  0
LINE
  8
52
 10
6.0081
 20
12.4339
 30
0.0000
 11
5.7624
 21
12.1882
 31
0.0000
  0
LINE
  8
52
 10
5.7624
 20
12.1882
 30
0.0000
 11
5.5166
 21
12.4339
 31
0.0000
  0
LINE
  8
52
 10
5.5166
 20
12.4339
 30
0.0000
 11
5.5166
 21
11.6967
 31
0.0000
  0
LINE
  8
52
 10
5.2597
 20
11.6967
 30
0.0000
 11
5.0139
 21
11.6967
 31
0.0000
  0
LINE
  8
52
 10
5.1368
 20
11.6967
 30
0.0000
 11
5.1368
 21
12.4339
 31
0.0000
  0
LINE
  8
52
 10
5.2597
 20
12.4339
 30
0.0000
 11
5.0139
 21
12.4339
 31
0.0000
  0
LINE
  8
52
 10
4.2692
 20
12.3111
 30
0.0000
 11
4.3921
 21
12.4339
 31
0.0000
  0
LINE
  8
52
 10
4.3921
 20
12.4339
 30
0.0000
 11
4.6379
 21
12.4339
 31
0.0000
  0
LINE
  8
52
 10
4.6379
 20
12.4339
 30
0.0000
 11
4.7607
 21
12.3111
 31
0.0000
  0
LINE
  8
52
 10
4.7607
 20
12.3111
 30
0.0000
 11
4.7607
 21
12.1882
 31
0.0000
  0
LINE
  8
52
 10
4.7607
 20
12.1882
 30
0.0000
 11
4.6379
 21
12.0653
 31
0.0000
  0
LINE
  8
52
 10
4.6379
 20
12.0653
 30
0.0000
 11
4.3921
 21
12.0653
 31
0.0000
  0
LINE
  8
52
 10
4.3921
 20
12.0653
 30
0.0000
 11
4.2692
 21
11.9424
 31
0.0000
  0
LINE
  8
52
 10
4.2692
 20
11.9424
 30
0.0000
 11
4.2692
 21
11.8196
 31
0.0000
  0
LINE
  8
52
 10
4.2692
 20
11.8196
 30
0.0000
 11
4.3921
 21
11.6967
 31
0.0000
  0
LINE
  8
52
 10
4.3921
 20
11.6967
 30
0.0000
 11
4.6379
 21
11.6967
 31
0.0000
  0
LINE
  8
52
 10
4.6379
 20
11.6967
 30
0.0000
 11
4.7607
 21
11.8196
 31
0.0000
  0
LINE
  8
52
 10
3.6437
 20
12.4339
 30
0.0000
 11
3.8894
 21
12.4339
 31
0.0000
  0
LINE
  8
52
 10
3.8894
 20
12.4339
 30
0.0000
 11
4.0123
 21
12.3111
 31
0.0000
  0
LINE
  8
52
 10
4.0123
 20
12.3111
 30
0.0000
 11
4.0123
 21
11.8196
 31
0.0000
  0
LINE
  8
52
 10
4.0123
 20
11.8196
 30
0.0000
 11
3.8894
 21
11.6967
 31
0.0000
  0
LINE
  8
52
 10
3.8894
 20
11.6967
 30
0.0000
 11
3.6437
 21
11.6967
 31
0.0000
  0
LINE
  8
52
 10
3.6437
 20
11.6967
 30
0.0000
 11
3.5208
 21
11.8196
 31
0.0000
  0
LINE
  8
52
 10
3.5208
 20
11.8196
 30
0.0000
 11
3.5208
 21
12.3111
 31
0.0000
  0
LINE
  8
52
 10
3.5208
 20
12.3111
 30
0.0000
 11
3.6437
 21
12.4339
 31
0.0000
  0
LINE
  8
52
 10
6.0081
 20
9.1567
 30
0.0000
 11
6.0081
 21
9.8939
 31
0.0000
  0
LINE
  8
52
 10
6.0081
 20
9.8939
 30
0.0000
 11
5.7624
 21
9.6482
 31
0.0000
  0
LINE
  8
52
 10
5.7624
 20
9.6482
 30
0.0000
 11
5.5166
 21
9.8939
 31
0.0000
  0
LINE
  8
52
 10
5.5166
 20
9.8939
 30
0.0000
 11
5.5166
 21
9.1567
 31
0.0000
  0
LINE
  8
52
 10
4.8911
 20
9.8939
 30
0.0000
 11
5.1368
 21
9.8939
 31
0.0000
  0
LINE
  8
52
 10
5.1368
 20
9.8939
 30
0.0000
 11
5.2597
 21
9.7711
 31
0.0000
  0
LINE
  8
52
 10
5.2597
 20
9.7711
 30
0.0000
 11
5.2597
 21
9.2796
 31
0.0000
  0
LINE
  8
52
 10
5.2597
 20
9.2796
 30
0.0000
 11
5.1368
 21
9.1567
 31
0.0000
  0
LINE
  8
52
 10
5.1368
 20
9.1567
 30
0.0000
 11
4.8911
 21
9.1567
 31
0.0000
  0
LINE
  8
52
 10
4.8911
 20
9.1567
 30
0.0000
 11
4.7682
 21
9.2796
 31
0.0000
  0
LINE
  8
52
 10
4.7682
 20
9.2796
 30
0.0000
 11
4.7682
 21
9.7711
 31
0.0000
  0
LINE
  8
52
 10
4.7682
 20
9.7711
 30
0.0000
 11
4.8911
 21
9.8939
 31
0.0000
  0
LINE
  8
52
 10
4.0198
 20
9.7711
 30
0.0000
 11
4.1426
 21
9.8939
 31
0.0000
  0
LINE
  8
52
 10
4.1426
 20
9.8939
 30
0.0000
 11
4.3884
 21
9.8939
 31
0.0000
  0
LINE
  8
52
 10
4.3884
 20
9.8939
 30
0.0000
 11
4.5113
 21
9.7711
 31
0.0000
  0
LINE
  8
52
 10
4.5113
 20
9.7711
 30
0.0000
 11
4.5113
 21
9.6482
 31
0.0000
  0
LINE
  8
52
 10
4.5113
 20
9.6482
 30
0.0000
 11
4.3884
 21
9.5253
 31
0.0000
  0
LINE
  8
52
 10
4.3884
 20
9.5253
 30
0.0000
 11
4.1426
 21
9.5253
 31
0.0000
  0
LINE
  8
52
 10
4.1426
 20
9.5253
 30
0.0000
 11
4.0198
 21
9.4024
 31
0.0000
  0
LINE
  8
52
 10
4.0198
 20
9.4024
 30
0.0000
 11
4.0198
 21
9.2796
 31
0.0000
  0
LINE
  8
52
 10
4.0198
 20
9.2796
 30
0.0000
 11
4.1426
 21
9.1567
 31
0.0000
  0
LINE
  8
52
 10
4.1426
 20
9.1567
 30
0.0000
 11
4.3884
 21
9.1567
 31
0.0000
  0
LINE
  8
52
 10
4.3884
 20
9.1567
 30
0.0000
 11
4.5113
 21
9.2796
 31
0.0000
  0
LINE
  8
52
 10
3.7628
 20
9.1567
 30
0.0000
 11
3.5171
 21
9.1567
 31
0.0000
  0
LINE
  8
52
 10
3.6400
 20
9.1567
 30
0.0000
 11
3.6400
 21
9.8939
 31
0.0000
  0
LINE
  8
52
 10
3.7628
 20
9.8939
 30
0.0000
 11
3.5171
 21
9.8939
 31
0.0000
  0
LINE
  8
52
 10
5.0177
 20
7.2311
 30
0.0000
 11
5.1405
 21
7.3539
 31
0.0000
  0
LINE
  8
52
 10
5.1405
 20
7.3539
 30
0.0000
 11
5.3863
 21
7.3539
 31
0.0000
  0
LINE
  8
52
 10
5.3863
 20
7.3539
 30
0.0000
 11
5.5091
 21
7.2311
 31
0.0000
  0
LINE
  8
52
 10
5.5091
 20
7.2311
 30
0.0000
 11
5.5091
 21
7.1082
 31
0.0000
  0
LINE
  8
52
 10
5.5091
 20
7.1082
 30
0.0000
 11
5.3863
 21
6.9853
 31
0.0000
  0
LINE
  8
52
 10
5.3863
 20
6.9853
 30
0.0000
 11
5.1405
 21
6.9853
 31
0.0000
  0
LINE
  8
52
 10
5.1405
 20
6.9853
 30
0.0000
 11
5.0177
 21
6.8624
 31
0.0000
  0
LINE
  8
52
 10
5.0177
 20
6.8624
 30
0.0000
 11
5.0177
 21
6.7396
 31
0.0000
  0
LINE
  8
52
 10
5.0177
 20
6.7396
 30
0.0000
 11
5.1405
 21
6.6167
 31
0.0000
  0
LINE
  8
52
 10
5.1405
 20
6.6167
 30
0.0000
 11
5.3863
 21
6.6167
 31
0.0000
  0
LINE
  8
52
 10
5.3863
 20
6.6167
 30
0.0000
 11
5.5091
 21
6.7396
 31
0.0000
  0
LINE
  8
52
 10
4.2692
 20
7.2311
 30
0.0000
 11
4.3921
 21
7.3539
 31
0.0000
  0
LINE
  8
52
 10
4.3921
 20
7.3539
 30
0.0000
 11
4.6379
 21
7.3539
 31
0.0000
  0
LINE
  8
52
 10
4.6379
 20
7.3539
 30
0.0000
 11
4.7607
 21
7.2311
 31
0.0000
  0
LINE
  8
52
 10
4.7607
 20
7.2311
 30
0.0000
 11
4.7607
 21
6.7396
 31
0.0000
  0
LINE
  8
52
 10
4.7607
 20
6.7396
 30
0.0000
 11
4.6379
 21
6.6167
 31
0.0000
  0
LINE
  8
52
 10
4.6379
 20
6.6167
 30
0.0000
 11
4.3921
 21
6.6167
 31
0.0000
  0
LINE
  8
52
 10
4.3921
 20
6.6167
 30
0.0000
 11
4.2692
 21
6.7396
 31
0.0000
  0
LINE
  8
52
 10
4.0123
 20
7.3539
 30
0.0000
 11
4.0123
 21
6.6167
 31
0.0000
  0
LINE
  8
52
 10
4.0123
 20
6.8624
 30
0.0000
 11
3.5208
 21
7.3539
 31
0.0000
  0
LINE
  8
52
 10
3.8894
 20
6.9853
 30
0.0000
 11
3.5208
 21
6.6167
 31
0.0000
  0
LINE
  8
52
 10
4.2692
 20
4.6911
 30
0.0000
 11
4.3921
 21
4.8139
 31
0.0000
  0
LINE
  8
52
 10
4.3921
 20
4.8139
 30
0.0000
 11
4.6379
 21
4.8139
 31
0.0000
  0
LINE
  8
52
 10
4.6379
 20
4.8139
 30
0.0000
 11
4.7607
 21
4.6911
 31
0.0000
  0
LINE
  8
52
 10
4.7607
 20
4.6911
 30
0.0000
 11
4.7607
 21
4.1996
 31
0.0000
  0
LINE
  8
52
 10
4.7607
 20
4.1996
 30
0.0000
 11
4.6379
 21
4.0767
 31
0.0000
  0
LINE
  8
52
 10
4.6379
 20
4.0767
 30
0.0000
 11
4.3921
 21
4.0767
 31
0.0000
  0
LINE
  8
52
 10
4.3921
 20
4.0767
 30
0.0000
 11
4.2692
 21
4.1996
 31
0.0000
  0
LINE
  8
52
 10
3.5208
 20
4.6911
 30
0.0000
 11
3.6437
 21
4.8139
 31
0.0000
  0
LINE
  8
52
 10
3.6437
 20
4.8139
 30
0.0000
 11
3.8894
 21
4.8139
 31
0.0000
  0
LINE
  8
52
 10
3.8894
 20
4.8139
 30
0.0000
 11
4.0123
 21
4.6911
 31
0.0000
  0
LINE
  8
52
 10
4.0123
 20
4.6911
 30
0.0000
 11
4.0123
 21
4.5682
 31
0.0000
  0
LINE
  8
52
 10
4.0123
 20
4.5682
 30
0.0000
 11
3.8894
 21
4.4453
 31
0.0000
  0
LINE
  8
52
 10
3.8894
 20
4.4453
 30
0.0000
 11
3.6437
 21
4.4453
 31
0.0000
  0
LINE
  8
52
 10
3.6437
 20
4.4453
 30
0.0000
 11
3.5208
 21
4.3224
 31
0.0000
  0
LINE
  8
52
 10
3.5208
 20
4.3224
 30
0.0000
 11
3.5208
 21
4.1996
 31
0.0000
  0
LINE
  8
52
 10
3.5208
 20
4.1996
 30
0.0000
 11
3.6437
 21
4.0767
 31
0.0000
  0
LINE
  8
52
 10
3.6437
 20
4.0767
 30
0.0000
 11
3.8894
 21
4.0767
 31
0.0000
  0
LINE
  8
52
 10
3.8894
 20
4.0767
 30
0.0000
 11
4.0123
 21
4.1996
 31
0.0000
  0
LINE
  8
52
 10
5.2597
 20
1.5367
 30
0.0000
 11
5.0139
 21
1.5367
 31
0.0000
  0
LINE
  8
52
 10
5.1368
 20
1.5367
 30
0.0000
 11
5.1368
 21
2.2739
 31
0.0000
  0
LINE
  8
52
 10
5.2597
 20
2.2739
 30
0.0000
 11
5.0139
 21
2.2739
 31
0.0000
  0
LINE
  8
52
 10
4.7607
 20
1.5367
 30
0.0000
 11
4.7607
 21
2.2739
 31
0.0000
  0
LINE
  8
52
 10
4.7607
 20
2.2739
 30
0.0000
 11
4.2692
 21
1.5367
 31
0.0000
  0
LINE
  8
52
 10
4.2692
 20
1.5367
 30
0.0000
 11
4.2692
 21
2.2739
 31
0.0000
  0
LINE
  8
52
 10
3.7666
 20
1.5367
 30
0.0000
 11
3.7666
 21
2.2739
 31
0.0000
  0
LINE
  8
52
 10
4.0123
 20
2.2739
 30
0.0000
 11
3.5208
 21
2.2739
 31
0.0000
  0
LINE
  8
52
 10
31.8554
 20
21.8361
 30
0.0000
 11
31.9783
 21
21.9589
 31
0.0000
  0
LINE
  8
52
 10
31.9783
 20
21.9589
 30
0.0000
 11
32.2240
 21
21.9589
 31
0.0000
  0
LINE
  8
52
 10
32.2240
 20
21.9589
 30
0.0000
 11
32.3469
 21
21.8361
 31
0.0000
  0
LINE
  8
52
 10
32.3469
 20
21.8361
 30
0.0000
 11
32.3469
 21
21.3446
 31
0.0000
  0
LINE
  8
52
 10
32.3469
 20
21.3446
 30
0.0000
 11
32.2240
 21
21.2217
 31
0.0000
  0
LINE
  8
52
 10
32.2240
 20
21.2217
 30
0.0000
 11
31.9783
 21
21.2217
 31
0.0000
  0
LINE
  8
52
 10
31.9783
 20
21.2217
 30
0.0000
 11
31.8554
 21
21.3446
 31
0.0000
  0
LINE
  8
52
 10
31.8554
 20
21.3446
 30
0.0000
 11
31.8554
 21
21.5903
 31
0.0000
  0
LINE
  8
52
 10
31.8554
 20
21.5903
 30
0.0000
 11
32.1012
 21
21.5903
 31
0.0000
  0
LINE
  8
52
 10
31.5985
 20
21.2217
 30
0.0000
 11
31.5985
 21
21.9589
 31
0.0000
  0
LINE
  8
52
 10
31.5985
 20
21.9589
 30
0.0000
 11
31.1070
 21
21.2217
 31
0.0000
  0
LINE
  8
52
 10
31.1070
 20
21.2217
 30
0.0000
 11
31.1070
 21
21.9589
 31
0.0000
  0
LINE
  8
52
 10
30.8501
 20
21.9589
 30
0.0000
 11
30.8501
 21
21.2217
 31
0.0000
  0
LINE
  8
52
 10
30.8501
 20
21.2217
 30
0.0000
 11
30.4815
 21
21.2217
 31
0.0000
  0
LINE
  8
52
 10
30.4815
 20
21.2217
 30
0.0000
 11
30.3586
 21
21.3446
 31
0.0000
  0
LINE
  8
52
 10
30.3586
 20
21.3446
 30
0.0000
 11
30.3586
 21
21.8361
 31
0.0000
  0
LINE
  8
52
 10
30.3586
 20
21.8361
 30
0.0000
 11
30.4815
 21
21.9589
 31
0.0000
  0
LINE
  8
52
 10
30.4815
 20
21.9589
 30
0.0000
 11
30.8501
 21
21.9589
 31
0.0000
  0
LINE
  8
52
 10
28.6804
 20
7.4597
 30
0.0000
 11
28.8033
 21
7.5825
 31
0.0000
  0
LINE
  8
52
 10
28.8033
 20
7.5825
 30
0.0000
 11
29.0490
 21
7.5825
 31
0.0000
  0
LINE
  8
52
 10
29.0490
 20
7.5825
 30
0.0000
 11
29.1719
 21
7.4597
 31
0.0000
  0
LINE
  8
52
 10
29.1719
 20
7.4597
 30
0.0000
 11
29.1719
 21
6.9682
 31
0.0000
  0
LINE
  8
52
 10
29.1719
 20
6.9682
 30
0.0000
 11
29.0490
 21
6.8453
 31
0.0000
  0
LINE
  8
52
 10
29.0490
 20
6.8453
 30
0.0000
 11
28.8033
 21
6.8453
 31
0.0000
  0
LINE
  8
52
 10
28.8033
 20
6.8453
 30
0.0000
 11
28.6804
 21
6.9682
 31
0.0000
  0
LINE
  8
52
 10
28.4235
 20
6.8453
 30
0.0000
 11
28.4235
 21
7.3368
 31
0.0000
  0
LINE
  8
52
 10
28.4235
 20
7.3368
 30
0.0000
 11
28.1777
 21
7.5825
 31
0.0000
  0
LINE
  8
52
 10
28.1777
 20
7.5825
 30
0.0000
 11
27.9320
 21
7.3368
 31
0.0000
  0
LINE
  8
52
 10
27.9320
 20
7.3368
 30
0.0000
 11
27.9320
 21
6.8453
 31
0.0000
  0
LINE
  8
52
 10
28.4235
 20
7.2139
 30
0.0000
 11
27.9320
 21
7.2139
 31
0.0000
  0
LINE
  8
52
 10
27.6751
 20
6.8453
 30
0.0000
 11
27.6751
 21
7.5825
 31
0.0000
  0
LINE
  8
52
 10
27.6751
 20
7.5825
 30
0.0000
 11
27.1836
 21
6.8453
 31
0.0000
  0
LINE
  8
52
 10
27.1836
 20
6.8453
 30
0.0000
 11
27.1836
 21
7.5825
 31
0.0000
  0
LINE
  8
52
 10
26.1782
 20
6.8453
 30
0.0000
 11
26.1782
 21
7.5825
 31
0.0000
  0
LINE
  8
52
 10
26.1782
 20
7.5825
 30
0.0000
 11
25.8096
 21
7.5825
 31
0.0000
  0
LINE
  8
52
 10
25.8096
 20
7.5825
 30
0.0000
 11
25.6868
 21
7.4597
 31
0.0000
  0
LINE
  8
52
 10
25.6868
 20
7.4597
 30
0.0000
 11
25.6868
 21
7.3368
 31
0.0000
  0
LINE
  8
52
 10
25.6868
 20
7.3368
 30
0.0000
 11
25.8096
 21
7.2139
 31
0.0000
  0
LINE
  8
52
 10
25.8096
 20
7.2139
 30
0.0000
 11
25.6868
 21
7.0910
 31
0.0000
  0
LINE
  8
52
 10
25.6868
 20
7.0910
 30
0.0000
 11
25.6868
 21
6.9682
 31
0.0000
  0
LINE
  8
52
 10
25.6868
 20
6.9682
 30
0.0000
 11
25.8096
 21
6.8453
 31
0.0000
  0
LINE
  8
52
 10
25.8096
 20
6.8453
 30
0.0000
 11
26.1782
 21
6.8453
 31
0.0000
  0
LINE
  8
52
 10
26.1782
 20
7.2139
 30
0.0000
 11
25.8096
 21
7.2139
 31
0.0000
  0
LINE
  8
52
 10
25.4298
 20
7.3368
 30
0.0000
 11
25.4298
 21
6.9682
 31
0.0000
  0
LINE
  8
52
 10
25.4298
 20
6.9682
 30
0.0000
 11
25.3070
 21
6.8453
 31
0.0000
  0
LINE
  8
52
 10
25.3070
 20
6.8453
 30
0.0000
 11
24.9383
 21
6.8453
 31
0.0000
  0
LINE
  8
52
 10
24.9383
 20
6.8453
 30
0.0000
 11
24.9383
 21
7.3368
 31
0.0000
  0
LINE
  8
52
 10
24.6814
 20
6.8453
 30
0.0000
 11
24.3128
 21
6.8453
 31
0.0000
  0
LINE
  8
52
 10
24.3128
 20
6.8453
 30
0.0000
 11
24.1899
 21
6.9682
 31
0.0000
  0
LINE
  8
52
 10
24.1899
 20
6.9682
 30
0.0000
 11
24.3128
 21
7.0910
 31
0.0000
  0
LINE
  8
52
 10
24.3128
 20
7.0910
 30
0.0000
 11
24.5585
 21
7.0910
 31
0.0000
  0
LINE
  8
52
 10
24.5585
 20
7.0910
 30
0.0000
 11
24.6814
 21
7.2139
 31
0.0000
  0
LINE
  8
52
 10
24.6814
 20
7.2139
 30
0.0000
 11
24.5585
 21
7.3368
 31
0.0000
  0
LINE
  8
52
 10
24.5585
 20
7.3368
 30
0.0000
 11
24.1899
 21
7.3368
 31
0.0000
  0
LINE
  8
52
 10
23.1846
 20
6.8453
 30
0.0000
 11
23.1846
 21
7.5825
 31
0.0000
  0
LINE
  8
52
 10
23.1846
 20
7.5825
 30
0.0000
 11
22.8160
 21
7.5825
 31
0.0000
  0
LINE
  8
52
 10
22.8160
 20
7.5825
 30
0.0000
 11
22.6931
 21
7.4597
 31
0.0000
  0
LINE
  8
52
 10
22.6931
 20
7.4597
 30
0.0000
 11
22.6931
 21
7.3368
 31
0.0000
  0
LINE
  8
52
 10
22.6931
 20
7.3368
 30
0.0000
 11
22.8160
 21
7.2139
 31
0.0000
  0
LINE
  8
52
 10
22.8160
 20
7.2139
 30
0.0000
 11
22.6931
 21
7.0910
 31
0.0000
  0
LINE
  8
52
 10
22.6931
 20
7.0910
 30
0.0000
 11
22.6931
 21
6.9682
 31
0.0000
  0
LINE
  8
52
 10
22.6931
 20
6.9682
 30
0.0000
 11
22.8160
 21
6.8453
 31
0.0000
  0
LINE
  8
52
 10
22.8160
 20
6.8453
 30
0.0000
 11
23.1846
 21
6.8453
 31
0.0000
  0
LINE
  8
52
 10
23.1846
 20
7.2139
 30
0.0000
 11
22.8160
 21
7.2139
 31
0.0000
  0
LINE
  8
52
 10
22.4362
 20
6.8453
 30
0.0000
 11
22.4362
 21
7.3368
 31
0.0000
  0
LINE
  8
52
 10
22.4362
 20
7.0910
 30
0.0000
 11
22.1904
 21
7.3368
 31
0.0000
  0
LINE
  8
52
 10
22.1904
 20
7.3368
 30
0.0000
 11
22.0675
 21
7.3368
 31
0.0000
  0
LINE
  8
52
 10
21.4439
 20
6.8453
 30
0.0000
 11
21.6896
 21
6.8453
 31
0.0000
  0
LINE
  8
52
 10
21.6896
 20
6.8453
 30
0.0000
 11
21.8125
 21
6.9682
 31
0.0000
  0
LINE
  8
52
 10
21.8125
 20
6.9682
 30
0.0000
 11
21.8125
 21
7.2139
 31
0.0000
  0
LINE
  8
52
 10
21.8125
 20
7.2139
 30
0.0000
 11
21.6896
 21
7.3368
 31
0.0000
  0
LINE
  8
52
 10
21.6896
 20
7.3368
 30
0.0000
 11
21.4439
 21
7.3368
 31
0.0000
  0
LINE
  8
52
 10
21.4439
 20
7.3368
 30
0.0000
 11
21.3210
 21
7.2139
 31
0.0000
  0
LINE
  8
52
 10
21.3210
 20
7.2139
 30
0.0000
 11
21.3210
 21
7.0910
 31
0.0000
  0
LINE
  8
52
 10
21.3210
 20
7.0910
 30
0.0000
 11
21.8125
 21
7.0910
 31
0.0000
  0
LINE
  8
52
 10
20.9412
 20
7.3368
 30
0.0000
 11
20.6955
 21
7.3368
 31
0.0000
  0
LINE
  8
52
 10
20.6955
 20
7.3368
 30
0.0000
 11
20.5726
 21
7.2139
 31
0.0000
  0
LINE
  8
52
 10
20.5726
 20
7.2139
 30
0.0000
 11
20.5726
 21
6.8453
 31
0.0000
  0
LINE
  8
52
 10
20.5726
 20
6.8453
 30
0.0000
 11
20.9412
 21
6.8453
 31
0.0000
  0
LINE
  8
52
 10
20.9412
 20
6.8453
 30
0.0000
 11
21.0641
 21
6.9682
 31
0.0000
  0
LINE
  8
52
 10
21.0641
 20
6.9682
 30
0.0000
 11
20.9412
 21
7.0910
 31
0.0000
  0
LINE
  8
52
 10
20.9412
 20
7.0910
 30
0.0000
 11
20.5726
 21
7.0910
 31
0.0000
  0
LINE
  8
52
 10
20.3157
 20
6.8453
 30
0.0000
 11
20.3157
 21
7.5825
 31
0.0000
  0
LINE
  8
52
 10
19.9470
 20
6.8453
 30
0.0000
 11
20.3157
 21
7.0910
 31
0.0000
  0
LINE
  8
52
 10
20.3157
 20
7.0910
 30
0.0000
 11
19.9470
 21
7.3368
 31
0.0000
  0
LINE
  8
52
 10
19.5691
 20
6.8453
 30
0.0000
 11
19.3234
 21
6.8453
 31
0.0000
  0
LINE
  8
52
 10
19.3234
 20
6.8453
 30
0.0000
 11
19.2005
 21
6.9682
 31
0.0000
  0
LINE
  8
52
 10
19.2005
 20
6.9682
 30
0.0000
 11
19.2005
 21
7.2139
 31
0.0000
  0
LINE
  8
52
 10
19.2005
 20
7.2139
 30
0.0000
 11
19.3234
 21
7.3368
 31
0.0000
  0
LINE
  8
52
 10
19.3234
 20
7.3368
 30
0.0000
 11
19.5691
 21
7.3368
 31
0.0000
  0
LINE
  8
52
 10
19.5691
 20
7.3368
 30
0.0000
 11
19.6920
 21
7.2139
 31
0.0000
  0
LINE
  8
52
 10
19.6920
 20
7.2139
 30
0.0000
 11
19.6920
 21
6.9682
 31
0.0000
  0
LINE
  8
52
 10
19.6920
 20
6.9682
 30
0.0000
 11
19.5691
 21
6.8453
 31
0.0000
  0
LINE
  8
52
 10
18.9436
 20
7.3368
 30
0.0000
 11
18.9436
 21
6.9682
 31
0.0000
  0
LINE
  8
52
 10
18.9436
 20
6.9682
 30
0.0000
 11
18.8207
 21
6.8453
 31
0.0000
  0
LINE
  8
52
 10
18.8207
 20
6.8453
 30
0.0000
 11
18.4521
 21
6.8453
 31
0.0000
  0
LINE
  8
52
 10
18.4521
 20
6.8453
 30
0.0000
 11
18.4521
 21
7.3368
 31
0.0000
  0
LINE
  8
52
 10
18.0723
 20
7.4597
 30
0.0000
 11
18.0723
 21
6.9682
 31
0.0000
  0
LINE
  8
52
 10
18.0723
 20
6.9682
 30
0.0000
 11
17.9494
 21
6.8453
 31
0.0000
  0
LINE
  8
52
 10
18.1951
 20
7.3368
 30
0.0000
 11
17.9494
 21
7.3368
 31
0.0000
  0
LINE
  8
52
 10
16.9478
 20
6.8453
 30
0.0000
 11
16.9478
 21
7.5825
 31
0.0000
  0
LINE
  8
52
 10
16.9478
 20
7.5825
 30
0.0000
 11
16.5792
 21
7.5825
 31
0.0000
  0
LINE
  8
52
 10
16.5792
 20
7.5825
 30
0.0000
 11
16.4563
 21
7.4597
 31
0.0000
  0
LINE
  8
52
 10
16.4563
 20
7.4597
 30
0.0000
 11
16.4563
 21
7.3368
 31
0.0000
  0
LINE
  8
52
 10
16.4563
 20
7.3368
 30
0.0000
 11
16.5792
 21
7.2139
 31
0.0000
  0
LINE
  8
52
 10
16.5792
 20
7.2139
 30
0.0000
 11
16.4563
 21
7.0910
 31
0.0000
  0
LINE
  8
52
 10
16.4563
 20
7.0910
 30
0.0000
 11
16.4563
 21
6.9682
 31
0.0000
  0
LINE
  8
52
 10
16.4563
 20
6.9682
 30
0.0000
 11
16.5792
 21
6.8453
 31
0.0000
  0
LINE
  8
52
 10
16.5792
 20
6.8453
 30
0.0000
 11
16.9478
 21
6.8453
 31
0.0000
  0
LINE
  8
52
 10
16.9478
 20
7.2139
 30
0.0000
 11
16.5792
 21
7.2139
 31
0.0000
  0
LINE
  8
52
 10
16.0765
 20
6.8453
 30
0.0000
 11
15.8308
 21
6.8453
 31
0.0000
  0
LINE
  8
52
 10
15.8308
 20
6.8453
 30
0.0000
 11
15.7079
 21
6.9682
 31
0.0000
  0
LINE
  8
52
 10
15.7079
 20
6.9682
 30
0.0000
 11
15.7079
 21
7.2139
 31
0.0000
  0
LINE
  8
52
 10
15.7079
 20
7.2139
 30
0.0000
 11
15.8308
 21
7.3368
 31
0.0000
  0
LINE
  8
52
 10
15.8308
 20
7.3368
 30
0.0000
 11
16.0765
 21
7.3368
 31
0.0000
  0
LINE
  8
52
 10
16.0765
 20
7.3368
 30
0.0000
 11
16.1994
 21
7.2139
 31
0.0000
  0
LINE
  8
52
 10
16.1994
 20
7.2139
 30
0.0000
 11
16.1994
 21
6.9682
 31
0.0000
  0
LINE
  8
52
 10
16.1994
 20
6.9682
 30
0.0000
 11
16.0765
 21
6.8453
 31
0.0000
  0
LINE
  8
52
 10
15.3281
 20
7.3368
 30
0.0000
 11
15.0823
 21
7.3368
 31
0.0000
  0
LINE
  8
52
 10
15.0823
 20
7.3368
 30
0.0000
 11
14.9595
 21
7.2139
 31
0.0000
  0
LINE
  8
52
 10
14.9595
 20
7.2139
 30
0.0000
 11
14.9595
 21
6.8453
 31
0.0000
  0
LINE
  8
52
 10
14.9595
 20
6.8453
 30
0.0000
 11
15.3281
 21
6.8453
 31
0.0000
  0
LINE
  8
52
 10
15.3281
 20
6.8453
 30
0.0000
 11
15.4510
 21
6.9682
 31
0.0000
  0
LINE
  8
52
 10
15.4510
 20
6.9682
 30
0.0000
 11
15.3281
 21
7.0910
 31
0.0000
  0
LINE
  8
52
 10
15.3281
 20
7.0910
 30
0.0000
 11
14.9595
 21
7.0910
 31
0.0000
  0
LINE
  8
52
 10
14.7025
 20
6.8453
 30
0.0000
 11
14.7025
 21
7.3368
 31
0.0000
  0
LINE
  8
52
 10
14.7025
 20
7.0910
 30
0.0000
 11
14.4568
 21
7.3368
 31
0.0000
  0
LINE
  8
52
 10
14.4568
 20
7.3368
 30
0.0000
 11
14.3339
 21
7.3368
 31
0.0000
  0
LINE
  8
52
 10
13.5874
 20
7.5825
 30
0.0000
 11
13.5874
 21
6.8453
 31
0.0000
  0
LINE
  8
52
 10
13.5874
 20
6.8453
 30
0.0000
 11
13.9560
 21
6.8453
 31
0.0000
  0
LINE
  8
52
 10
13.9560
 20
6.8453
 30
0.0000
 11
14.0789
 21
6.9682
 31
0.0000
  0
LINE
  8
52
 10
14.0789
 20
6.9682
 30
0.0000
 11
14.0789
 21
7.2139
 31
0.0000
  0
LINE
  8
52
 10
14.0789
 20
7.2139
 30
0.0000
 11
13.9560
 21
7.3368
 31
0.0000
  0
LINE
  8
52
 10
13.9560
 20
7.3368
 30
0.0000
 11
13.5874
 21
7.3368
 31
0.0000
  0
LINE
  8
52
 10
29.1719
 20
5.9947
 30
0.0000
 11
28.6804
 21
5.9947
 31
0.0000
  0
LINE
  8
52
 10
28.9262
 20
6.2405
 30
0.0000
 11
28.9262
 21
5.7490
 31
0.0000
  0
LINE
  8
52
 10
27.9320
 20
6.3633
 30
0.0000
 11
28.4235
 21
6.3633
 31
0.0000
  0
LINE
  8
52
 10
28.4235
 20
6.3633
 30
0.0000
 11
28.4235
 21
5.9947
 31
0.0000
  0
LINE
  8
52
 10
28.4235
 20
5.9947
 30
0.0000
 11
28.1777
 21
6.1176
 31
0.0000
  0
LINE
  8
52
 10
28.1777
 20
6.1176
 30
0.0000
 11
28.0549
 21
6.1176
 31
0.0000
  0
LINE
  8
52
 10
28.0549
 20
6.1176
 30
0.0000
 11
27.9320
 21
5.9947
 31
0.0000
  0
LINE
  8
52
 10
27.9320
 20
5.9947
 30
0.0000
 11
27.9320
 21
5.7490
 31
0.0000
  0
LINE
  8
52
 10
27.9320
 20
5.7490
 30
0.0000
 11
28.0549
 21
5.6261
 31
0.0000
  0
LINE
  8
52
 10
28.0549
 20
5.6261
 30
0.0000
 11
28.3006
 21
5.6261
 31
0.0000
  0
LINE
  8
52
 10
28.3006
 20
5.6261
 30
0.0000
 11
28.4235
 21
5.7490
 31
0.0000
  0
LINE
  8
52
 10
27.6751
 20
6.3633
 30
0.0000
 11
27.6751
 21
5.8718
 31
0.0000
  0
LINE
  8
52
 10
27.6751
 20
5.8718
 30
0.0000
 11
27.4293
 21
5.6261
 31
0.0000
  0
LINE
  8
52
 10
27.4293
 20
5.6261
 30
0.0000
 11
27.1836
 21
5.8718
 31
0.0000
  0
LINE
  8
52
 10
27.1836
 20
5.8718
 30
0.0000
 11
27.1836
 21
6.3633
 31
0.0000
  0
LINE
  8
52
 10
26.1782
 20
6.3633
 30
0.0000
 11
26.1782
 21
5.6261
 31
0.0000
  0
LINE
  8
52
 10
26.1782
 20
5.6261
 30
0.0000
 11
25.6868
 21
5.6261
 31
0.0000
  0
LINE
  8
52
 10
25.3070
 20
5.6261
 30
0.0000
 11
25.0612
 21
5.6261
 31
0.0000
  0
LINE
  8
52
 10
25.0612
 20
5.6261
 30
0.0000
 11
24.9383
 21
5.7490
 31
0.0000
  0
LINE
  8
52
 10
24.9383
 20
5.7490
 30
0.0000
 11
24.9383
 21
5.9947
 31
0.0000
  0
LINE
  8
52
 10
24.9383
 20
5.9947
 30
0.0000
 11
25.0612
 21
6.1176
 31
0.0000
  0
LINE
  8
52
 10
25.0612
 20
6.1176
 30
0.0000
 11
25.3070
 21
6.1176
 31
0.0000
  0
LINE
  8
52
 10
25.3070
 20
6.1176
 30
0.0000
 11
25.4298
 21
5.9947
 31
0.0000
  0
LINE
  8
52
 10
25.4298
 20
5.9947
 30
0.0000
 11
25.4298
 21
5.7490
 31
0.0000
  0
LINE
  8
52
 10
25.4298
 20
5.7490
 30
0.0000
 11
25.3070
 21
5.6261
 31
0.0000
  0
LINE
  8
52
 10
24.4357
 20
5.3804
 30
0.0000
 11
24.3128
 21
5.3804
 31
0.0000
  0
LINE
  8
52
 10
24.3128
 20
5.3804
 30
0.0000
 11
24.1899
 21
5.5032
 31
0.0000
  0
LINE
  8
52
 10
24.1899
 20
5.5032
 30
0.0000
 11
24.1899
 21
6.1176
 31
0.0000
  0
LINE
  8
52
 10
24.1899
 20
6.1176
 30
0.0000
 11
24.5585
 21
6.1176
 31
0.0000
  0
LINE
  8
52
 10
24.5585
 20
6.1176
 30
0.0000
 11
24.6814
 21
5.9947
 31
0.0000
  0
LINE
  8
52
 10
24.6814
 20
5.9947
 30
0.0000
 11
24.6814
 21
5.7490
 31
0.0000
  0
LINE
  8
52
 10
24.6814
 20
5.7490
 30
0.0000
 11
24.5585
 21
5.6261
 31
0.0000
  0
LINE
  8
52
 10
24.5585
 20
5.6261
 30
0.0000
 11
24.1899
 21
5.6261
 31
0.0000
  0
LINE
  8
52
 10
23.9330
 20
6.1176
 30
0.0000
 11
23.8101
 21
6.1176
 31
0.0000
  0
LINE
  8
52
 10
23.8101
 20
6.1176
 30
0.0000
 11
23.8101
 21
5.6261
 31
0.0000
  0
LINE
  8
52
 10
23.9330
 20
5.6261
 30
0.0000
 11
23.6873
 21
5.6261
 31
0.0000
  0
LINE
  8
52
 10
23.8101
 20
6.4862
 30
0.0000
 11
23.8101
 21
6.3633
 31
0.0000
  0
LINE
  8
52
 10
22.9426
 20
6.1176
 30
0.0000
 11
23.3112
 21
6.1176
 31
0.0000
  0
LINE
  8
52
 10
23.3112
 20
6.1176
 30
0.0000
 11
23.4340
 21
5.9947
 31
0.0000
  0
LINE
  8
52
 10
23.4340
 20
5.9947
 30
0.0000
 11
23.4340
 21
5.7490
 31
0.0000
  0
LINE
  8
52
 10
23.4340
 20
5.7490
 30
0.0000
 11
23.3112
 21
5.6261
 31
0.0000
  0
LINE
  8
52
 10
23.3112
 20
5.6261
 30
0.0000
 11
22.9426
 21
5.6261
 31
0.0000
  0
LINE
  8
52
 10
29.1719
 20
4.4069
 30
0.0000
 11
29.1719
 21
5.1441
 31
0.0000
  0
LINE
  8
52
 10
29.1719
 20
5.1441
 30
0.0000
 11
28.8033
 21
5.1441
 31
0.0000
  0
LINE
  8
52
 10
28.8033
 20
5.1441
 30
0.0000
 11
28.6804
 21
5.0213
 31
0.0000
  0
LINE
  8
52
 10
28.6804
 20
5.0213
 30
0.0000
 11
28.6804
 21
4.7755
 31
0.0000
  0
LINE
  8
52
 10
28.6804
 20
4.7755
 30
0.0000
 11
28.8033
 21
4.6526
 31
0.0000
  0
LINE
  8
52
 10
28.8033
 20
4.6526
 30
0.0000
 11
29.1719
 21
4.6526
 31
0.0000
  0
LINE
  8
52
 10
28.9262
 20
4.6526
 30
0.0000
 11
28.6804
 21
4.4069
 31
0.0000
  0
LINE
  8
52
 10
28.0549
 20
4.4069
 30
0.0000
 11
28.3006
 21
4.4069
 31
0.0000
  0
LINE
  8
52
 10
28.3006
 20
4.4069
 30
0.0000
 11
28.4235
 21
4.5298
 31
0.0000
  0
LINE
  8
52
 10
28.4235
 20
4.5298
 30
0.0000
 11
28.4235
 21
4.7755
 31
0.0000
  0
LINE
  8
52
 10
28.4235
 20
4.7755
 30
0.0000
 11
28.3006
 21
4.8984
 31
0.0000
  0
LINE
  8
52
 10
28.3006
 20
4.8984
 30
0.0000
 11
28.0549
 21
4.8984
 31
0.0000
  0
LINE
  8
52
 10
28.0549
 20
4.8984
 30
0.0000
 11
27.9320
 21
4.7755
 31
0.0000
  0
LINE
  8
52
 10
27.9320
 20
4.7755
 30
0.0000
 11
27.9320
 21
4.6526
 31
0.0000
  0
LINE
  8
52
 10
27.9320
 20
4.6526
 30
0.0000
 11
28.4235
 21
4.6526
 31
0.0000
  0
LINE
  8
52
 10
27.6751
 20
4.8984
 30
0.0000
 11
27.4293
 21
4.4069
 31
0.0000
  0
LINE
  8
52
 10
27.4293
 20
4.4069
 30
0.0000
 11
27.1836
 21
4.8984
 31
0.0000
  0
LINE
  8
52
 10
26.9267
 20
4.8984
 30
0.0000
 11
26.8038
 21
4.8984
 31
0.0000
  0
LINE
  8
52
 10
26.8038
 20
4.8984
 30
0.0000
 11
26.8038
 21
4.7755
 31
0.0000
  0
LINE
  8
52
 10
26.8038
 20
4.7755
 30
0.0000
 11
26.9267
 21
4.7755
 31
0.0000
  0
LINE
  8
52
 10
26.9267
 20
4.7755
 30
0.0000
 11
26.9267
 21
4.8984
 31
0.0000
  0
LINE
  8
52
 10
26.9267
 20
4.5298
 30
0.0000
 11
26.8038
 21
4.5298
 31
0.0000
  0
LINE
  8
52
 10
26.8038
 20
4.5298
 30
0.0000
 11
26.8038
 21
4.4069
 31
0.0000
  0
LINE
  8
52
 10
26.8038
 20
4.4069
 30
0.0000
 11
26.9267
 21
4.4069
 31
0.0000
  0
LINE
  8
52
 10
26.9267
 20
4.4069
 30
0.0000
 11
26.9267
 21
4.5298
 31
0.0000
  0
LINE
  8
52
 10
25.8040
 20
4.5298
 30
0.0000
 11
25.8040
 21
5.0213
 31
0.0000
  0
LINE
  8
52
 10
25.8040
 20
5.0213
 30
0.0000
 11
25.6812
 21
5.1441
 31
0.0000
  0
LINE
  8
52
 10
25.6812
 20
5.1441
 30
0.0000
 11
25.4354
 21
5.1441
 31
0.0000
  0
LINE
  8
52
 10
25.4354
 20
5.1441
 30
0.0000
 11
25.3125
 21
5.0213
 31
0.0000
  0
LINE
  8
52
 10
25.3125
 20
5.0213
 30
0.0000
 11
25.3125
 21
4.5298
 31
0.0000
  0
LINE
  8
52
 10
25.3125
 20
4.5298
 30
0.0000
 11
25.4354
 21
4.4069
 31
0.0000
  0
LINE
  8
52
 10
25.4354
 20
4.4069
 30
0.0000
 11
25.6812
 21
4.4069
 31
0.0000
  0
LINE
  8
52
 10
25.6812
 20
4.4069
 30
0.0000
 11
25.8040
 21
4.5298
 31
0.0000
  0
LINE
  8
52
 10
25.8040
 20
4.5298
 30
0.0000
 11
25.3125
 21
5.0213
 31
0.0000
  0
LINE
  8
52
 10
25.0556
 20
4.5298
 30
0.0000
 11
25.0556
 21
5.0213
 31
0.0000
  0
LINE
  8
52
 10
25.0556
 20
5.0213
 30
0.0000
 11
24.9327
 21
5.1441
 31
0.0000
  0
LINE
  8
52
 10
24.9327
 20
5.1441
 30
0.0000
 11
24.6870
 21
5.1441
 31
0.0000
  0
LINE
  8
52
 10
24.6870
 20
5.1441
 30
0.0000
 11
24.5641
 21
5.0213
 31
0.0000
  0
LINE
  8
52
 10
24.5641
 20
5.0213
 30
0.0000
 11
24.5641
 21
4.5298
 31
0.0000
  0
LINE
  8
52
 10
24.5641
 20
4.5298
 30
0.0000
 11
24.6870
 21
4.4069
 31
0.0000
  0
LINE
  8
52
 10
24.6870
 20
4.4069
 30
0.0000
 11
24.9327
 21
4.4069
 31
0.0000
  0
LINE
  8
52
 10
24.9327
 20
4.4069
 30
0.0000
 11
25.0556
 21
4.5298
 31
0.0000
  0
LINE
  8
52
 10
25.0556
 20
4.5298
 30
0.0000
 11
24.5641
 21
5.0213
 31
0.0000
  0
LINE
  8
52
 10
24.3072
 20
4.5298
 30
0.0000
 11
24.3072
 21
5.0213
 31
0.0000
  0
LINE
  8
52
 10
24.3072
 20
5.0213
 30
0.0000
 11
24.1843
 21
5.1441
 31
0.0000
  0
LINE
  8
52
 10
24.1843
 20
5.1441
 30
0.0000
 11
23.9386
 21
5.1441
 31
0.0000
  0
LINE
  8
52
 10
23.9386
 20
5.1441
 30
0.0000
 11
23.8157
 21
5.0213
 31
0.0000
  0
LINE
  8
52
 10
23.8157
 20
5.0213
 30
0.0000
 11
23.8157
 21
4.5298
 31
0.0000
  0
LINE
  8
52
 10
23.8157
 20
4.5298
 30
0.0000
 11
23.9386
 21
4.4069
 31
0.0000
  0
LINE
  8
52
 10
23.9386
 20
4.4069
 30
0.0000
 11
24.1843
 21
4.4069
 31
0.0000
  0
LINE
  8
52
 10
24.1843
 20
4.4069
 30
0.0000
 11
24.3072
 21
4.5298
 31
0.0000
  0
LINE
  8
52
 10
24.3072
 20
4.5298
 30
0.0000
 11
23.8157
 21
5.0213
 31
0.0000
  0
LINE
  8
51
 10
18.0804
 20
5.5753
 30
0.0000
 11
18.0804
 21
5.8549
 31
0.0000
  0
LINE
  8
51
 10
18.0804
 20
5.8549
 30
0.0000
 11
18.1736
 21
5.7617
 31
0.0000
  0
LINE
  8
51
 10
18.1736
 20
5.7617
 30
0.0000
 11
18.2668
 21
5.8549
 31
0.0000
  0
LINE
  8
51
 10
18.2668
 20
5.8549
 30
0.0000
 11
18.2668
 21
5.5753
 31
0.0000
  0
LINE
  8
51
 10
18.5475
 20
5.8083
 30
0.0000
 11
18.5009
 21
5.8549
 31
0.0000
  0
LINE
  8
51
 10
18.5009
 20
5.8549
 30
0.0000
 11
18.4077
 21
5.8549
 31
0.0000
  0
LINE
  8
51
 10
18.4077
 20
5.8549
 30
0.0000
 11
18.3611
 21
5.8083
 31
0.0000
  0
LINE
  8
51
 10
18.3611
 20
5.8083
 30
0.0000
 11
18.3611
 21
5.6219
 31
0.0000
  0
LINE
  8
51
 10
18.3611
 20
5.6219
 30
0.0000
 11
18.4077
 21
5.5753
 31
0.0000
  0
LINE
  8
51
 10
18.4077
 20
5.5753
 30
0.0000
 11
18.5009
 21
5.5753
 31
0.0000
  0
LINE
  8
51
 10
18.5009
 20
5.5753
 30
0.0000
 11
18.5475
 21
5.6219
 31
0.0000
  0
LINE
  8
51
 10
18.6417
 20
5.5753
 30
0.0000
 11
18.6417
 21
5.8549
 31
0.0000
  0
LINE
  8
51
 10
18.6417
 20
5.8549
 30
0.0000
 11
18.7815
 21
5.8549
 31
0.0000
  0
LINE
  8
51
 10
18.7815
 20
5.8549
 30
0.0000
 11
18.8281
 21
5.8083
 31
0.0000
  0
LINE
  8
51
 10
18.8281
 20
5.8083
 30
0.0000
 11
18.8281
 21
5.7151
 31
0.0000
  0
LINE
  8
51
 10
18.8281
 20
5.7151
 30
0.0000
 11
18.7815
 21
5.6685
 31
0.0000
  0
LINE
  8
51
 10
18.7815
 20
5.6685
 30
0.0000
 11
18.6417
 21
5.6685
 31
0.0000
  0
LINE
  8
51
 10
19.1088
 20
5.5753
 30
0.0000
 11
18.9224
 21
5.5753
 31
0.0000
  0
LINE
  8
51
 10
18.9224
 20
5.5753
 30
0.0000
 11
19.1088
 21
5.7617
 31
0.0000
  0
LINE
  8
51
 10
19.1088
 20
5.7617
 30
0.0000
 11
19.1088
 21
5.8083
 31
0.0000
  0
LINE
  8
51
 10
19.1088
 20
5.8083
 30
0.0000
 11
19.0622
 21
5.8549
 31
0.0000
  0
LINE
  8
51
 10
19.0622
 20
5.8549
 30
0.0000
 11
18.9690
 21
5.8549
 31
0.0000
  0
LINE
  8
51
 10
18.9690
 20
5.8549
 30
0.0000
 11
18.9224
 21
5.8083
 31
0.0000
  0
LINE
  8
51
 10
19.3894
 20
5.8549
 30
0.0000
 11
19.2030
 21
5.8549
 31
0.0000
  0
LINE
  8
51
 10
19.2030
 20
5.8549
 30
0.0000
 11
19.2030
 21
5.7151
 31
0.0000
  0
LINE
  8
51
 10
19.2030
 20
5.7151
 30
0.0000
 11
19.2962
 21
5.7617
 31
0.0000
  0
LINE
  8
51
 10
19.2962
 20
5.7617
 30
0.0000
 11
19.3428
 21
5.7617
 31
0.0000
  0
LINE
  8
51
 10
19.3428
 20
5.7617
 30
0.0000
 11
19.3894
 21
5.7151
 31
0.0000
  0
LINE
  8
51
 10
19.3894
 20
5.7151
 30
0.0000
 11
19.3894
 21
5.6219
 31
0.0000
  0
LINE
  8
51
 10
19.3894
 20
5.6219
 30
0.0000
 11
19.3428
 21
5.5753
 31
0.0000
  0
LINE
  8
51
 10
19.3428
 20
5.5753
 30
0.0000
 11
19.2496
 21
5.5753
 31
0.0000
  0
LINE
  8
51
 10
19.2496
 20
5.5753
 30
0.0000
 11
19.2030
 21
5.6219
 31
0.0000
  0
LINE
  8
51
 10
19.4837
 20
5.7617
 30
0.0000
 11
19.5769
 21
5.8549
 31
0.0000
  0
LINE
  8
51
 10
19.5769
 20
5.8549
 30
0.0000
 11
19.5769
 21
5.5753
 31
0.0000
  0
LINE
  8
51
 10
19.4837
 20
5.5753
 30
0.0000
 11
19.6701
 21
5.5753
 31
0.0000
  0
LINE
  8
51
 10
19.9507
 20
5.8549
 30
0.0000
 11
19.7643
 21
5.8549
 31
0.0000
  0
LINE
  8
51
 10
19.7643
 20
5.8549
 30
0.0000
 11
19.7643
 21
5.7151
 31
0.0000
  0
LINE
  8
51
 10
19.7643
 20
5.7151
 30
0.0000
 11
19.8575
 21
5.7617
 31
0.0000
  0
LINE
  8
51
 10
19.8575
 20
5.7617
 30
0.0000
 11
19.9041
 21
5.7617
 31
0.0000
  0
LINE
  8
51
 10
19.9041
 20
5.7617
 30
0.0000
 11
19.9507
 21
5.7151
 31
0.0000
  0
LINE
  8
51
 10
19.9507
 20
5.7151
 30
0.0000
 11
19.9507
 21
5.6219
 31
0.0000
  0
LINE
  8
51
 10
19.9507
 20
5.6219
 30
0.0000
 11
19.9041
 21
5.5753
 31
0.0000
  0
LINE
  8
51
 10
19.9041
 20
5.5753
 30
0.0000
 11
19.8109
 21
5.5753
 31
0.0000
  0
LINE
  8
51
 10
19.8109
 20
5.5753
 30
0.0000
 11
19.7643
 21
5.6219
 31
0.0000
  0
LINE
  8
51
 10
5.2125
 20
11.7983
 30
0.0000
 11
5.0261
 21
11.7983
 31
0.0000
  0
LINE
  8
51
 10
5.0261
 20
11.7983
 30
0.0000
 11
5.2125
 21
11.9847
 31
0.0000
  0
LINE
  8
51
 10
5.2125
 20
11.9847
 30
0.0000
 11
5.2125
 21
12.0313
 31
0.0000
  0
LINE
  8
51
 10
5.2125
 20
12.0313
 30
0.0000
 11
5.1659
 21
12.0779
 31
0.0000
  0
LINE
  8
51
 10
5.1659
 20
12.0779
 30
0.0000
 11
5.0727
 21
12.0779
 31
0.0000
  0
LINE
  8
51
 10
5.0727
 20
12.0779
 30
0.0000
 11
5.0261
 21
12.0313
 31
0.0000
  0
LINE
  8
51
 10
5.4931
 20
11.7983
 30
0.0000
 11
5.3067
 21
11.7983
 31
0.0000
  0
LINE
  8
51
 10
5.3067
 20
11.7983
 30
0.0000
 11
5.4931
 21
11.9847
 31
0.0000
  0
LINE
  8
51
 10
5.4931
 20
11.9847
 30
0.0000
 11
5.4931
 21
12.0313
 31
0.0000
  0
LINE
  8
51
 10
5.4931
 20
12.0313
 30
0.0000
 11
5.4465
 21
12.0779
 31
0.0000
  0
LINE
  8
51
 10
5.4465
 20
12.0779
 30
0.0000
 11
5.3533
 21
12.0779
 31
0.0000
  0
LINE
  8
51
 10
5.3533
 20
12.0779
 30
0.0000
 11
5.3067
 21
12.0313
 31
0.0000
  0
LINE
  8
51
 10
5.8680
 20
11.7051
 30
0.0000
 11
5.8680
 21
11.9847
 31
0.0000
  0
LINE
  8
51
 10
5.8680
 20
11.9847
 30
0.0000
 11
6.0078
 21
11.9847
 31
0.0000
  0
LINE
  8
51
 10
6.0078
 20
11.9847
 30
0.0000
 11
6.0544
 21
11.9381
 31
0.0000
  0
LINE
  8
51
 10
6.0544
 20
11.9381
 30
0.0000
 11
6.0544
 21
11.8449
 31
0.0000
  0
LINE
  8
51
 10
6.0544
 20
11.8449
 30
0.0000
 11
6.0078
 21
11.7983
 31
0.0000
  0
LINE
  8
51
 10
6.0078
 20
11.7983
 30
0.0000
 11
5.8680
 21
11.7983
 31
0.0000
  0
LINE
  8
51
 10
6.1487
 20
11.7983
 30
0.0000
 11
6.1487
 21
12.0779
 31
0.0000
  0
LINE
  8
51
 10
6.1487
 20
12.0779
 30
0.0000
 11
6.3351
 21
12.0779
 31
0.0000
  0
LINE
  8
51
 10
6.1487
 20
11.9381
 30
0.0000
 11
6.2419
 21
11.9381
 31
0.0000
  0
LINE
  8
51
 10
5.2125
 20
17.5133
 30
0.0000
 11
5.0261
 21
17.5133
 31
0.0000
  0
LINE
  8
51
 10
5.0261
 20
17.5133
 30
0.0000
 11
5.2125
 21
17.6997
 31
0.0000
  0
LINE
  8
51
 10
5.2125
 20
17.6997
 30
0.0000
 11
5.2125
 21
17.7463
 31
0.0000
  0
LINE
  8
51
 10
5.2125
 20
17.7463
 30
0.0000
 11
5.1659
 21
17.7929
 31
0.0000
  0
LINE
  8
51
 10
5.1659
 20
17.7929
 30
0.0000
 11
5.0727
 21
17.7929
 31
0.0000
  0
LINE
  8
51
 10
5.0727
 20
17.7929
 30
0.0000
 11
5.0261
 21
17.7463
 31
0.0000
  0
LINE
  8
51
 10
5.4931
 20
17.5133
 30
0.0000
 11
5.3067
 21
17.5133
 31
0.0000
  0
LINE
  8
51
 10
5.3067
 20
17.5133
 30
0.0000
 11
5.4931
 21
17.6997
 31
0.0000
  0
LINE
  8
51
 10
5.4931
 20
17.6997
 30
0.0000
 11
5.4931
 21
17.7463
 31
0.0000
  0
LINE
  8
51
 10
5.4931
 20
17.7463
 30
0.0000
 11
5.4465
 21
17.7929
 31
0.0000
  0
LINE
  8
51
 10
5.4465
 20
17.7929
 30
0.0000
 11
5.3533
 21
17.7929
 31
0.0000
  0
LINE
  8
51
 10
5.3533
 20
17.7929
 30
0.0000
 11
5.3067
 21
17.7463
 31
0.0000
  0
LINE
  8
51
 10
5.8680
 20
17.4201
 30
0.0000
 11
5.8680
 21
17.6997
 31
0.0000
  0
LINE
  8
51
 10
5.8680
 20
17.6997
 30
0.0000
 11
6.0078
 21
17.6997
 31
0.0000
  0
LINE
  8
51
 10
6.0078
 20
17.6997
 30
0.0000
 11
6.0544
 21
17.6531
 31
0.0000
  0
LINE
  8
51
 10
6.0544
 20
17.6531
 30
0.0000
 11
6.0544
 21
17.5599
 31
0.0000
  0
LINE
  8
51
 10
6.0544
 20
17.5599
 30
0.0000
 11
6.0078
 21
17.5133
 31
0.0000
  0
LINE
  8
51
 10
6.0078
 20
17.5133
 30
0.0000
 11
5.8680
 21
17.5133
 31
0.0000
  0
LINE
  8
51
 10
6.1487
 20
17.5133
 30
0.0000
 11
6.1487
 21
17.7929
 31
0.0000
  0
LINE
  8
51
 10
6.1487
 20
17.7929
 30
0.0000
 11
6.3351
 21
17.7929
 31
0.0000
  0
LINE
  8
51
 10
6.1487
 20
17.6531
 30
0.0000
 11
6.2419
 21
17.6531
 31
0.0000
  0
LINE
  8
51
 10
9.3307
 20
17.8267
 30
0.0000
 11
9.4239
 21
17.9199
 31
0.0000
  0
LINE
  8
51
 10
9.4239
 20
17.9199
 30
0.0000
 11
9.4239
 21
17.6403
 31
0.0000
  0
LINE
  8
51
 10
9.3307
 20
17.6403
 30
0.0000
 11
9.5172
 21
17.6403
 31
0.0000
  0
LINE
  8
51
 10
9.7978
 20
17.9199
 30
0.0000
 11
9.7046
 21
17.8733
 31
0.0000
  0
LINE
  8
51
 10
9.7046
 20
17.8733
 30
0.0000
 11
9.6114
 21
17.7801
 31
0.0000
  0
LINE
  8
51
 10
9.6114
 20
17.7801
 30
0.0000
 11
9.6114
 21
17.6869
 31
0.0000
  0
LINE
  8
51
 10
9.6114
 20
17.6869
 30
0.0000
 11
9.6580
 21
17.6403
 31
0.0000
  0
LINE
  8
51
 10
9.6580
 20
17.6403
 30
0.0000
 11
9.7512
 21
17.6403
 31
0.0000
  0
LINE
  8
51
 10
9.7512
 20
17.6403
 30
0.0000
 11
9.7978
 21
17.6869
 31
0.0000
  0
LINE
  8
51
 10
9.7978
 20
17.6869
 30
0.0000
 11
9.7978
 21
17.7335
 31
0.0000
  0
LINE
  8
51
 10
9.7978
 20
17.7335
 30
0.0000
 11
9.7512
 21
17.7801
 31
0.0000
  0
LINE
  8
51
 10
9.7512
 20
17.7801
 30
0.0000
 11
9.6114
 21
17.7801
 31
0.0000
  0
LINE
  8
51
 10
10.1727
 20
17.6403
 30
0.0000
 11
10.1727
 21
17.9199
 31
0.0000
  0
LINE
  8
51
 10
10.1727
 20
17.9199
 30
0.0000
 11
10.2659
 21
17.8267
 31
0.0000
  0
LINE
  8
51
 10
10.2659
 20
17.8267
 30
0.0000
 11
10.3591
 21
17.9199
 31
0.0000
  0
LINE
  8
51
 10
10.3591
 20
17.9199
 30
0.0000
 11
10.3591
 21
17.6403
 31
0.0000
  0
LINE
  8
51
 10
10.4533
 20
17.6403
 30
0.0000
 11
10.4533
 21
17.9199
 31
0.0000
  0
LINE
  8
51
 10
10.4533
 20
17.7801
 30
0.0000
 11
10.6398
 21
17.7801
 31
0.0000
  0
LINE
  8
51
 10
10.6398
 20
17.9199
 30
0.0000
 11
10.6398
 21
17.6403
 31
0.0000
  0
LINE
  8
51
 10
10.7340
 20
17.8267
 30
0.0000
 11
10.9204
 21
17.8267
 31
0.0000
  0
LINE
  8
51
 10
10.9204
 20
17.8267
 30
0.0000
 11
10.7340
 21
17.6403
 31
0.0000
  0
LINE
  8
51
 10
10.7340
 20
17.6403
 30
0.0000
 11
10.9204
 21
17.6403
 31
0.0000
  0
LINE
  8
51
 10
16.8104
 20
17.0053
 30
0.0000
 11
16.8104
 21
17.2849
 31
0.0000
  0
LINE
  8
51
 10
16.8104
 20
17.2849
 30
0.0000
 11
16.9036
 21
17.1917
 31
0.0000
  0
LINE
  8
51
 10
16.9036
 20
17.1917
 30
0.0000
 11
16.9968
 21
17.2849
 31
0.0000
  0
LINE
  8
51
 10
16.9968
 20
17.2849
 30
0.0000
 11
16.9968
 21
17.0053
 31
0.0000
  0
LINE
  8
51
 10
17.2775
 20
17.2383
 30
0.0000
 11
17.2309
 21
17.2849
 31
0.0000
  0
LINE
  8
51
 10
17.2309
 20
17.2849
 30
0.0000
 11
17.1377
 21
17.2849
 31
0.0000
  0
LINE
  8
51
 10
17.1377
 20
17.2849
 30
0.0000
 11
17.0911
 21
17.2383
 31
0.0000
  0
LINE
  8
51
 10
17.0911
 20
17.2383
 30
0.0000
 11
17.0911
 21
17.0519
 31
0.0000
  0
LINE
  8
51
 10
17.0911
 20
17.0519
 30
0.0000
 11
17.1377
 21
17.0053
 31
0.0000
  0
LINE
  8
51
 10
17.1377
 20
17.0053
 30
0.0000
 11
17.2309
 21
17.0053
 31
0.0000
  0
LINE
  8
51
 10
17.2309
 20
17.0053
 30
0.0000
 11
17.2775
 21
17.0519
 31
0.0000
  0
LINE
  8
51
 10
17.3717
 20
17.0053
 30
0.0000
 11
17.3717
 21
17.2849
 31
0.0000
  0
LINE
  8
51
 10
17.3717
 20
17.2849
 30
0.0000
 11
17.5115
 21
17.2849
 31
0.0000
  0
LINE
  8
51
 10
17.5115
 20
17.2849
 30
0.0000
 11
17.5581
 21
17.2383
 31
0.0000
  0
LINE
  8
51
 10
17.5581
 20
17.2383
 30
0.0000
 11
17.5581
 21
17.1451
 31
0.0000
  0
LINE
  8
51
 10
17.5581
 20
17.1451
 30
0.0000
 11
17.5115
 21
17.0985
 31
0.0000
  0
LINE
  8
51
 10
17.5115
 20
17.0985
 30
0.0000
 11
17.3717
 21
17.0985
 31
0.0000
  0
LINE
  8
51
 10
17.8388
 20
17.0053
 30
0.0000
 11
17.6524
 21
17.0053
 31
0.0000
  0
LINE
  8
51
 10
17.6524
 20
17.0053
 30
0.0000
 11
17.8388
 21
17.1917
 31
0.0000
  0
LINE
  8
51
 10
17.8388
 20
17.1917
 30
0.0000
 11
17.8388
 21
17.2383
 31
0.0000
  0
LINE
  8
51
 10
17.8388
 20
17.2383
 30
0.0000
 11
17.7922
 21
17.2849
 31
0.0000
  0
LINE
  8
51
 10
17.7922
 20
17.2849
 30
0.0000
 11
17.6990
 21
17.2849
 31
0.0000
  0
LINE
  8
51
 10
17.6990
 20
17.2849
 30
0.0000
 11
17.6524
 21
17.2383
 31
0.0000
  0
LINE
  8
51
 10
18.1194
 20
17.2849
 30
0.0000
 11
17.9330
 21
17.2849
 31
0.0000
  0
LINE
  8
51
 10
17.9330
 20
17.2849
 30
0.0000
 11
17.9330
 21
17.1451
 31
0.0000
  0
LINE
  8
51
 10
17.9330
 20
17.1451
 30
0.0000
 11
18.0262
 21
17.1917
 31
0.0000
  0
LINE
  8
51
 10
18.0262
 20
17.1917
 30
0.0000
 11
18.0728
 21
17.1917
 31
0.0000
  0
LINE
  8
51
 10
18.0728
 20
17.1917
 30
0.0000
 11
18.1194
 21
17.1451
 31
0.0000
  0
LINE
  8
51
 10
18.1194
 20
17.1451
 30
0.0000
 11
18.1194
 21
17.0519
 31
0.0000
  0
LINE
  8
51
 10
18.1194
 20
17.0519
 30
0.0000
 11
18.0728
 21
17.0053
 31
0.0000
  0
LINE
  8
51
 10
18.0728
 20
17.0053
 30
0.0000
 11
17.9796
 21
17.0053
 31
0.0000
  0
LINE
  8
51
 10
17.9796
 20
17.0053
 30
0.0000
 11
17.9330
 21
17.0519
 31
0.0000
  0
LINE
  8
51
 10
18.4001
 20
17.2849
 30
0.0000
 11
18.2137
 21
17.2849
 31
0.0000
  0
LINE
  8
51
 10
18.2137
 20
17.2849
 30
0.0000
 11
18.2137
 21
17.1451
 31
0.0000
  0
LINE
  8
51
 10
18.2137
 20
17.1451
 30
0.0000
 11
18.3069
 21
17.1917
 31
0.0000
  0
LINE
  8
51
 10
18.3069
 20
17.1917
 30
0.0000
 11
18.3535
 21
17.1917
 31
0.0000
  0
LINE
  8
51
 10
18.3535
 20
17.1917
 30
0.0000
 11
18.4001
 21
17.1451
 31
0.0000
  0
LINE
  8
51
 10
18.4001
 20
17.1451
 30
0.0000
 11
18.4001
 21
17.0519
 31
0.0000
  0
LINE
  8
51
 10
18.4001
 20
17.0519
 30
0.0000
 11
18.3535
 21
17.0053
 31
0.0000
  0
LINE
  8
51
 10
18.3535
 20
17.0053
 30
0.0000
 11
18.2603
 21
17.0053
 31
0.0000
  0
LINE
  8
51
 10
18.2603
 20
17.0053
 30
0.0000
 11
18.2137
 21
17.0519
 31
0.0000
  0
LINE
  8
51
 10
18.4943
 20
17.1917
 30
0.0000
 11
18.5875
 21
17.2849
 31
0.0000
  0
LINE
  8
51
 10
18.5875
 20
17.2849
 30
0.0000
 11
18.5875
 21
17.0053
 31
0.0000
  0
LINE
  8
51
 10
18.4943
 20
17.0053
 30
0.0000
 11
18.6807
 21
17.0053
 31
0.0000
  0
LINE
  8
51
 10
25.2601
 20
12.6922
 30
0.0000
 11
25.2601
 21
12.5057
 31
0.0000
  0
LINE
  8
51
 10
25.2601
 20
12.5057
 30
0.0000
 11
25.3999
 21
12.5057
 31
0.0000
  0
LINE
  8
51
 10
25.3999
 20
12.5057
 30
0.0000
 11
25.3533
 21
12.5989
 31
0.0000
  0
LINE
  8
51
 10
25.3533
 20
12.5989
 30
0.0000
 11
25.3533
 21
12.6456
 31
0.0000
  0
LINE
  8
51
 10
25.3533
 20
12.6456
 30
0.0000
 11
25.3999
 21
12.6922
 31
0.0000
  0
LINE
  8
51
 10
25.3999
 20
12.6922
 30
0.0000
 11
25.4931
 21
12.6922
 31
0.0000
  0
LINE
  8
51
 10
25.4931
 20
12.6922
 30
0.0000
 11
25.5397
 21
12.6456
 31
0.0000
  0
LINE
  8
51
 10
25.5397
 20
12.6456
 30
0.0000
 11
25.5397
 21
12.5523
 31
0.0000
  0
LINE
  8
51
 10
25.5397
 20
12.5523
 30
0.0000
 11
25.4931
 21
12.5057
 31
0.0000
  0
LINE
  8
51
 10
25.2601
 20
12.9728
 30
0.0000
 11
25.3067
 21
12.8796
 31
0.0000
  0
LINE
  8
51
 10
25.3067
 20
12.8796
 30
0.0000
 11
25.3999
 21
12.7864
 31
0.0000
  0
LINE
  8
51
 10
25.3999
 20
12.7864
 30
0.0000
 11
25.4931
 21
12.7864
 31
0.0000
  0
LINE
  8
51
 10
25.4931
 20
12.7864
 30
0.0000
 11
25.5397
 21
12.8330
 31
0.0000
  0
LINE
  8
51
 10
25.5397
 20
12.8330
 30
0.0000
 11
25.5397
 21
12.9262
 31
0.0000
  0
LINE
  8
51
 10
25.5397
 20
12.9262
 30
0.0000
 11
25.4931
 21
12.9728
 31
0.0000
  0
LINE
  8
51
 10
25.4931
 20
12.9728
 30
0.0000
 11
25.4465
 21
12.9728
 31
0.0000
  0
LINE
  8
51
 10
25.4465
 20
12.9728
 30
0.0000
 11
25.3999
 21
12.9262
 31
0.0000
  0
LINE
  8
51
 10
25.3999
 20
12.9262
 30
0.0000
 11
25.3999
 21
12.7864
 31
0.0000
  0
LINE
  8
51
 10
25.4931
 20
13.0670
 30
0.0000
 11
25.3067
 21
13.0670
 31
0.0000
  0
LINE
  8
51
 10
25.3067
 20
13.0670
 30
0.0000
 11
25.2601
 21
13.1136
 31
0.0000
  0
LINE
  8
51
 10
25.2601
 20
13.1136
 30
0.0000
 11
25.2601
 21
13.2069
 31
0.0000
  0
LINE
  8
51
 10
25.2601
 20
13.2069
 30
0.0000
 11
25.3067
 21
13.2535
 31
0.0000
  0
LINE
  8
51
 10
25.3067
 20
13.2535
 30
0.0000
 11
25.4931
 21
13.2535
 31
0.0000
  0
LINE
  8
51
 10
25.4931
 20
13.2535
 30
0.0000
 11
25.5397
 21
13.2069
 31
0.0000
  0
LINE
  8
51
 10
25.5397
 20
13.2069
 30
0.0000
 11
25.5397
 21
13.1136
 31
0.0000
  0
LINE
  8
51
 10
25.5397
 20
13.1136
 30
0.0000
 11
25.4931
 21
13.0670
 31
0.0000
  0
LINE
  8
51
 10
25.4931
 20
13.0670
 30
0.0000
 11
25.3067
 21
13.2535
 31
0.0000
  0
LINE
  8
51
 10
25.6329
 20
13.6283
 30
0.0000
 11
25.3533
 21
13.6283
 31
0.0000
  0
LINE
  8
51
 10
25.3533
 20
13.6283
 30
0.0000
 11
25.3533
 21
13.7682
 31
0.0000
  0
LINE
  8
51
 10
25.3533
 20
13.7682
 30
0.0000
 11
25.3999
 21
13.8148
 31
0.0000
  0
LINE
  8
51
 10
25.3999
 20
13.8148
 30
0.0000
 11
25.4931
 21
13.8148
 31
0.0000
  0
LINE
  8
51
 10
25.4931
 20
13.8148
 30
0.0000
 11
25.5397
 21
13.7682
 31
0.0000
  0
LINE
  8
51
 10
25.5397
 20
13.7682
 30
0.0000
 11
25.5397
 21
13.6283
 31
0.0000
  0
LINE
  8
51
 10
25.5397
 20
13.9090
 30
0.0000
 11
25.2601
 21
13.9090
 31
0.0000
  0
LINE
  8
51
 10
25.2601
 20
13.9090
 30
0.0000
 11
25.2601
 21
14.0954
 31
0.0000
  0
LINE
  8
51
 10
25.3999
 20
13.9090
 30
0.0000
 11
25.3999
 21
14.0022
 31
0.0000
  0
LINE
  8
51
 10
29.0303
 20
14.8803
 30
0.0000
 11
29.1235
 21
14.9735
 31
0.0000
  0
LINE
  8
51
 10
29.1235
 20
14.9735
 30
0.0000
 11
29.1235
 21
14.6939
 31
0.0000
  0
LINE
  8
51
 10
29.0303
 20
14.6939
 30
0.0000
 11
29.2167
 21
14.6939
 31
0.0000
  0
LINE
  8
51
 10
29.3110
 20
14.7405
 30
0.0000
 11
29.3110
 21
14.9269
 31
0.0000
  0
LINE
  8
51
 10
29.3110
 20
14.9269
 30
0.0000
 11
29.3576
 21
14.9735
 31
0.0000
  0
LINE
  8
51
 10
29.3576
 20
14.9735
 30
0.0000
 11
29.4508
 21
14.9735
 31
0.0000
  0
LINE
  8
51
 10
29.4508
 20
14.9735
 30
0.0000
 11
29.4974
 21
14.9269
 31
0.0000
  0
LINE
  8
51
 10
29.4974
 20
14.9269
 30
0.0000
 11
29.4974
 21
14.7405
 31
0.0000
  0
LINE
  8
51
 10
29.4974
 20
14.7405
 30
0.0000
 11
29.4508
 21
14.6939
 31
0.0000
  0
LINE
  8
51
 10
29.4508
 20
14.6939
 30
0.0000
 11
29.3576
 21
14.6939
 31
0.0000
  0
LINE
  8
51
 10
29.3576
 20
14.6939
 30
0.0000
 11
29.3110
 21
14.7405
 31
0.0000
  0
LINE
  8
51
 10
29.3110
 20
14.7405
 30
0.0000
 11
29.4974
 21
14.9269
 31
0.0000
  0
LINE
  8
51
 10
29.5916
 20
14.7405
 30
0.0000
 11
29.5916
 21
14.9269
 31
0.0000
  0
LINE
  8
51
 10
29.5916
 20
14.9269
 30
0.0000
 11
29.6382
 21
14.9735
 31
0.0000
  0
LINE
  8
51
 10
29.6382
 20
14.9735
 30
0.0000
 11
29.7314
 21
14.9735
 31
0.0000
  0
LINE
  8
51
 10
29.7314
 20
14.9735
 30
0.0000
 11
29.7780
 21
14.9269
 31
0.0000
  0
LINE
  8
51
 10
29.7780
 20
14.9269
 30
0.0000
 11
29.7780
 21
14.7405
 31
0.0000
  0
LINE
  8
51
 10
29.7780
 20
14.7405
 30
0.0000
 11
29.7314
 21
14.6939
 31
0.0000
  0
LINE
  8
51
 10
29.7314
 20
14.6939
 30
0.0000
 11
29.6382
 21
14.6939
 31
0.0000
  0
LINE
  8
51
 10
29.6382
 20
14.6939
 30
0.0000
 11
29.5916
 21
14.7405
 31
0.0000
  0
LINE
  8
51
 10
29.5916
 20
14.7405
 30
0.0000
 11
29.7780
 21
14.9269
 31
0.0000
  0
LINE
  8
51
 10
29.1701
 20
14.5163
 30
0.0000
 11
29.0769
 21
14.5163
 31
0.0000
  0
LINE
  8
51
 10
29.0769
 20
14.5163
 30
0.0000
 11
29.0303
 21
14.4697
 31
0.0000
  0
LINE
  8
51
 10
29.0303
 20
14.4697
 30
0.0000
 11
29.0303
 21
14.2833
 31
0.0000
  0
LINE
  8
51
 10
29.0303
 20
14.2833
 30
0.0000
 11
29.0769
 21
14.2367
 31
0.0000
  0
LINE
  8
51
 10
29.0769
 20
14.2367
 30
0.0000
 11
29.1701
 21
14.2367
 31
0.0000
  0
LINE
  8
51
 10
29.1701
 20
14.2367
 30
0.0000
 11
29.2167
 21
14.2833
 31
0.0000
  0
LINE
  8
51
 10
29.2167
 20
14.2833
 30
0.0000
 11
29.2167
 21
14.4697
 31
0.0000
  0
LINE
  8
51
 10
29.2167
 20
14.4697
 30
0.0000
 11
29.1701
 21
14.5163
 31
0.0000
  0
LINE
  8
51
 10
29.3110
 20
14.5163
 30
0.0000
 11
29.3110
 21
14.2367
 31
0.0000
  0
LINE
  8
51
 10
29.3110
 20
14.3765
 30
0.0000
 11
29.3576
 21
14.4231
 31
0.0000
  0
LINE
  8
51
 10
29.3576
 20
14.4231
 30
0.0000
 11
29.4508
 21
14.4231
 31
0.0000
  0
LINE
  8
51
 10
29.4508
 20
14.4231
 30
0.0000
 11
29.4974
 21
14.3765
 31
0.0000
  0
LINE
  8
51
 10
29.4974
 20
14.3765
 30
0.0000
 11
29.4974
 21
14.2367
 31
0.0000
  0
LINE
  8
51
 10
29.5916
 20
14.2367
 30
0.0000
 11
29.5916
 21
14.4231
 31
0.0000
  0
LINE
  8
51
 10
29.5916
 20
14.4231
 30
0.0000
 11
29.6382
 21
14.4231
 31
0.0000
  0
LINE
  8
51
 10
29.6382
 20
14.4231
 30
0.0000
 11
29.6848
 21
14.3765
 31
0.0000
  0
LINE
  8
51
 10
29.6848
 20
14.3765
 30
0.0000
 11
29.6848
 21
14.2367
 31
0.0000
  0
LINE
  8
51
 10
29.6848
 20
14.3765
 30
0.0000
 11
29.7314
 21
14.4231
 31
0.0000
  0
LINE
  8
51
 10
29.7314
 20
14.4231
 30
0.0000
 11
29.7780
 21
14.3765
 31
0.0000
  0
LINE
  8
51
 10
29.7780
 20
14.3765
 30
0.0000
 11
29.7780
 21
14.2367
 31
0.0000
  0
LINE
  8
51
 10
29.0303
 20
19.9603
 30
0.0000
 11
29.1235
 21
20.0535
 31
0.0000
  0
LINE
  8
51
 10
29.1235
 20
20.0535
 30
0.0000
 11
29.1235
 21
19.7739
 31
0.0000
  0
LINE
  8
51
 10
29.0303
 20
19.7739
 30
0.0000
 11
29.2167
 21
19.7739
 31
0.0000
  0
LINE
  8
51
 10
29.3110
 20
19.8205
 30
0.0000
 11
29.3110
 21
20.0069
 31
0.0000
  0
LINE
  8
51
 10
29.3110
 20
20.0069
 30
0.0000
 11
29.3576
 21
20.0535
 31
0.0000
  0
LINE
  8
51
 10
29.3576
 20
20.0535
 30
0.0000
 11
29.4508
 21
20.0535
 31
0.0000
  0
LINE
  8
51
 10
29.4508
 20
20.0535
 30
0.0000
 11
29.4974
 21
20.0069
 31
0.0000
  0
LINE
  8
51
 10
29.4974
 20
20.0069
 30
0.0000
 11
29.4974
 21
19.8205
 31
0.0000
  0
LINE
  8
51
 10
29.4974
 20
19.8205
 30
0.0000
 11
29.4508
 21
19.7739
 31
0.0000
  0
LINE
  8
51
 10
29.4508
 20
19.7739
 30
0.0000
 11
29.3576
 21
19.7739
 31
0.0000
  0
LINE
  8
51
 10
29.3576
 20
19.7739
 30
0.0000
 11
29.3110
 21
19.8205
 31
0.0000
  0
LINE
  8
51
 10
29.3110
 20
19.8205
 30
0.0000
 11
29.4974
 21
20.0069
 31
0.0000
  0
LINE
  8
51
 10
29.5916
 20
19.8205
 30
0.0000
 11
29.5916
 21
20.0069
 31
0.0000
  0
LINE
  8
51
 10
29.5916
 20
20.0069
 30
0.0000
 11
29.6382
 21
20.0535
 31
0.0000
  0
LINE
  8
51
 10
29.6382
 20
20.0535
 30
0.0000
 11
29.7314
 21
20.0535
 31
0.0000
  0
LINE
  8
51
 10
29.7314
 20
20.0535
 30
0.0000
 11
29.7780
 21
20.0069
 31
0.0000
  0
LINE
  8
51
 10
29.7780
 20
20.0069
 30
0.0000
 11
29.7780
 21
19.8205
 31
0.0000
  0
LINE
  8
51
 10
29.7780
 20
19.8205
 30
0.0000
 11
29.7314
 21
19.7739
 31
0.0000
  0
LINE
  8
51
 10
29.7314
 20
19.7739
 30
0.0000
 11
29.6382
 21
19.7739
 31
0.0000
  0
LINE
  8
51
 10
29.6382
 20
19.7739
 30
0.0000
 11
29.5916
 21
19.8205
 31
0.0000
  0
LINE
  8
51
 10
29.5916
 20
19.8205
 30
0.0000
 11
29.7780
 21
20.0069
 31
0.0000
  0
LINE
  8
51
 10
29.1701
 20
19.5963
 30
0.0000
 11
29.0769
 21
19.5963
 31
0.0000
  0
LINE
  8
51
 10
29.0769
 20
19.5963
 30
0.0000
 11
29.0303
 21
19.5497
 31
0.0000
  0
LINE
  8
51
 10
29.0303
 20
19.5497
 30
0.0000
 11
29.0303
 21
19.3633
 31
0.0000
  0
LINE
  8
51
 10
29.0303
 20
19.3633
 30
0.0000
 11
29.0769
 21
19.3167
 31
0.0000
  0
LINE
  8
51
 10
29.0769
 20
19.3167
 30
0.0000
 11
29.1701
 21
19.3167
 31
0.0000
  0
LINE
  8
51
 10
29.1701
 20
19.3167
 30
0.0000
 11
29.2167
 21
19.3633
 31
0.0000
  0
LINE
  8
51
 10
29.2167
 20
19.3633
 30
0.0000
 11
29.2167
 21
19.5497
 31
0.0000
  0
LINE
  8
51
 10
29.2167
 20
19.5497
 30
0.0000
 11
29.1701
 21
19.5963
 31
0.0000
  0
LINE
  8
51
 10
29.3110
 20
19.5963
 30
0.0000
 11
29.3110
 21
19.3167
 31
0.0000
  0
LINE
  8
51
 10
29.3110
 20
19.4565
 30
0.0000
 11
29.3576
 21
19.5031
 31
0.0000
  0
LINE
  8
51
 10
29.3576
 20
19.5031
 30
0.0000
 11
29.4508
 21
19.5031
 31
0.0000
  0
LINE
  8
51
 10
29.4508
 20
19.5031
 30
0.0000
 11
29.4974
 21
19.4565
 31
0.0000
  0
LINE
  8
51
 10
29.4974
 20
19.4565
 30
0.0000
 11
29.4974
 21
19.3167
 31
0.0000
  0
LINE
  8
51
 10
29.5916
 20
19.3167
 30
0.0000
 11
29.5916
 21
19.5031
 31
0.0000
  0
LINE
  8
51
 10
29.5916
 20
19.5031
 30
0.0000
 11
29.6382
 21
19.5031
 31
0.0000
  0
LINE
  8
51
 10
29.6382
 20
19.5031
 30
0.0000
 11
29.6848
 21
19.4565
 31
0.0000
  0
LINE
  8
51
 10
29.6848
 20
19.4565
 30
0.0000
 11
29.6848
 21
19.3167
 31
0.0000
  0
LINE
  8
51
 10
29.6848
 20
19.4565
 30
0.0000
 11
29.7314
 21
19.5031
 31
0.0000
  0
LINE
  8
51
 10
29.7314
 20
19.5031
 30
0.0000
 11
29.7780
 21
19.4565
 31
0.0000
  0
LINE
  8
51
 10
29.7780
 20
19.4565
 30
0.0000
 11
29.7780
 21
19.3167
 31
0.0000
  0
LINE
  8
51
 10
25.3185
 20
17.5135
 30
0.0000
 11
25.2253
 21
17.4669
 31
0.0000
  0
LINE
  8
51
 10
25.2253
 20
17.4669
 30
0.0000
 11
25.1320
 21
17.3737
 31
0.0000
  0
LINE
  8
51
 10
25.1320
 20
17.3737
 30
0.0000
 11
25.1320
 21
17.2805
 31
0.0000
  0
LINE
  8
51
 10
25.1320
 20
17.2805
 30
0.0000
 11
25.1787
 21
17.2339
 31
0.0000
  0
LINE
  8
51
 10
25.1787
 20
17.2339
 30
0.0000
 11
25.2719
 21
17.2339
 31
0.0000
  0
LINE
  8
51
 10
25.2719
 20
17.2339
 30
0.0000
 11
25.3185
 21
17.2805
 31
0.0000
  0
LINE
  8
51
 10
25.3185
 20
17.2805
 30
0.0000
 11
25.3185
 21
17.3271
 31
0.0000
  0
LINE
  8
51
 10
25.3185
 20
17.3271
 30
0.0000
 11
25.2719
 21
17.3737
 31
0.0000
  0
LINE
  8
51
 10
25.2719
 20
17.3737
 30
0.0000
 11
25.1320
 21
17.3737
 31
0.0000
  0
LINE
  8
51
 10
25.4127
 20
17.2805
 30
0.0000
 11
25.4127
 21
17.4669
 31
0.0000
  0
LINE
  8
51
 10
25.4127
 20
17.4669
 30
0.0000
 11
25.4593
 21
17.5135
 31
0.0000
  0
LINE
  8
51
 10
25.4593
 20
17.5135
 30
0.0000
 11
25.5525
 21
17.5135
 31
0.0000
  0
LINE
  8
51
 10
25.5525
 20
17.5135
 30
0.0000
 11
25.5991
 21
17.4669
 31
0.0000
  0
LINE
  8
51
 10
25.5991
 20
17.4669
 30
0.0000
 11
25.5991
 21
17.2805
 31
0.0000
  0
LINE
  8
51
 10
25.5991
 20
17.2805
 30
0.0000
 11
25.5525
 21
17.2339
 31
0.0000
  0
LINE
  8
51
 10
25.5525
 20
17.2339
 30
0.0000
 11
25.4593
 21
17.2339
 31
0.0000
  0
LINE
  8
51
 10
25.4593
 20
17.2339
 30
0.0000
 11
25.4127
 21
17.2805
 31
0.0000
  0
LINE
  8
51
 10
25.4127
 20
17.2805
 30
0.0000
 11
25.5991
 21
17.4669
 31
0.0000
  0
LINE
  8
51
 10
25.1315
 20
17.0563
 30
0.0000
 11
25.0383
 21
17.0563
 31
0.0000
  0
LINE
  8
51
 10
25.0383
 20
17.0563
 30
0.0000
 11
24.9917
 21
17.0097
 31
0.0000
  0
LINE
  8
51
 10
24.9917
 20
17.0097
 30
0.0000
 11
24.9917
 21
16.8233
 31
0.0000
  0
LINE
  8
51
 10
24.9917
 20
16.8233
 30
0.0000
 11
25.0383
 21
16.7767
 31
0.0000
  0
LINE
  8
51
 10
25.0383
 20
16.7767
 30
0.0000
 11
25.1315
 21
16.7767
 31
0.0000
  0
LINE
  8
51
 10
25.1315
 20
16.7767
 30
0.0000
 11
25.1781
 21
16.8233
 31
0.0000
  0
LINE
  8
51
 10
25.1781
 20
16.8233
 30
0.0000
 11
25.1781
 21
17.0097
 31
0.0000
  0
LINE
  8
51
 10
25.1781
 20
17.0097
 30
0.0000
 11
25.1315
 21
17.0563
 31
0.0000
  0
LINE
  8
51
 10
25.2724
 20
17.0563
 30
0.0000
 11
25.2724
 21
16.7767
 31
0.0000
  0
LINE
  8
51
 10
25.2724
 20
16.9165
 30
0.0000
 11
25.3190
 21
16.9631
 31
0.0000
  0
LINE
  8
51
 10
25.3190
 20
16.9631
 30
0.0000
 11
25.4122
 21
16.9631
 31
0.0000
  0
LINE
  8
51
 10
25.4122
 20
16.9631
 30
0.0000
 11
25.4588
 21
16.9165
 31
0.0000
  0
LINE
  8
51
 10
25.4588
 20
16.9165
 30
0.0000
 11
25.4588
 21
16.7767
 31
0.0000
  0
LINE
  8
51
 10
25.5530
 20
16.7767
 30
0.0000
 11
25.5530
 21
16.9631
 31
0.0000
  0
LINE
  8
51
 10
25.5530
 20
16.9631
 30
0.0000
 11
25.5996
 21
16.9631
 31
0.0000
  0
LINE
  8
51
 10
25.5996
 20
16.9631
 30
0.0000
 11
25.6462
 21
16.9165
 31
0.0000
  0
LINE
  8
51
 10
25.6462
 20
16.9165
 30
0.0000
 11
25.6462
 21
16.7767
 31
0.0000
  0
LINE
  8
51
 10
25.6462
 20
16.9165
 30
0.0000
 11
25.6928
 21
16.9631
 31
0.0000
  0
LINE
  8
51
 10
25.6928
 20
16.9631
 30
0.0000
 11
25.7394
 21
16.9165
 31
0.0000
  0
LINE
  8
51
 10
25.7394
 20
16.9165
 30
0.0000
 11
25.7394
 21
16.7767
 31
0.0000
  0
LINE
  8
51
 10
17.8731
 20
22.7359
 30
0.0000
 11
17.6867
 21
22.7359
 31
0.0000
  0
LINE
  8
51
 10
17.6867
 20
22.7359
 30
0.0000
 11
17.6401
 21
22.7825
 31
0.0000
  0
LINE
  8
51
 10
17.6401
 20
22.7825
 30
0.0000
 11
17.6401
 21
22.8757
 31
0.0000
  0
LINE
  8
51
 10
17.6401
 20
22.8757
 30
0.0000
 11
17.6867
 21
22.9223
 31
0.0000
  0
LINE
  8
51
 10
17.6867
 20
22.9223
 30
0.0000
 11
17.8731
 21
22.9223
 31
0.0000
  0
LINE
  8
51
 10
17.8731
 20
22.9223
 30
0.0000
 11
17.9197
 21
22.8757
 31
0.0000
  0
LINE
  8
51
 10
17.9197
 20
22.8757
 30
0.0000
 11
17.9197
 21
22.7825
 31
0.0000
  0
LINE
  8
51
 10
17.9197
 20
22.7825
 30
0.0000
 11
17.8731
 21
22.7359
 31
0.0000
  0
LINE
  8
51
 10
17.8731
 20
22.7359
 30
0.0000
 11
17.6867
 21
22.9223
 31
0.0000
  0
LINE
  8
51
 10
17.9197
 20
23.0166
 30
0.0000
 11
17.8731
 21
23.0166
 31
0.0000
  0
LINE
  8
51
 10
17.8731
 20
23.0166
 30
0.0000
 11
17.8731
 21
23.0632
 31
0.0000
  0
LINE
  8
51
 10
17.8731
 20
23.0632
 30
0.0000
 11
17.9197
 21
23.0632
 31
0.0000
  0
LINE
  8
51
 10
17.9197
 20
23.0632
 30
0.0000
 11
17.9197
 21
23.0166
 31
0.0000
  0
LINE
  8
51
 10
17.7333
 20
23.1569
 30
0.0000
 11
17.6401
 21
23.2501
 31
0.0000
  0
LINE
  8
51
 10
17.6401
 20
23.2501
 30
0.0000
 11
17.9197
 21
23.2501
 31
0.0000
  0
LINE
  8
51
 10
17.9197
 20
23.1569
 30
0.0000
 11
17.9197
 21
23.3433
 31
0.0000
  0
LINE
  8
51
 10
17.7333
 20
23.7182
 30
0.0000
 11
17.8731
 21
23.7182
 31
0.0000
  0
LINE
  8
51
 10
17.8731
 20
23.7182
 30
0.0000
 11
17.9197
 21
23.7648
 31
0.0000
  0
LINE
  8
51
 10
17.9197
 20
23.7648
 30
0.0000
 11
17.9197
 21
23.9046
 31
0.0000
  0
LINE
  8
51
 10
17.9197
 20
23.9046
 30
0.0000
 11
17.7333
 21
23.9046
 31
0.0000
  0
LINE
  8
51
 10
17.9197
 20
23.9988
 30
0.0000
 11
17.6401
 21
23.9988
 31
0.0000
  0
LINE
  8
51
 10
17.6401
 20
23.9988
 30
0.0000
 11
17.6401
 21
24.1853
 31
0.0000
  0
LINE
  8
51
 10
17.7799
 20
23.9988
 30
0.0000
 11
17.7799
 21
24.0920
 31
0.0000
  0
LINE
  8
51
 10
25.3111
 20
23.1564
 30
0.0000
 11
25.0315
 21
23.1564
 31
0.0000
  0
LINE
  8
51
 10
25.0315
 20
23.1564
 30
0.0000
 11
25.1713
 21
23.0166
 31
0.0000
  0
LINE
  8
51
 10
25.1713
 20
23.0166
 30
0.0000
 11
25.1713
 21
23.2030
 31
0.0000
  0
LINE
  8
51
 10
25.3111
 20
23.2972
 30
0.0000
 11
25.2645
 21
23.2972
 31
0.0000
  0
LINE
  8
51
 10
25.2645
 20
23.2972
 30
0.0000
 11
25.2645
 21
23.3438
 31
0.0000
  0
LINE
  8
51
 10
25.2645
 20
23.3438
 30
0.0000
 11
25.3111
 21
23.3438
 31
0.0000
  0
LINE
  8
51
 10
25.3111
 20
23.3438
 30
0.0000
 11
25.3111
 21
23.2972
 31
0.0000
  0
LINE
  8
51
 10
25.0315
 20
23.4375
 30
0.0000
 11
25.0315
 21
23.6240
 31
0.0000
  0
LINE
  8
51
 10
25.0315
 20
23.6240
 30
0.0000
 11
25.0781
 21
23.6240
 31
0.0000
  0
LINE
  8
51
 10
25.0781
 20
23.6240
 30
0.0000
 11
25.2645
 21
23.4375
 31
0.0000
  0
LINE
  8
51
 10
25.2645
 20
23.4375
 30
0.0000
 11
25.3111
 21
23.4375
 31
0.0000
  0
LINE
  8
51
 10
25.0315
 20
23.7182
 30
0.0000
 11
25.3111
 21
23.7182
 31
0.0000
  0
LINE
  8
51
 10
25.2179
 20
23.7182
 30
0.0000
 11
25.0315
 21
23.9046
 31
0.0000
  0
LINE
  8
51
 10
25.1713
 20
23.7648
 30
0.0000
 11
25.3111
 21
23.9046
 31
0.0000
  0
LINE
  8
51
 10
25.4887
 20
23.2265
 30
0.0000
 11
25.4887
 21
23.1333
 31
0.0000
  0
LINE
  8
51
 10
25.4887
 20
23.1333
 30
0.0000
 11
25.5353
 21
23.0867
 31
0.0000
  0
LINE
  8
51
 10
25.5353
 20
23.0867
 30
0.0000
 11
25.7217
 21
23.0867
 31
0.0000
  0
LINE
  8
51
 10
25.7217
 20
23.0867
 30
0.0000
 11
25.7683
 21
23.1333
 31
0.0000
  0
LINE
  8
51
 10
25.7683
 20
23.1333
 30
0.0000
 11
25.7683
 21
23.2265
 31
0.0000
  0
LINE
  8
51
 10
25.7683
 20
23.2265
 30
0.0000
 11
25.7217
 21
23.2731
 31
0.0000
  0
LINE
  8
51
 10
25.7217
 20
23.2731
 30
0.0000
 11
25.5353
 21
23.2731
 31
0.0000
  0
LINE
  8
51
 10
25.5353
 20
23.2731
 30
0.0000
 11
25.4887
 21
23.2265
 31
0.0000
  0
LINE
  8
51
 10
25.4887
 20
23.3674
 30
0.0000
 11
25.7683
 21
23.3674
 31
0.0000
  0
LINE
  8
51
 10
25.6285
 20
23.3674
 30
0.0000
 11
25.5819
 21
23.4140
 31
0.0000
  0
LINE
  8
51
 10
25.5819
 20
23.4140
 30
0.0000
 11
25.5819
 21
23.5072
 31
0.0000
  0
LINE
  8
51
 10
25.5819
 20
23.5072
 30
0.0000
 11
25.6285
 21
23.5538
 31
0.0000
  0
LINE
  8
51
 10
25.6285
 20
23.5538
 30
0.0000
 11
25.7683
 21
23.5538
 31
0.0000
  0
LINE
  8
51
 10
25.7683
 20
23.6480
 30
0.0000
 11
25.5819
 21
23.6480
 31
0.0000
  0
LINE
  8
51
 10
25.5819
 20
23.6480
 30
0.0000
 11
25.5819
 21
23.6946
 31
0.0000
  0
LINE
  8
51
 10
25.5819
 20
23.6946
 30
0.0000
 11
25.6285
 21
23.7412
 31
0.0000
  0
LINE
  8
51
 10
25.6285
 20
23.7412
 30
0.0000
 11
25.7683
 21
23.7412
 31
0.0000
  0
LINE
  8
51
 10
25.6285
 20
23.7412
 30
0.0000
 11
25.5819
 21
23.7878
 31
0.0000
  0
LINE
  8
51
 10
25.5819
 20
23.7878
 30
0.0000
 11
25.6285
 21
23.8344
 31
0.0000
  0
LINE
  8
51
 10
25.6285
 20
23.8344
 30
0.0000
 11
25.7683
 21
23.8344
 31
0.0000
  0
LINE
  8
51
 10
25.2601
 20
20.3122
 30
0.0000
 11
25.2601
 21
20.1257
 31
0.0000
  0
LINE
  8
51
 10
25.2601
 20
20.1257
 30
0.0000
 11
25.3999
 21
20.1257
 31
0.0000
  0
LINE
  8
51
 10
25.3999
 20
20.1257
 30
0.0000
 11
25.3533
 21
20.2189
 31
0.0000
  0
LINE
  8
51
 10
25.3533
 20
20.2189
 30
0.0000
 11
25.3533
 21
20.2656
 31
0.0000
  0
LINE
  8
51
 10
25.3533
 20
20.2656
 30
0.0000
 11
25.3999
 21
20.3122
 31
0.0000
  0
LINE
  8
51
 10
25.3999
 20
20.3122
 30
0.0000
 11
25.4931
 21
20.3122
 31
0.0000
  0
LINE
  8
51
 10
25.4931
 20
20.3122
 30
0.0000
 11
25.5397
 21
20.2656
 31
0.0000
  0
LINE
  8
51
 10
25.5397
 20
20.2656
 30
0.0000
 11
25.5397
 21
20.1723
 31
0.0000
  0
LINE
  8
51
 10
25.5397
 20
20.1723
 30
0.0000
 11
25.4931
 21
20.1257
 31
0.0000
  0
LINE
  8
51
 10
25.2601
 20
20.5928
 30
0.0000
 11
25.3067
 21
20.4996
 31
0.0000
  0
LINE
  8
51
 10
25.3067
 20
20.4996
 30
0.0000
 11
25.3999
 21
20.4064
 31
0.0000
  0
LINE
  8
51
 10
25.3999
 20
20.4064
 30
0.0000
 11
25.4931
 21
20.4064
 31
0.0000
  0
LINE
  8
51
 10
25.4931
 20
20.4064
 30
0.0000
 11
25.5397
 21
20.4530
 31
0.0000
  0
LINE
  8
51
 10
25.5397
 20
20.4530
 30
0.0000
 11
25.5397
 21
20.5462
 31
0.0000
  0
LINE
  8
51
 10
25.5397
 20
20.5462
 30
0.0000
 11
25.4931
 21
20.5928
 31
0.0000
  0
LINE
  8
51
 10
25.4931
 20
20.5928
 30
0.0000
 11
25.4465
 21
20.5928
 31
0.0000
  0
LINE
  8
51
 10
25.4465
 20
20.5928
 30
0.0000
 11
25.3999
 21
20.5462
 31
0.0000
  0
LINE
  8
51
 10
25.3999
 20
20.5462
 30
0.0000
 11
25.3999
 21
20.4064
 31
0.0000
  0
LINE
  8
51
 10
25.4931
 20
20.6870
 30
0.0000
 11
25.3067
 21
20.6870
 31
0.0000
  0
LINE
  8
51
 10
25.3067
 20
20.6870
 30
0.0000
 11
25.2601
 21
20.7336
 31
0.0000
  0
LINE
  8
51
 10
25.2601
 20
20.7336
 30
0.0000
 11
25.2601
 21
20.8269
 31
0.0000
  0
LINE
  8
51
 10
25.2601
 20
20.8269
 30
0.0000
 11
25.3067
 21
20.8735
 31
0.0000
  0
LINE
  8
51
 10
25.3067
 20
20.8735
 30
0.0000
 11
25.4931
 21
20.8735
 31
0.0000
  0
LINE
  8
51
 10
25.4931
 20
20.8735
 30
0.0000
 11
25.5397
 21
20.8269
 31
0.0000
  0
LINE
  8
51
 10
25.5397
 20
20.8269
 30
0.0000
 11
25.5397
 21
20.7336
 31
0.0000
  0
LINE
  8
51
 10
25.5397
 20
20.7336
 30
0.0000
 11
25.4931
 21
20.6870
 31
0.0000
  0
LINE
  8
51
 10
25.4931
 20
20.6870
 30
0.0000
 11
25.3067
 21
20.8735
 31
0.0000
  0
LINE
  8
51
 10
25.6329
 20
21.2483
 30
0.0000
 11
25.3533
 21
21.2483
 31
0.0000
  0
LINE
  8
51
 10
25.3533
 20
21.2483
 30
0.0000
 11
25.3533
 21
21.3882
 31
0.0000
  0
LINE
  8
51
 10
25.3533
 20
21.3882
 30
0.0000
 11
25.3999
 21
21.4348
 31
0.0000
  0
LINE
  8
51
 10
25.3999
 20
21.4348
 30
0.0000
 11
25.4931
 21
21.4348
 31
0.0000
  0
LINE
  8
51
 10
25.4931
 20
21.4348
 30
0.0000
 11
25.5397
 21
21.3882
 31
0.0000
  0
LINE
  8
51
 10
25.5397
 20
21.3882
 30
0.0000
 11
25.5397
 21
21.2483
 31
0.0000
  0
LINE
  8
51
 10
25.5397
 20
21.5290
 30
0.0000
 11
25.2601
 21
21.5290
 31
0.0000
  0
LINE
  8
51
 10
25.2601
 20
21.5290
 30
0.0000
 11
25.2601
 21
21.7154
 31
0.0000
  0
LINE
  8
51
 10
25.3999
 20
21.5290
 30
0.0000
 11
25.3999
 21
21.6222
 31
0.0000
  0
LINE
  8
51
 10
30.9909
 20
6.8919
 30
0.0000
 11
30.9909
 21
7.0783
 31
0.0000
  0
LINE
  8
51
 10
30.9909
 20
7.0783
 30
0.0000
 11
31.0375
 21
7.1249
 31
0.0000
  0
LINE
  8
51
 10
31.0375
 20
7.1249
 30
0.0000
 11
31.1307
 21
7.1249
 31
0.0000
  0
LINE
  8
51
 10
31.1307
 20
7.1249
 30
0.0000
 11
31.1773
 21
7.0783
 31
0.0000
  0
LINE
  8
51
 10
31.1773
 20
7.0783
 30
0.0000
 11
31.1773
 21
6.8919
 31
0.0000
  0
LINE
  8
51
 10
31.1773
 20
6.8919
 30
0.0000
 11
31.1307
 21
6.8453
 31
0.0000
  0
LINE
  8
51
 10
31.1307
 20
6.8453
 30
0.0000
 11
31.0375
 21
6.8453
 31
0.0000
  0
LINE
  8
51
 10
31.0375
 20
6.8453
 30
0.0000
 11
30.9909
 21
6.8919
 31
0.0000
  0
LINE
  8
51
 10
30.9909
 20
6.8919
 30
0.0000
 11
31.1773
 21
7.0783
 31
0.0000
  0
LINE
  8
51
 10
31.2716
 20
6.8453
 30
0.0000
 11
31.2716
 21
6.8919
 31
0.0000
  0
LINE
  8
51
 10
31.2716
 20
6.8919
 30
0.0000
 11
31.3182
 21
6.8919
 31
0.0000
  0
LINE
  8
51
 10
31.3182
 20
6.8919
 30
0.0000
 11
31.3182
 21
6.8453
 31
0.0000
  0
LINE
  8
51
 10
31.3182
 20
6.8453
 30
0.0000
 11
31.2716
 21
6.8453
 31
0.0000
  0
LINE
  8
51
 10
31.4119
 20
7.0317
 30
0.0000
 11
31.5051
 21
7.1249
 31
0.0000
  0
LINE
  8
51
 10
31.5051
 20
7.1249
 30
0.0000
 11
31.5051
 21
6.8453
 31
0.0000
  0
LINE
  8
51
 10
31.4119
 20
6.8453
 30
0.0000
 11
31.5983
 21
6.8453
 31
0.0000
  0
LINE
  8
51
 10
31.9732
 20
7.0317
 30
0.0000
 11
31.9732
 21
6.8919
 31
0.0000
  0
LINE
  8
51
 10
31.9732
 20
6.8919
 30
0.0000
 11
32.0198
 21
6.8453
 31
0.0000
  0
LINE
  8
51
 10
32.0198
 20
6.8453
 30
0.0000
 11
32.1596
 21
6.8453
 31
0.0000
  0
LINE
  8
51
 10
32.1596
 20
6.8453
 30
0.0000
 11
32.1596
 21
7.0317
 31
0.0000
  0
LINE
  8
51
 10
32.2538
 20
6.8453
 30
0.0000
 11
32.2538
 21
7.1249
 31
0.0000
  0
LINE
  8
51
 10
32.2538
 20
7.1249
 30
0.0000
 11
32.4403
 21
7.1249
 31
0.0000
  0
LINE
  8
51
 10
32.2538
 20
6.9851
 30
0.0000
 11
32.3470
 21
6.9851
 31
0.0000
  0
CIRCLE
  8
20
 10
35.5600
 20
2.5400
 30
0.0000
 40
1.6000
  0
CIRCLE
  8
20
 10
4.4450
 20
22.8600
 30
0.0000
 40
1.6000
  0
POINT
  8
23
 10
25.4000
 20
20.9550
 30
0.0000
  0
LINE
  8
39
 10
22.9270
 20
21.9380
 30
0.0000
 11
27.8730
 21
21.9380
 31
0.0000
  0
LINE
  8
39
 10
27.8730
 20
19.9720
 30
0.0000
 11
22.9270
 21
19.9720
 31
0.0000
  0
LINE
  8
39
 10
22.9270
 20
19.9720
 30
0.0000
 11
22.9270
 21
21.9380
 31
0.0000
  0
LINE
  8
39
 10
27.8730
 20
21.9380
 30
0.0000
 11
27.8730
 21
19.9720
 31
0.0000
  0
LINE
  8
51
 10
24.4350
 20
21.7420
 30
0.0000
 11
26.3650
 21
21.7420
 31
0.0000
  0
LINE
  8
51
 10
24.4350
 20
20.1680
 30
0.0000
 11
26.3650
 21
20.1680
 31
0.0000
  0
INSERT
  8
51
  2
RECT
 10
24.0733
 20
20.9541
 30
0.0000
 41
0.7501
 42
1.7000
 43
1.0000
 50
0.0000
  0
INSERT
  8
51
  2
RECT
 10
26.7268
 20
20.9559
 30
0.0000
 41
0.7501
 42
1.7000
 43
1.0000
 50
0.0000
  0
INSERT
  8
1
  2
RECT
 10
24.0000
 20
20.9550
 30
0.0000
 41
1.6000
 42
1.8000
 43
1.0000
 50
0.0000
  0
INSERT
  8
1
  2
RECT
 10
26.8000
 20
20.9550
 30
0.0000
 41
1.6000
 42
1.8000
 43
1.0000
 50
0.0000
  0
POINT
  8
23
 10
25.4000
 20
13.3350
 30
0.0000
  0
LINE
  8
39
 10
22.9270
 20
14.3180
 30
0.0000
 11
27.8730
 21
14.3180
 31
0.0000
  0
LINE
  8
39
 10
27.8730
 20
12.3520
 30
0.0000
 11
22.9270
 21
12.3520
 31
0.0000
  0
LINE
  8
39
 10
22.9270
 20
12.3520
 30
0.0000
 11
22.9270
 21
14.3180
 31
0.0000
  0
LINE
  8
39
 10
27.8730
 20
14.3180
 30
0.0000
 11
27.8730
 21
12.3520
 31
0.0000
  0
LINE
  8
51
 10
24.4350
 20
14.1220
 30
0.0000
 11
26.3650
 21
14.1220
 31
0.0000
  0
LINE
  8
51
 10
24.4350
 20
12.5480
 30
0.0000
 11
26.3650
 21
12.5480
 31
0.0000
  0
INSERT
  8
51
  2
RECT
 10
24.0733
 20
13.3341
 30
0.0000
 41
0.7501
 42
1.7000
 43
1.0000
 50
0.0000
  0
INSERT
  8
51
  2
RECT
 10
26.7268
 20
13.3359
 30
0.0000
 41
0.7501
 42
1.7000
 43
1.0000
 50
0.0000
  0
INSERT
  8
1
  2
RECT
 10
24.0000
 20
13.3350
 30
0.0000
 41
1.6000
 42
1.8000
 43
1.0000
 50
0.0000
  0
INSERT
  8
1
  2
RECT
 10
26.8000
 20
13.3350
 30
0.0000
 41
1.6000
 42
1.8000
 43
1.0000
 50
0.0000
  0
POINT
  8
23
 10
5.7150
 20
11.9380
 30
0.0000
  0
LINE
  8
39
 10
4.7320
 20
9.4650
 30
0.0000
 11
4.7320
 21
14.4110
 31
0.0000
  0
LINE
  8
39
 10
6.6980
 20
14.4110
 30
0.0000
 11
6.6980
 21
9.4650
 31
0.0000
  0
LINE
  8
39
 10
6.6980
 20
9.4650
 30
0.0000
 11
4.7320
 21
9.4650
 31
0.0000
  0
LINE
  8
39
 10
4.7320
 20
14.4110
 30
0.0000
 11
6.6980
 21
14.4110
 31
0.0000
  0
LINE
  8
51
 10
4.9280
 20
10.9730
 30
0.0000
 11
4.9280
 21
12.9030
 31
0.0000
  0
LINE
  8
51
 10
6.5020
 20
10.9730
 30
0.0000
 11
6.5020
 21
12.9030
 31
0.0000
  0
INSERT
  8
51
  2
RECT
 10
5.7159
 20
10.6113
 30
0.0000
 41
0.7501
 42
1.7000
 43
1.0000
 50
90.0000
  0
INSERT
  8
51
  2
RECT
 10
5.7141
 20
13.2648
 30
0.0000
 41
0.7501
 42
1.7000
 43
1.0000
 50
90.0000
  0
INSERT
  8
1
  2
RECT
 10
5.7150
 20
10.5380
 30
0.0000
 41
1.6000
 42
1.8000
 43
1.0000
 50
90.0000
  0
INSERT
  8
1
  2
RECT
 10
5.7150
 20
13.3380
 30
0.0000
 41
1.6000
 42
1.8000
 43
1.0000
 50
90.0000
  0
POINT
  8
23
 10
5.7150
 20
17.6530
 30
0.0000
  0
LINE
  8
39
 10
4.7320
 20
15.1800
 30
0.0000
 11
4.7320
 21
20.1260
 31
0.0000
  0
LINE
  8
39
 10
6.6980
 20
20.1260
 30
0.0000
 11
6.6980
 21
15.1800
 31
0.0000
  0
LINE
  8
39
 10
6.6980
 20
15.1800
 30
0.0000
 11
4.7320
 21
15.1800
 31
0.0000
  0
LINE
  8
39
 10
4.7320
 20
20.1260
 30
0.0000
 11
6.6980
 21
20.1260
 31
0.0000
  0
LINE
  8
51
 10
4.9280
 20
16.6880
 30
0.0000
 11
4.9280
 21
18.6180
 31
0.0000
  0
LINE
  8
51
 10
6.5020
 20
16.6880
 30
0.0000
 11
6.5020
 21
18.6180
 31
0.0000
  0
INSERT
  8
51
  2
RECT
 10
5.7159
 20
16.3263
 30
0.0000
 41
0.7501
 42
1.7000
 43
1.0000
 50
90.0000
  0
INSERT
  8
51
  2
RECT
 10
5.7141
 20
18.9797
 30
0.0000
 41
0.7501
 42
1.7000
 43
1.0000
 50
90.0000
  0
INSERT
  8
1
  2
RECT
 10
5.7150
 20
16.2530
 30
0.0000
 41
1.6000
 42
1.8000
 43
1.0000
 50
90.0000
  0
INSERT
  8
1
  2
RECT
 10
5.7150
 20
19.0530
 30
0.0000
 41
1.6000
 42
1.8000
 43
1.0000
 50
90.0000
  0
POINT
  8
23
 10
17.7800
 20
23.4950
 30
0.0000
  0
LINE
  8
39
 10
20.2530
 20
22.5120
 30
0.0000
 11
15.3070
 21
22.5120
 31
0.0000
  0
LINE
  8
39
 10
15.3070
 20
24.4780
 30
0.0000
 11
20.2530
 21
24.4780
 31
0.0000
  0
LINE
  8
39
 10
20.2530
 20
24.4780
 30
0.0000
 11
20.2530
 21
22.5120
 31
0.0000
  0
LINE
  8
39
 10
15.3070
 20
22.5120
 30
0.0000
 11
15.3070
 21
24.4780
 31
0.0000
  0
LINE
  8
51
 10
18.7450
 20
22.7080
 30
0.0000
 11
16.8150
 21
22.7080
 31
0.0000
  0
LINE
  8
51
 10
18.7450
 20
24.2820
 30
0.0000
 11
16.8150
 21
24.2820
 31
0.0000
  0
INSERT
  8
51
  2
RECT
 10
19.1068
 20
23.4959
 30
0.0000
 41
0.7501
 42
1.7000
 43
1.0000
 50
180.0000
  0
INSERT
  8
51
  2
RECT
 10
16.4533
 20
23.4941
 30
0.0000
 41
0.7501
 42
1.7000
 43
1.0000
 50
180.0000
  0
INSERT
  8
1
  2
RECT
 10
19.1800
 20
23.4950
 30
0.0000
 41
1.6000
 42
1.8000
 43
1.0000
 50
180.0000
  0
INSERT
  8
1
  2
RECT
 10
16.3800
 20
23.4950
 30
0.0000
 41
1.6000
 42
1.8000
 43
1.0000
 50
180.0000
  0
POINT
  8
23
 10
31.7500
 20
6.9850
 30
0.0000
  0
LINE
  8
39
 10
32.7330
 20
9.4580
 30
0.0000
 11
32.7330
 21
4.5120
 31
0.0000
  0
LINE
  8
39
 10
30.7670
 20
4.5120
 30
0.0000
 11
30.7670
 21
9.4580
 31
0.0000
  0
LINE
  8
39
 10
30.7670
 20
9.4580
 30
0.0000
 11
32.7330
 21
9.4580
 31
0.0000
  0
LINE
  8
39
 10
32.7330
 20
4.5120
 30
0.0000
 11
30.7670
 21
4.5120
 31
0.0000
  0
LINE
  8
51
 10
32.5370
 20
7.9500
 30
0.0000
 11
32.5370
 21
6.0200
 31
0.0000
  0
LINE
  8
51
 10
30.9630
 20
7.9500
 30
0.0000
 11
30.9630
 21
6.0200
 31
0.0000
  0
INSERT
  8
51
  2
RECT
 10
31.7491
 20
8.3117
 30
0.0000
 41
0.7501
 42
1.7000
 43
1.0000
 50
270.0000
  0
INSERT
  8
51
  2
RECT
 10
31.7509
 20
5.6583
 30
0.0000
 41
0.7501
 42
1.7000
 43
1.0000
 50
270.0000
  0
INSERT
  8
1
  2
RECT
 10
31.7500
 20
8.3850
 30
0.0000
 41
1.6000
 42
1.8000
 43
1.0000
 50
270.0000
  0
INSERT
  8
1
  2
RECT
 10
31.7500
 20
5.5850
 30
0.0000
 41
1.6000
 42
1.8000
 43
1.0000
 50
270.0000
  0
POINT
  8
23
 10
20.3200
 20
-10.1600
 30
0.0000
  0
LINE
  8
51
 10
0.0762
 20
-5.0038
 30
0.0000
 11
0.0762
 21
-3.3768
 31
0.0000
  0
LINE
  8
51
 10
0.0762
 20
-3.3768
 30
0.0000
 11
0.8897
 21
-3.3768
 31
0.0000
  0
LINE
  8
51
 10
0.8897
 20
-3.3768
 30
0.0000
 11
1.1609
 21
-3.6480
 31
0.0000
  0
LINE
  8
51
 10
1.1609
 20
-3.6480
 30
0.0000
 11
1.1609
 21
-4.1903
 31
0.0000
  0
LINE
  8
51
 10
1.1609
 20
-4.1903
 30
0.0000
 11
0.8897
 21
-4.4615
 31
0.0000
  0
LINE
  8
51
 10
0.8897
 20
-4.4615
 30
0.0000
 11
0.0762
 21
-4.4615
 31
0.0000
  0
LINE
  8
51
 10
0.6185
 20
-4.4615
 30
0.0000
 11
1.1609
 21
-5.0038
 31
0.0000
  0
LINE
  8
51
 10
2.5269
 20
-5.0038
 30
0.0000
 11
1.9845
 21
-5.0038
 31
0.0000
  0
LINE
  8
51
 10
1.9845
 20
-5.0038
 30
0.0000
 11
1.7134
 21
-4.7326
 31
0.0000
  0
LINE
  8
51
 10
1.7134
 20
-4.7326
 30
0.0000
 11
1.7134
 21
-4.1903
 31
0.0000
  0
LINE
  8
51
 10
1.7134
 20
-4.1903
 30
0.0000
 11
1.9845
 21
-3.9191
 31
0.0000
  0
LINE
  8
51
 10
1.9845
 20
-3.9191
 30
0.0000
 11
2.5269
 21
-3.9191
 31
0.0000
  0
LINE
  8
51
 10
2.5269
 20
-3.9191
 30
0.0000
 11
2.7980
 21
-4.1903
 31
0.0000
  0
LINE
  8
51
 10
2.7980
 20
-4.1903
 30
0.0000
 11
2.7980
 21
-4.4615
 31
0.0000
  0
LINE
  8
51
 10
2.7980
 20
-4.4615
 30
0.0000
 11
1.7134
 21
-4.4615
 31
0.0000
  0
LINE
  8
51
 10
3.3505
 20
-3.3768
 30
0.0000
 11
3.6217
 21
-3.3768
 31
0.0000
  0
LINE
  8
51
 10
3.6217
 20
-3.3768
 30
0.0000
 11
3.6217
 21
-5.0038
 31
0.0000
  0
LINE
  8
51
 10
3.3505
 20
-5.0038
 30
0.0000
 11
3.8928
 21
-5.0038
 31
0.0000
  0
LINE
  8
51
 10
5.2554
 20
-5.0038
 30
0.0000
 11
4.7131
 21
-5.0038
 31
0.0000
  0
LINE
  8
51
 10
4.7131
 20
-5.0038
 30
0.0000
 11
4.4420
 21
-4.7326
 31
0.0000
  0
LINE
  8
51
 10
4.4420
 20
-4.7326
 30
0.0000
 11
4.4420
 21
-4.1903
 31
0.0000
  0
LINE
  8
51
 10
4.4420
 20
-4.1903
 30
0.0000
 11
4.7131
 21
-3.9191
 31
0.0000
  0
LINE
  8
51
 10
4.7131
 20
-3.9191
 30
0.0000
 11
5.2554
 21
-3.9191
 31
0.0000
  0
LINE
  8
51
 10
5.2554
 20
-3.9191
 30
0.0000
 11
5.5266
 21
-4.1903
 31
0.0000
  0
LINE
  8
51
 10
5.5266
 20
-4.1903
 30
0.0000
 11
5.5266
 21
-4.4615
 31
0.0000
  0
LINE
  8
51
 10
5.5266
 20
-4.4615
 30
0.0000
 11
4.4420
 21
-4.4615
 31
0.0000
  0
LINE
  8
51
 10
6.3503
 20
-3.9191
 30
0.0000
 11
6.8926
 21
-3.9191
 31
0.0000
  0
LINE
  8
51
 10
6.8926
 20
-3.9191
 30
0.0000
 11
7.1638
 21
-4.1903
 31
0.0000
  0
LINE
  8
51
 10
7.1638
 20
-4.1903
 30
0.0000
 11
7.1638
 21
-5.0038
 31
0.0000
  0
LINE
  8
51
 10
7.1638
 20
-5.0038
 30
0.0000
 11
6.3503
 21
-5.0038
 31
0.0000
  0
LINE
  8
51
 10
6.3503
 20
-5.0038
 30
0.0000
 11
6.0791
 21
-4.7326
 31
0.0000
  0
LINE
  8
51
 10
6.0791
 20
-4.7326
 30
0.0000
 11
6.3503
 21
-4.4615
 31
0.0000
  0
LINE
  8
51
 10
6.3503
 20
-4.4615
 30
0.0000
 11
7.1638
 21
-4.4615
 31
0.0000
  0
LINE
  8
51
 10
7.7163
 20
-5.0038
 30
0.0000
 11
8.5298
 21
-5.0038
 31
0.0000
  0
LINE
  8
51
 10
8.5298
 20
-5.0038
 30
0.0000
 11
8.8009
 21
-4.7326
 31
0.0000
  0
LINE
  8
51
 10
8.8009
 20
-4.7326
 30
0.0000
 11
8.5298
 21
-4.4615
 31
0.0000
  0
LINE
  8
51
 10
8.5298
 20
-4.4615
 30
0.0000
 11
7.9874
 21
-4.4615
 31
0.0000
  0
LINE
  8
51
 10
7.9874
 20
-4.4615
 30
0.0000
 11
7.7163
 21
-4.1903
 31
0.0000
  0
LINE
  8
51
 10
7.7163
 20
-4.1903
 30
0.0000
 11
7.9874
 21
-3.9191
 31
0.0000
  0
LINE
  8
51
 10
7.9874
 20
-3.9191
 30
0.0000
 11
8.8009
 21
-3.9191
 31
0.0000
  0
LINE
  8
51
 10
10.1669
 20
-5.0038
 30
0.0000
 11
9.6246
 21
-5.0038
 31
0.0000
  0
LINE
  8
51
 10
9.6246
 20
-5.0038
 30
0.0000
 11
9.3534
 21
-4.7326
 31
0.0000
  0
LINE
  8
51
 10
9.3534
 20
-4.7326
 30
0.0000
 11
9.3534
 21
-4.1903
 31
0.0000
  0
LINE
  8
51
 10
9.3534
 20
-4.1903
 30
0.0000
 11
9.6246
 21
-3.9191
 31
0.0000
  0
LINE
  8
51
 10
9.6246
 20
-3.9191
 30
0.0000
 11
10.1669
 21
-3.9191
 31
0.0000
  0
LINE
  8
51
 10
10.1669
 20
-3.9191
 30
0.0000
 11
10.4381
 21
-4.1903
 31
0.0000
  0
LINE
  8
51
 10
10.4381
 20
-4.1903
 30
0.0000
 11
10.4381
 21
-4.4615
 31
0.0000
  0
LINE
  8
51
 10
10.4381
 20
-4.4615
 30
0.0000
 11
9.3534
 21
-4.4615
 31
0.0000
  0
LINE
  8
51
 10
12.0752
 20
-3.3768
 30
0.0000
 11
12.0752
 21
-5.0038
 31
0.0000
  0
LINE
  8
51
 10
12.0752
 20
-5.0038
 30
0.0000
 11
11.2617
 21
-5.0038
 31
0.0000
  0
LINE
  8
51
 10
11.2617
 20
-5.0038
 30
0.0000
 11
10.9906
 21
-4.7326
 31
0.0000
  0
LINE
  8
51
 10
10.9906
 20
-4.7326
 30
0.0000
 11
10.9906
 21
-4.1903
 31
0.0000
  0
LINE
  8
51
 10
10.9906
 20
-4.1903
 30
0.0000
 11
11.2617
 21
-3.9191
 31
0.0000
  0
LINE
  8
51
 10
11.2617
 20
-3.9191
 30
0.0000
 11
12.0752
 21
-3.9191
 31
0.0000
  0
LINE
  8
51
 10
14.2649
 20
-3.9191
 30
0.0000
 11
14.2649
 21
-4.7326
 31
0.0000
  0
LINE
  8
51
 10
14.2649
 20
-4.7326
 30
0.0000
 11
14.5361
 21
-5.0038
 31
0.0000
  0
LINE
  8
51
 10
14.5361
 20
-5.0038
 30
0.0000
 11
15.3495
 21
-5.0038
 31
0.0000
  0
LINE
  8
51
 10
15.3495
 20
-5.0038
 30
0.0000
 11
15.3495
 21
-3.9191
 31
0.0000
  0
LINE
  8
51
 10
15.9020
 20
-5.0038
 30
0.0000
 11
15.9020
 21
-3.9191
 31
0.0000
  0
LINE
  8
51
 10
15.9020
 20
-3.9191
 30
0.0000
 11
16.7155
 21
-3.9191
 31
0.0000
  0
LINE
  8
51
 10
16.7155
 20
-3.9191
 30
0.0000
 11
16.9867
 21
-4.1903
 31
0.0000
  0
LINE
  8
51
 10
16.9867
 20
-4.1903
 30
0.0000
 11
16.9867
 21
-5.0038
 31
0.0000
  0
LINE
  8
51
 10
18.6239
 20
-3.3768
 30
0.0000
 11
18.6239
 21
-5.0038
 31
0.0000
  0
LINE
  8
51
 10
18.6239
 20
-5.0038
 30
0.0000
 11
17.8104
 21
-5.0038
 31
0.0000
  0
LINE
  8
51
 10
17.8104
 20
-5.0038
 30
0.0000
 11
17.5392
 21
-4.7326
 31
0.0000
  0
LINE
  8
51
 10
17.5392
 20
-4.7326
 30
0.0000
 11
17.5392
 21
-4.1903
 31
0.0000
  0
LINE
  8
51
 10
17.5392
 20
-4.1903
 30
0.0000
 11
17.8104
 21
-3.9191
 31
0.0000
  0
LINE
  8
51
 10
17.8104
 20
-3.9191
 30
0.0000
 11
18.6239
 21
-3.9191
 31
0.0000
  0
LINE
  8
51
 10
19.9899
 20
-5.0038
 30
0.0000
 11
19.4475
 21
-5.0038
 31
0.0000
  0
LINE
  8
51
 10
19.4475
 20
-5.0038
 30
0.0000
 11
19.1764
 21
-4.7326
 31
0.0000
  0
LINE
  8
51
 10
19.1764
 20
-4.7326
 30
0.0000
 11
19.1764
 21
-4.1903
 31
0.0000
  0
LINE
  8
51
 10
19.1764
 20
-4.1903
 30
0.0000
 11
19.4475
 21
-3.9191
 31
0.0000
  0
LINE
  8
51
 10
19.4475
 20
-3.9191
 30
0.0000
 11
19.9899
 21
-3.9191
 31
0.0000
  0
LINE
  8
51
 10
19.9899
 20
-3.9191
 30
0.0000
 11
20.2610
 21
-4.1903
 31
0.0000
  0
LINE
  8
51
 10
20.2610
 20
-4.1903
 30
0.0000
 11
20.2610
 21
-4.4615
 31
0.0000
  0
LINE
  8
51
 10
20.2610
 20
-4.4615
 30
0.0000
 11
19.1764
 21
-4.4615
 31
0.0000
  0
LINE
  8
51
 10
20.8135
 20
-5.0038
 30
0.0000
 11
20.8135
 21
-3.9191
 31
0.0000
  0
LINE
  8
51
 10
20.8135
 20
-4.4615
 30
0.0000
 11
21.3558
 21
-3.9191
 31
0.0000
  0
LINE
  8
51
 10
21.3558
 20
-3.9191
 30
0.0000
 11
21.6270
 21
-3.9191
 31
0.0000
  0
LINE
  8
51
 10
24.0861
 20
-3.6480
 30
0.0000
 11
24.0861
 21
-4.7326
 31
0.0000
  0
LINE
  8
51
 10
24.0861
 20
-4.7326
 30
0.0000
 11
24.3573
 21
-5.0038
 31
0.0000
  0
LINE
  8
51
 10
23.8150
 20
-3.9191
 30
0.0000
 11
24.3573
 21
-3.9191
 31
0.0000
  0
LINE
  8
51
 10
24.9064
 20
-3.3768
 30
0.0000
 11
24.9064
 21
-5.0038
 31
0.0000
  0
LINE
  8
51
 10
24.9064
 20
-4.1903
 30
0.0000
 11
25.1776
 21
-3.9191
 31
0.0000
  0
LINE
  8
51
 10
25.1776
 20
-3.9191
 30
0.0000
 11
25.7199
 21
-3.9191
 31
0.0000
  0
LINE
  8
51
 10
25.7199
 20
-3.9191
 30
0.0000
 11
25.9911
 21
-4.1903
 31
0.0000
  0
LINE
  8
51
 10
25.9911
 20
-4.1903
 30
0.0000
 11
25.9911
 21
-5.0038
 31
0.0000
  0
LINE
  8
51
 10
27.3571
 20
-5.0038
 30
0.0000
 11
26.8147
 21
-5.0038
 31
0.0000
  0
LINE
  8
51
 10
26.8147
 20
-5.0038
 30
0.0000
 11
26.5436
 21
-4.7326
 31
0.0000
  0
LINE
  8
51
 10
26.5436
 20
-4.7326
 30
0.0000
 11
26.5436
 21
-4.1903
 31
0.0000
  0
LINE
  8
51
 10
26.5436
 20
-4.1903
 30
0.0000
 11
26.8147
 21
-3.9191
 31
0.0000
  0
LINE
  8
51
 10
26.8147
 20
-3.9191
 30
0.0000
 11
27.3571
 21
-3.9191
 31
0.0000
  0
LINE
  8
51
 10
27.3571
 20
-3.9191
 30
0.0000
 11
27.6282
 21
-4.1903
 31
0.0000
  0
LINE
  8
51
 10
27.6282
 20
-4.1903
 30
0.0000
 11
27.6282
 21
-4.4615
 31
0.0000
  0
LINE
  8
51
 10
27.6282
 20
-4.4615
 30
0.0000
 11
26.5436
 21
-4.4615
 31
0.0000
  0
LINE
  8
51
 10
30.9025
 20
-3.6480
 30
0.0000
 11
30.6314
 21
-3.3768
 31
0.0000
  0
LINE
  8
51
 10
30.6314
 20
-3.3768
 30
0.0000
 11
30.0890
 21
-3.3768
 31
0.0000
  0
LINE
  8
51
 10
30.0890
 20
-3.3768
 30
0.0000
 11
29.8179
 21
-3.6480
 31
0.0000
  0
LINE
  8
51
 10
29.8179
 20
-3.6480
 30
0.0000
 11
29.8179
 21
-4.7326
 31
0.0000
  0
LINE
  8
51
 10
29.8179
 20
-4.7326
 30
0.0000
 11
30.0890
 21
-5.0038
 31
0.0000
  0
LINE
  8
51
 10
30.0890
 20
-5.0038
 30
0.0000
 11
30.6314
 21
-5.0038
 31
0.0000
  0
LINE
  8
51
 10
30.6314
 20
-5.0038
 30
0.0000
 11
30.9025
 21
-4.7326
 31
0.0000
  0
LINE
  8
51
 10
31.4550
 20
-5.0038
 30
0.0000
 11
31.4550
 21
-3.9191
 31
0.0000
  0
LINE
  8
51
 10
31.4550
 20
-4.4615
 30
0.0000
 11
31.9974
 21
-3.9191
 31
0.0000
  0
LINE
  8
51
 10
31.9974
 20
-3.9191
 30
0.0000
 11
32.2685
 21
-3.9191
 31
0.0000
  0
LINE
  8
51
 10
33.6328
 20
-5.0038
 30
0.0000
 11
33.0905
 21
-5.0038
 31
0.0000
  0
LINE
  8
51
 10
33.0905
 20
-5.0038
 30
0.0000
 11
32.8193
 21
-4.7326
 31
0.0000
  0
LINE
  8
51
 10
32.8193
 20
-4.7326
 30
0.0000
 11
32.8193
 21
-4.1903
 31
0.0000
  0
LINE
  8
51
 10
32.8193
 20
-4.1903
 30
0.0000
 11
33.0905
 21
-3.9191
 31
0.0000
  0
LINE
  8
51
 10
33.0905
 20
-3.9191
 30
0.0000
 11
33.6328
 21
-3.9191
 31
0.0000
  0
LINE
  8
51
 10
33.6328
 20
-3.9191
 30
0.0000
 11
33.9040
 21
-4.1903
 31
0.0000
  0
LINE
  8
51
 10
33.9040
 20
-4.1903
 30
0.0000
 11
33.9040
 21
-4.4615
 31
0.0000
  0
LINE
  8
51
 10
33.9040
 20
-4.4615
 30
0.0000
 11
32.8193
 21
-4.4615
 31
0.0000
  0
LINE
  8
51
 10
34.7276
 20
-3.9191
 30
0.0000
 11
35.2700
 21
-3.9191
 31
0.0000
  0
LINE
  8
51
 10
35.2700
 20
-3.9191
 30
0.0000
 11
35.5411
 21
-4.1903
 31
0.0000
  0
LINE
  8
51
 10
35.5411
 20
-4.1903
 30
0.0000
 11
35.5411
 21
-5.0038
 31
0.0000
  0
LINE
  8
51
 10
35.5411
 20
-5.0038
 30
0.0000
 11
34.7276
 21
-5.0038
 31
0.0000
  0
LINE
  8
51
 10
34.7276
 20
-5.0038
 30
0.0000
 11
34.4565
 21
-4.7326
 31
0.0000
  0
LINE
  8
51
 10
34.4565
 20
-4.7326
 30
0.0000
 11
34.7276
 21
-4.4615
 31
0.0000
  0
LINE
  8
51
 10
34.7276
 20
-4.4615
 30
0.0000
 11
35.5411
 21
-4.4615
 31
0.0000
  0
LINE
  8
51
 10
36.3648
 20
-3.6480
 30
0.0000
 11
36.3648
 21
-4.7326
 31
0.0000
  0
LINE
  8
51
 10
36.3648
 20
-4.7326
 30
0.0000
 11
36.6360
 21
-5.0038
 31
0.0000
  0
LINE
  8
51
 10
36.0936
 20
-3.9191
 30
0.0000
 11
36.6360
 21
-3.9191
 31
0.0000
  0
LINE
  8
51
 10
37.1851
 20
-3.9191
 30
0.0000
 11
37.4562
 21
-3.9191
 31
0.0000
  0
LINE
  8
51
 10
37.4562
 20
-3.9191
 30
0.0000
 11
37.4562
 21
-5.0038
 31
0.0000
  0
LINE
  8
51
 10
37.1851
 20
-5.0038
 30
0.0000
 11
37.7274
 21
-5.0038
 31
0.0000
  0
LINE
  8
51
 10
37.4562
 20
-3.1056
 30
0.0000
 11
37.4562
 21
-3.3768
 31
0.0000
  0
LINE
  8
51
 10
38.2765
 20
-3.9191
 30
0.0000
 11
38.8188
 21
-5.0038
 31
0.0000
  0
LINE
  8
51
 10
38.8188
 20
-5.0038
 30
0.0000
 11
39.3612
 21
-3.9191
 31
0.0000
  0
LINE
  8
51
 10
40.7272
 20
-5.0038
 30
0.0000
 11
40.1848
 21
-5.0038
 31
0.0000
  0
LINE
  8
51
 10
40.1848
 20
-5.0038
 30
0.0000
 11
39.9137
 21
-4.7326
 31
0.0000
  0
LINE
  8
51
 10
39.9137
 20
-4.7326
 30
0.0000
 11
39.9137
 21
-4.1903
 31
0.0000
  0
LINE
  8
51
 10
39.9137
 20
-4.1903
 30
0.0000
 11
40.1848
 21
-3.9191
 31
0.0000
  0
LINE
  8
51
 10
40.1848
 20
-3.9191
 30
0.0000
 11
40.7272
 21
-3.9191
 31
0.0000
  0
LINE
  8
51
 10
40.7272
 20
-3.9191
 30
0.0000
 11
40.9983
 21
-4.1903
 31
0.0000
  0
LINE
  8
51
 10
40.9983
 20
-4.1903
 30
0.0000
 11
40.9983
 21
-4.4615
 31
0.0000
  0
LINE
  8
51
 10
40.9983
 20
-4.4615
 30
0.0000
 11
39.9137
 21
-4.4615
 31
0.0000
  0
LINE
  8
51
 10
44.2726
 20
-3.6480
 30
0.0000
 11
44.0015
 21
-3.3768
 31
0.0000
  0
LINE
  8
51
 10
44.0015
 20
-3.3768
 30
0.0000
 11
43.4591
 21
-3.3768
 31
0.0000
  0
LINE
  8
51
 10
43.4591
 20
-3.3768
 30
0.0000
 11
43.1880
 21
-3.6480
 31
0.0000
  0
LINE
  8
51
 10
43.1880
 20
-3.6480
 30
0.0000
 11
43.1880
 21
-4.7326
 31
0.0000
  0
LINE
  8
51
 10
43.1880
 20
-4.7326
 30
0.0000
 11
43.4591
 21
-5.0038
 31
0.0000
  0
LINE
  8
51
 10
43.4591
 20
-5.0038
 30
0.0000
 11
44.0015
 21
-5.0038
 31
0.0000
  0
LINE
  8
51
 10
44.0015
 20
-5.0038
 30
0.0000
 11
44.2726
 21
-4.7326
 31
0.0000
  0
LINE
  8
51
 10
45.0963
 20
-5.0038
 30
0.0000
 11
45.6386
 21
-5.0038
 31
0.0000
  0
LINE
  8
51
 10
45.6386
 20
-5.0038
 30
0.0000
 11
45.9098
 21
-4.7326
 31
0.0000
  0
LINE
  8
51
 10
45.9098
 20
-4.7326
 30
0.0000
 11
45.9098
 21
-4.1903
 31
0.0000
  0
LINE
  8
51
 10
45.9098
 20
-4.1903
 30
0.0000
 11
45.6386
 21
-3.9191
 31
0.0000
  0
LINE
  8
51
 10
45.6386
 20
-3.9191
 30
0.0000
 11
45.0963
 21
-3.9191
 31
0.0000
  0
LINE
  8
51
 10
45.0963
 20
-3.9191
 30
0.0000
 11
44.8251
 21
-4.1903
 31
0.0000
  0
LINE
  8
51
 10
44.8251
 20
-4.1903
 30
0.0000
 11
44.8251
 21
-4.7326
 31
0.0000
  0
LINE
  8
51
 10
44.8251
 20
-4.7326
 30
0.0000
 11
45.0963
 21
-5.0038
 31
0.0000
  0
LINE
  8
51
 10
46.4623
 20
-5.0038
 30
0.0000
 11
46.4623
 21
-3.9191
 31
0.0000
  0
LINE
  8
51
 10
46.4623
 20
-3.9191
 30
0.0000
 11
46.7335
 21
-3.9191
 31
0.0000
  0
LINE
  8
51
 10
46.7335
 20
-3.9191
 30
0.0000
 11
47.0046
 21
-4.1903
 31
0.0000
  0
LINE
  8
51
 10
47.0046
 20
-4.1903
 30
0.0000
 11
47.0046
 21
-5.0038
 31
0.0000
  0
LINE
  8
51
 10
47.0046
 20
-4.1903
 30
0.0000
 11
47.2758
 21
-3.9191
 31
0.0000
  0
LINE
  8
51
 10
47.2758
 20
-3.9191
 30
0.0000
 11
47.5470
 21
-4.1903
 31
0.0000
  0
LINE
  8
51
 10
47.5470
 20
-4.1903
 30
0.0000
 11
47.5470
 21
-5.0038
 31
0.0000
  0
LINE
  8
51
 10
48.0995
 20
-5.0038
 30
0.0000
 11
48.0995
 21
-3.9191
 31
0.0000
  0
LINE
  8
51
 10
48.0995
 20
-3.9191
 30
0.0000
 11
48.3706
 21
-3.9191
 31
0.0000
  0
LINE
  8
51
 10
48.3706
 20
-3.9191
 30
0.0000
 11
48.6418
 21
-4.1903
 31
0.0000
  0
LINE
  8
51
 10
48.6418
 20
-4.1903
 30
0.0000
 11
48.6418
 21
-5.0038
 31
0.0000
  0
LINE
  8
51
 10
48.6418
 20
-4.1903
 30
0.0000
 11
48.9129
 21
-3.9191
 31
0.0000
  0
LINE
  8
51
 10
48.9129
 20
-3.9191
 30
0.0000
 11
49.1841
 21
-4.1903
 31
0.0000
  0
LINE
  8
51
 10
49.1841
 20
-4.1903
 30
0.0000
 11
49.1841
 21
-5.0038
 31
0.0000
  0
LINE
  8
51
 10
50.0078
 20
-5.0038
 30
0.0000
 11
50.5501
 21
-5.0038
 31
0.0000
  0
LINE
  8
51
 10
50.5501
 20
-5.0038
 30
0.0000
 11
50.8213
 21
-4.7326
 31
0.0000
  0
LINE
  8
51
 10
50.8213
 20
-4.7326
 30
0.0000
 11
50.8213
 21
-4.1903
 31
0.0000
  0
LINE
  8
51
 10
50.8213
 20
-4.1903
 30
0.0000
 11
50.5501
 21
-3.9191
 31
0.0000
  0
LINE
  8
51
 10
50.5501
 20
-3.9191
 30
0.0000
 11
50.0078
 21
-3.9191
 31
0.0000
  0
LINE
  8
51
 10
50.0078
 20
-3.9191
 30
0.0000
 11
49.7366
 21
-4.1903
 31
0.0000
  0
LINE
  8
51
 10
49.7366
 20
-4.1903
 30
0.0000
 11
49.7366
 21
-4.7326
 31
0.0000
  0
LINE
  8
51
 10
49.7366
 20
-4.7326
 30
0.0000
 11
50.0078
 21
-5.0038
 31
0.0000
  0
LINE
  8
51
 10
51.3738
 20
-5.0038
 30
0.0000
 11
51.3738
 21
-3.9191
 31
0.0000
  0
LINE
  8
51
 10
51.3738
 20
-3.9191
 30
0.0000
 11
52.1873
 21
-3.9191
 31
0.0000
  0
LINE
  8
51
 10
52.1873
 20
-3.9191
 30
0.0000
 11
52.4584
 21
-4.1903
 31
0.0000
  0
LINE
  8
51
 10
52.4584
 20
-4.1903
 30
0.0000
 11
52.4584
 21
-5.0038
 31
0.0000
  0
LINE
  8
51
 10
53.0109
 20
-5.0038
 30
0.0000
 11
53.8244
 21
-5.0038
 31
0.0000
  0
LINE
  8
51
 10
53.8244
 20
-5.0038
 30
0.0000
 11
54.0956
 21
-4.7326
 31
0.0000
  0
LINE
  8
51
 10
54.0956
 20
-4.7326
 30
0.0000
 11
53.8244
 21
-4.4615
 31
0.0000
  0
LINE
  8
51
 10
53.8244
 20
-4.4615
 30
0.0000
 11
53.2821
 21
-4.4615
 31
0.0000
  0
LINE
  8
51
 10
53.2821
 20
-4.4615
 30
0.0000
 11
53.0109
 21
-4.1903
 31
0.0000
  0
LINE
  8
51
 10
53.0109
 20
-4.1903
 30
0.0000
 11
53.2821
 21
-3.9191
 31
0.0000
  0
LINE
  8
51
 10
53.2821
 20
-3.9191
 30
0.0000
 11
54.0956
 21
-3.9191
 31
0.0000
  0
LINE
  8
51
 10
56.2852
 20
-5.0038
 30
0.0000
 11
56.2852
 21
-3.9191
 31
0.0000
  0
LINE
  8
51
 10
56.2852
 20
-3.9191
 30
0.0000
 11
56.8276
 21
-3.3768
 31
0.0000
  0
LINE
  8
51
 10
56.8276
 20
-3.3768
 30
0.0000
 11
57.3699
 21
-3.9191
 31
0.0000
  0
LINE
  8
51
 10
57.3699
 20
-3.9191
 30
0.0000
 11
57.3699
 21
-5.0038
 31
0.0000
  0
LINE
  8
51
 10
56.2852
 20
-4.1903
 30
0.0000
 11
57.3699
 21
-4.1903
 31
0.0000
  0
LINE
  8
51
 10
58.1936
 20
-3.6480
 30
0.0000
 11
58.1936
 21
-4.7326
 31
0.0000
  0
LINE
  8
51
 10
58.1936
 20
-4.7326
 30
0.0000
 11
58.4647
 21
-5.0038
 31
0.0000
  0
LINE
  8
51
 10
57.9224
 20
-3.9191
 30
0.0000
 11
58.4647
 21
-3.9191
 31
0.0000
  0
LINE
  8
51
 10
59.2850
 20
-3.6480
 30
0.0000
 11
59.2850
 21
-4.7326
 31
0.0000
  0
LINE
  8
51
 10
59.2850
 20
-4.7326
 30
0.0000
 11
59.5562
 21
-5.0038
 31
0.0000
  0
LINE
  8
51
 10
59.0138
 20
-3.9191
 30
0.0000
 11
59.5562
 21
-3.9191
 31
0.0000
  0
LINE
  8
51
 10
60.1053
 20
-5.0038
 30
0.0000
 11
60.1053
 21
-3.9191
 31
0.0000
  0
LINE
  8
51
 10
60.1053
 20
-4.4615
 30
0.0000
 11
60.6476
 21
-3.9191
 31
0.0000
  0
LINE
  8
51
 10
60.6476
 20
-3.9191
 30
0.0000
 11
60.9188
 21
-3.9191
 31
0.0000
  0
LINE
  8
51
 10
61.4696
 20
-3.9191
 30
0.0000
 11
61.7407
 21
-3.9191
 31
0.0000
  0
LINE
  8
51
 10
61.7407
 20
-3.9191
 30
0.0000
 11
61.7407
 21
-5.0038
 31
0.0000
  0
LINE
  8
51
 10
61.4696
 20
-5.0038
 30
0.0000
 11
62.0119
 21
-5.0038
 31
0.0000
  0
LINE
  8
51
 10
61.7407
 20
-3.1056
 30
0.0000
 11
61.7407
 21
-3.3768
 31
0.0000
  0
LINE
  8
51
 10
62.5610
 20
-3.3768
 30
0.0000
 11
62.5610
 21
-5.0038
 31
0.0000
  0
LINE
  8
51
 10
62.5610
 20
-5.0038
 30
0.0000
 11
63.3745
 21
-5.0038
 31
0.0000
  0
LINE
  8
51
 10
63.3745
 20
-5.0038
 30
0.0000
 11
63.6457
 21
-4.7326
 31
0.0000
  0
LINE
  8
51
 10
63.6457
 20
-4.7326
 30
0.0000
 11
63.6457
 21
-4.1903
 31
0.0000
  0
LINE
  8
51
 10
63.6457
 20
-4.1903
 30
0.0000
 11
63.3745
 21
-3.9191
 31
0.0000
  0
LINE
  8
51
 10
63.3745
 20
-3.9191
 30
0.0000
 11
62.5610
 21
-3.9191
 31
0.0000
  0
LINE
  8
51
 10
64.1982
 20
-3.9191
 30
0.0000
 11
64.1982
 21
-4.7326
 31
0.0000
  0
LINE
  8
51
 10
64.1982
 20
-4.7326
 30
0.0000
 11
64.4693
 21
-5.0038
 31
0.0000
  0
LINE
  8
51
 10
64.4693
 20
-5.0038
 30
0.0000
 11
65.2828
 21
-5.0038
 31
0.0000
  0
LINE
  8
51
 10
65.2828
 20
-5.0038
 30
0.0000
 11
65.2828
 21
-3.9191
 31
0.0000
  0
LINE
  8
51
 10
66.1065
 20
-3.6480
 30
0.0000
 11
66.1065
 21
-4.7326
 31
0.0000
  0
LINE
  8
51
 10
66.1065
 20
-4.7326
 30
0.0000
 11
66.3776
 21
-5.0038
 31
0.0000
  0
LINE
  8
51
 10
65.8353
 20
-3.9191
 30
0.0000
 11
66.3776
 21
-3.9191
 31
0.0000
  0
LINE
  8
51
 10
66.9267
 20
-3.9191
 30
0.0000
 11
67.1979
 21
-3.9191
 31
0.0000
  0
LINE
  8
51
 10
67.1979
 20
-3.9191
 30
0.0000
 11
67.1979
 21
-5.0038
 31
0.0000
  0
LINE
  8
51
 10
66.9267
 20
-5.0038
 30
0.0000
 11
67.4691
 21
-5.0038
 31
0.0000
  0
LINE
  8
51
 10
67.1979
 20
-3.1056
 30
0.0000
 11
67.1979
 21
-3.3768
 31
0.0000
  0
LINE
  8
51
 10
68.2893
 20
-5.0038
 30
0.0000
 11
68.8317
 21
-5.0038
 31
0.0000
  0
LINE
  8
51
 10
68.8317
 20
-5.0038
 30
0.0000
 11
69.1028
 21
-4.7326
 31
0.0000
  0
LINE
  8
51
 10
69.1028
 20
-4.7326
 30
0.0000
 11
69.1028
 21
-4.1903
 31
0.0000
  0
LINE
  8
51
 10
69.1028
 20
-4.1903
 30
0.0000
 11
68.8317
 21
-3.9191
 31
0.0000
  0
LINE
  8
51
 10
68.8317
 20
-3.9191
 30
0.0000
 11
68.2893
 21
-3.9191
 31
0.0000
  0
LINE
  8
51
 10
68.2893
 20
-3.9191
 30
0.0000
 11
68.0182
 21
-4.1903
 31
0.0000
  0
LINE
  8
51
 10
68.0182
 20
-4.1903
 30
0.0000
 11
68.0182
 21
-4.7326
 31
0.0000
  0
LINE
  8
51
 10
68.0182
 20
-4.7326
 30
0.0000
 11
68.2893
 21
-5.0038
 31
0.0000
  0
LINE
  8
51
 10
69.6553
 20
-5.0038
 30
0.0000
 11
69.6553
 21
-3.9191
 31
0.0000
  0
LINE
  8
51
 10
69.6553
 20
-3.9191
 30
0.0000
 11
70.4688
 21
-3.9191
 31
0.0000
  0
LINE
  8
51
 10
70.4688
 20
-3.9191
 30
0.0000
 11
70.7400
 21
-4.1903
 31
0.0000
  0
LINE
  8
51
 10
70.7400
 20
-4.1903
 30
0.0000
 11
70.7400
 21
-5.0038
 31
0.0000
  0
LINE
  8
51
 10
74.0143
 20
-3.6480
 30
0.0000
 11
73.7431
 21
-3.3768
 31
0.0000
  0
LINE
  8
51
 10
73.7431
 20
-3.3768
 30
0.0000
 11
73.2008
 21
-3.3768
 31
0.0000
  0
LINE
  8
51
 10
73.2008
 20
-3.3768
 30
0.0000
 11
72.9297
 21
-3.6480
 31
0.0000
  0
LINE
  8
51
 10
72.9297
 20
-3.6480
 30
0.0000
 11
72.9297
 21
-3.9191
 31
0.0000
  0
LINE
  8
51
 10
72.9297
 20
-3.9191
 30
0.0000
 11
73.2008
 21
-4.1903
 31
0.0000
  0
LINE
  8
51
 10
73.2008
 20
-4.1903
 30
0.0000
 11
73.7431
 21
-4.1903
 31
0.0000
  0
LINE
  8
51
 10
73.7431
 20
-4.1903
 30
0.0000
 11
74.0143
 21
-4.4615
 31
0.0000
  0
LINE
  8
51
 10
74.0143
 20
-4.4615
 30
0.0000
 11
74.0143
 21
-4.7326
 31
0.0000
  0
LINE
  8
51
 10
74.0143
 20
-4.7326
 30
0.0000
 11
73.7431
 21
-5.0038
 31
0.0000
  0
LINE
  8
51
 10
73.7431
 20
-5.0038
 30
0.0000
 11
73.2008
 21
-5.0038
 31
0.0000
  0
LINE
  8
51
 10
73.2008
 20
-5.0038
 30
0.0000
 11
72.9297
 21
-4.7326
 31
0.0000
  0
LINE
  8
51
 10
74.5668
 20
-3.3768
 30
0.0000
 11
74.5668
 21
-5.0038
 31
0.0000
  0
LINE
  8
51
 10
74.5668
 20
-4.1903
 30
0.0000
 11
74.8380
 21
-3.9191
 31
0.0000
  0
LINE
  8
51
 10
74.8380
 20
-3.9191
 30
0.0000
 11
75.3803
 21
-3.9191
 31
0.0000
  0
LINE
  8
51
 10
75.3803
 20
-3.9191
 30
0.0000
 11
75.6515
 21
-4.1903
 31
0.0000
  0
LINE
  8
51
 10
75.6515
 20
-4.1903
 30
0.0000
 11
75.6515
 21
-5.0038
 31
0.0000
  0
LINE
  8
51
 10
76.4751
 20
-3.9191
 30
0.0000
 11
77.0175
 21
-3.9191
 31
0.0000
  0
LINE
  8
51
 10
77.0175
 20
-3.9191
 30
0.0000
 11
77.2886
 21
-4.1903
 31
0.0000
  0
LINE
  8
51
 10
77.2886
 20
-4.1903
 30
0.0000
 11
77.2886
 21
-5.0038
 31
0.0000
  0
LINE
  8
51
 10
77.2886
 20
-5.0038
 30
0.0000
 11
76.4751
 21
-5.0038
 31
0.0000
  0
LINE
  8
51
 10
76.4751
 20
-5.0038
 30
0.0000
 11
76.2040
 21
-4.7326
 31
0.0000
  0
LINE
  8
51
 10
76.2040
 20
-4.7326
 30
0.0000
 11
76.4751
 21
-4.4615
 31
0.0000
  0
LINE
  8
51
 10
76.4751
 20
-4.4615
 30
0.0000
 11
77.2886
 21
-4.4615
 31
0.0000
  0
LINE
  8
51
 10
77.8411
 20
-5.0038
 30
0.0000
 11
77.8411
 21
-3.9191
 31
0.0000
  0
LINE
  8
51
 10
77.8411
 20
-4.4615
 30
0.0000
 11
78.3835
 21
-3.9191
 31
0.0000
  0
LINE
  8
51
 10
78.3835
 20
-3.9191
 30
0.0000
 11
78.6546
 21
-3.9191
 31
0.0000
  0
LINE
  8
51
 10
80.0189
 20
-5.0038
 30
0.0000
 11
79.4766
 21
-5.0038
 31
0.0000
  0
LINE
  8
51
 10
79.4766
 20
-5.0038
 30
0.0000
 11
79.2054
 21
-4.7326
 31
0.0000
  0
LINE
  8
51
 10
79.2054
 20
-4.7326
 30
0.0000
 11
79.2054
 21
-4.1903
 31
0.0000
  0
LINE
  8
51
 10
79.2054
 20
-4.1903
 30
0.0000
 11
79.4766
 21
-3.9191
 31
0.0000
  0
LINE
  8
51
 10
79.4766
 20
-3.9191
 30
0.0000
 11
80.0189
 21
-3.9191
 31
0.0000
  0
LINE
  8
51
 10
80.0189
 20
-3.9191
 30
0.0000
 11
80.2901
 21
-4.1903
 31
0.0000
  0
LINE
  8
51
 10
80.2901
 20
-4.1903
 30
0.0000
 11
80.2901
 21
-4.4615
 31
0.0000
  0
LINE
  8
51
 10
80.2901
 20
-4.4615
 30
0.0000
 11
79.2054
 21
-4.4615
 31
0.0000
  0
LINE
  8
51
 10
80.8426
 20
-4.1903
 30
0.0000
 11
81.9272
 21
-4.1903
 31
0.0000
  0
LINE
  8
51
 10
82.4797
 20
-5.0038
 30
0.0000
 11
82.4797
 21
-3.9191
 31
0.0000
  0
LINE
  8
51
 10
82.4797
 20
-3.9191
 30
0.0000
 11
83.0221
 21
-3.3768
 31
0.0000
  0
LINE
  8
51
 10
83.0221
 20
-3.3768
 30
0.0000
 11
83.5644
 21
-3.9191
 31
0.0000
  0
LINE
  8
51
 10
83.5644
 20
-3.9191
 30
0.0000
 11
83.5644
 21
-5.0038
 31
0.0000
  0
LINE
  8
51
 10
82.4797
 20
-4.1903
 30
0.0000
 11
83.5644
 21
-4.1903
 31
0.0000
  0
LINE
  8
51
 10
84.1169
 20
-3.3768
 30
0.0000
 11
84.3881
 21
-3.3768
 31
0.0000
  0
LINE
  8
51
 10
84.3881
 20
-3.3768
 30
0.0000
 11
84.3881
 21
-5.0038
 31
0.0000
  0
LINE
  8
51
 10
84.1169
 20
-5.0038
 30
0.0000
 11
84.6592
 21
-5.0038
 31
0.0000
  0
LINE
  8
51
 10
85.2083
 20
-3.9191
 30
0.0000
 11
85.4795
 21
-3.9191
 31
0.0000
  0
LINE
  8
51
 10
85.4795
 20
-3.9191
 30
0.0000
 11
85.4795
 21
-5.0038
 31
0.0000
  0
LINE
  8
51
 10
85.2083
 20
-5.0038
 30
0.0000
 11
85.7507
 21
-5.0038
 31
0.0000
  0
LINE
  8
51
 10
85.4795
 20
-3.1056
 30
0.0000
 11
85.4795
 21
-3.3768
 31
0.0000
  0
LINE
  8
51
 10
86.2998
 20
-5.0038
 30
0.0000
 11
86.2998
 21
-3.3768
 31
0.0000
  0
LINE
  8
51
 10
87.1133
 20
-5.0038
 30
0.0000
 11
86.2998
 21
-4.4615
 31
0.0000
  0
LINE
  8
51
 10
86.2998
 20
-4.4615
 30
0.0000
 11
87.1133
 21
-3.9191
 31
0.0000
  0
LINE
  8
51
 10
88.4776
 20
-5.0038
 30
0.0000
 11
87.9352
 21
-5.0038
 31
0.0000
  0
LINE
  8
51
 10
87.9352
 20
-5.0038
 30
0.0000
 11
87.6641
 21
-4.7326
 31
0.0000
  0
LINE
  8
51
 10
87.6641
 20
-4.7326
 30
0.0000
 11
87.6641
 21
-4.1903
 31
0.0000
  0
LINE
  8
51
 10
87.6641
 20
-4.1903
 30
0.0000
 11
87.9352
 21
-3.9191
 31
0.0000
  0
LINE
  8
51
 10
87.9352
 20
-3.9191
 30
0.0000
 11
88.4776
 21
-3.9191
 31
0.0000
  0
LINE
  8
51
 10
88.4776
 20
-3.9191
 30
0.0000
 11
88.7487
 21
-4.1903
 31
0.0000
  0
LINE
  8
51
 10
88.7487
 20
-4.1903
 30
0.0000
 11
88.7487
 21
-4.4615
 31
0.0000
  0
LINE
  8
51
 10
88.7487
 20
-4.4615
 30
0.0000
 11
87.6641
 21
-4.4615
 31
0.0000
  0
LINE
  8
51
 10
91.7519
 20
-5.0038
 30
0.0000
 11
91.7519
 21
-3.3768
 31
0.0000
  0
LINE
  8
51
 10
91.7519
 20
-3.3768
 30
0.0000
 11
90.9384
 21
-4.1903
 31
0.0000
  0
LINE
  8
51
 10
90.9384
 20
-4.1903
 30
0.0000
 11
92.0230
 21
-4.1903
 31
0.0000
  0
LINE
  8
51
 10
92.5755
 20
-5.0038
 30
0.0000
 11
92.5755
 21
-4.7326
 31
0.0000
  0
LINE
  8
51
 10
92.5755
 20
-4.7326
 30
0.0000
 11
92.8467
 21
-4.7326
 31
0.0000
  0
LINE
  8
51
 10
92.8467
 20
-4.7326
 30
0.0000
 11
92.8467
 21
-5.0038
 31
0.0000
  0
LINE
  8
51
 10
92.8467
 20
-5.0038
 30
0.0000
 11
92.5755
 21
-5.0038
 31
0.0000
  0
LINE
  8
51
 10
93.3941
 20
-4.7326
 30
0.0000
 11
93.3941
 21
-3.6480
 31
0.0000
  0
LINE
  8
51
 10
93.3941
 20
-3.6480
 30
0.0000
 11
93.6653
 21
-3.3768
 31
0.0000
  0
LINE
  8
51
 10
93.6653
 20
-3.3768
 30
0.0000
 11
94.2076
 21
-3.3768
 31
0.0000
  0
LINE
  8
51
 10
94.2076
 20
-3.3768
 30
0.0000
 11
94.4788
 21
-3.6480
 31
0.0000
  0
LINE
  8
51
 10
94.4788
 20
-3.6480
 30
0.0000
 11
94.4788
 21
-4.7326
 31
0.0000
  0
LINE
  8
51
 10
94.4788
 20
-4.7326
 30
0.0000
 11
94.2076
 21
-5.0038
 31
0.0000
  0
LINE
  8
51
 10
94.2076
 20
-5.0038
 30
0.0000
 11
93.6653
 21
-5.0038
 31
0.0000
  0
LINE
  8
51
 10
93.6653
 20
-5.0038
 30
0.0000
 11
93.3941
 21
-4.7326
 31
0.0000
  0
LINE
  8
51
 10
93.3941
 20
-4.7326
 30
0.0000
 11
94.4788
 21
-3.6480
 31
0.0000
  0
LINE
  8
51
 10
96.6684
 20
-3.3768
 30
0.0000
 11
96.6684
 21
-5.0038
 31
0.0000
  0
LINE
  8
51
 10
96.6684
 20
-5.0038
 30
0.0000
 11
97.7531
 21
-5.0038
 31
0.0000
  0
LINE
  8
51
 10
98.3056
 20
-3.9191
 30
0.0000
 11
98.5767
 21
-3.9191
 31
0.0000
  0
LINE
  8
51
 10
98.5767
 20
-3.9191
 30
0.0000
 11
98.5767
 21
-5.0038
 31
0.0000
  0
LINE
  8
51
 10
98.3056
 20
-5.0038
 30
0.0000
 11
98.8479
 21
-5.0038
 31
0.0000
  0
LINE
  8
51
 10
98.5767
 20
-3.1056
 30
0.0000
 11
98.5767
 21
-3.3768
 31
0.0000
  0
LINE
  8
51
 10
100.4817
 20
-3.9191
 30
0.0000
 11
99.6682
 21
-3.9191
 31
0.0000
  0
LINE
  8
51
 10
99.6682
 20
-3.9191
 30
0.0000
 11
99.3970
 21
-4.1903
 31
0.0000
  0
LINE
  8
51
 10
99.3970
 20
-4.1903
 30
0.0000
 11
99.3970
 21
-4.7326
 31
0.0000
  0
LINE
  8
51
 10
99.3970
 20
-4.7326
 30
0.0000
 11
99.6682
 21
-5.0038
 31
0.0000
  0
LINE
  8
51
 10
99.6682
 20
-5.0038
 30
0.0000
 11
100.4817
 21
-5.0038
 31
0.0000
  0
LINE
  8
51
 10
101.8477
 20
-5.0038
 30
0.0000
 11
101.3053
 21
-5.0038
 31
0.0000
  0
LINE
  8
51
 10
101.3053
 20
-5.0038
 30
0.0000
 11
101.0342
 21
-4.7326
 31
0.0000
  0
LINE
  8
51
 10
101.0342
 20
-4.7326
 30
0.0000
 11
101.0342
 21
-4.1903
 31
0.0000
  0
LINE
  8
51
 10
101.0342
 20
-4.1903
 30
0.0000
 11
101.3053
 21
-3.9191
 31
0.0000
  0
LINE
  8
51
 10
101.3053
 20
-3.9191
 30
0.0000
 11
101.8477
 21
-3.9191
 31
0.0000
  0
LINE
  8
51
 10
101.8477
 20
-3.9191
 30
0.0000
 11
102.1188
 21
-4.1903
 31
0.0000
  0
LINE
  8
51
 10
102.1188
 20
-4.1903
 30
0.0000
 11
102.1188
 21
-4.4615
 31
0.0000
  0
LINE
  8
51
 10
102.1188
 20
-4.4615
 30
0.0000
 11
101.0342
 21
-4.4615
 31
0.0000
  0
LINE
  8
51
 10
102.6713
 20
-5.0038
 30
0.0000
 11
102.6713
 21
-3.9191
 31
0.0000
  0
LINE
  8
51
 10
102.6713
 20
-3.9191
 30
0.0000
 11
103.4848
 21
-3.9191
 31
0.0000
  0
LINE
  8
51
 10
103.4848
 20
-3.9191
 30
0.0000
 11
103.7560
 21
-4.1903
 31
0.0000
  0
LINE
  8
51
 10
103.7560
 20
-4.1903
 30
0.0000
 11
103.7560
 21
-5.0038
 31
0.0000
  0
LINE
  8
51
 10
104.3085
 20
-5.0038
 30
0.0000
 11
105.1220
 21
-5.0038
 31
0.0000
  0
LINE
  8
51
 10
105.1220
 20
-5.0038
 30
0.0000
 11
105.3931
 21
-4.7326
 31
0.0000
  0
LINE
  8
51
 10
105.3931
 20
-4.7326
 30
0.0000
 11
105.1220
 21
-4.4615
 31
0.0000
  0
LINE
  8
51
 10
105.1220
 20
-4.4615
 30
0.0000
 11
104.5796
 21
-4.4615
 31
0.0000
  0
LINE
  8
51
 10
104.5796
 20
-4.4615
 30
0.0000
 11
104.3085
 21
-4.1903
 31
0.0000
  0
LINE
  8
51
 10
104.3085
 20
-4.1903
 30
0.0000
 11
104.5796
 21
-3.9191
 31
0.0000
  0
LINE
  8
51
 10
104.5796
 20
-3.9191
 30
0.0000
 11
105.3931
 21
-3.9191
 31
0.0000
  0
LINE
  8
51
 10
106.7591
 20
-5.0038
 30
0.0000
 11
106.2168
 21
-5.0038
 31
0.0000
  0
LINE
  8
51
 10
106.2168
 20
-5.0038
 30
0.0000
 11
105.9456
 21
-4.7326
 31
0.0000
  0
LINE
  8
51
 10
105.9456
 20
-4.7326
 30
0.0000
 11
105.9456
 21
-4.1903
 31
0.0000
  0
LINE
  8
51
 10
105.9456
 20
-4.1903
 30
0.0000
 11
106.2168
 21
-3.9191
 31
0.0000
  0
LINE
  8
51
 10
106.2168
 20
-3.9191
 30
0.0000
 11
106.7591
 21
-3.9191
 31
0.0000
  0
LINE
  8
51
 10
106.7591
 20
-3.9191
 30
0.0000
 11
107.0303
 21
-4.1903
 31
0.0000
  0
LINE
  8
51
 10
107.0303
 20
-4.1903
 30
0.0000
 11
107.0303
 21
-4.4615
 31
0.0000
  0
LINE
  8
51
 10
107.0303
 20
-4.4615
 30
0.0000
 11
105.9456
 21
-4.4615
 31
0.0000
  0
LINE
  8
51
 10
22.0334
 20
-5.9168
 30
0.0000
 11
22.0334
 21
-7.5438
 31
0.0000
  0
LINE
  8
51
 10
22.0334
 20
-6.7303
 30
0.0000
 11
22.3045
 21
-6.4591
 31
0.0000
  0
LINE
  8
51
 10
22.3045
 20
-6.4591
 30
0.0000
 11
22.8468
 21
-6.4591
 31
0.0000
  0
LINE
  8
51
 10
22.8468
 20
-6.4591
 30
0.0000
 11
23.1180
 21
-6.7303
 31
0.0000
  0
LINE
  8
51
 10
23.1180
 20
-6.7303
 30
0.0000
 11
23.1180
 21
-7.5438
 31
0.0000
  0
LINE
  8
51
 10
23.9417
 20
-6.1880
 30
0.0000
 11
23.9417
 21
-7.2726
 31
0.0000
  0
LINE
  8
51
 10
23.9417
 20
-7.2726
 30
0.0000
 11
24.2128
 21
-7.5438
 31
0.0000
  0
LINE
  8
51
 10
23.6705
 20
-6.4591
 30
0.0000
 11
24.2128
 21
-6.4591
 31
0.0000
  0
LINE
  8
51
 10
25.0331
 20
-6.1880
 30
0.0000
 11
25.0331
 21
-7.2726
 31
0.0000
  0
LINE
  8
51
 10
25.0331
 20
-7.2726
 30
0.0000
 11
25.3043
 21
-7.5438
 31
0.0000
  0
LINE
  8
51
 10
24.7620
 20
-6.4591
 30
0.0000
 11
25.3043
 21
-6.4591
 31
0.0000
  0
LINE
  8
51
 10
25.8534
 20
-8.0861
 30
0.0000
 11
25.8534
 21
-6.4591
 31
0.0000
  0
LINE
  8
51
 10
25.8534
 20
-6.4591
 30
0.0000
 11
26.6669
 21
-6.4591
 31
0.0000
  0
LINE
  8
51
 10
26.6669
 20
-6.4591
 30
0.0000
 11
26.9380
 21
-6.7303
 31
0.0000
  0
LINE
  8
51
 10
26.9380
 20
-6.7303
 30
0.0000
 11
26.9380
 21
-7.2726
 31
0.0000
  0
LINE
  8
51
 10
26.9380
 20
-7.2726
 30
0.0000
 11
26.6669
 21
-7.5438
 31
0.0000
  0
LINE
  8
51
 10
26.6669
 20
-7.5438
 30
0.0000
 11
25.8534
 21
-7.5438
 31
0.0000
  0
LINE
  8
51
 10
27.4905
 20
-7.5438
 30
0.0000
 11
28.3040
 21
-7.5438
 31
0.0000
  0
LINE
  8
51
 10
28.3040
 20
-7.5438
 30
0.0000
 11
28.5752
 21
-7.2726
 31
0.0000
  0
LINE
  8
51
 10
28.5752
 20
-7.2726
 30
0.0000
 11
28.3040
 21
-7.0015
 31
0.0000
  0
LINE
  8
51
 10
28.3040
 20
-7.0015
 30
0.0000
 11
27.7617
 21
-7.0015
 31
0.0000
  0
LINE
  8
51
 10
27.7617
 20
-7.0015
 30
0.0000
 11
27.4905
 21
-6.7303
 31
0.0000
  0
LINE
  8
51
 10
27.4905
 20
-6.7303
 30
0.0000
 11
27.7617
 21
-6.4591
 31
0.0000
  0
LINE
  8
51
 10
27.7617
 20
-6.4591
 30
0.0000
 11
28.5752
 21
-6.4591
 31
0.0000
  0
LINE
  8
51
 10
29.1277
 20
-6.4591
 30
0.0000
 11
29.3989
 21
-6.4591
 31
0.0000
  0
LINE
  8
51
 10
29.3989
 20
-6.4591
 30
0.0000
 11
29.3989
 21
-6.7303
 31
0.0000
  0
LINE
  8
51
 10
29.3989
 20
-6.7303
 30
0.0000
 11
29.1277
 21
-6.7303
 31
0.0000
  0
LINE
  8
51
 10
29.1277
 20
-6.7303
 30
0.0000
 11
29.1277
 21
-6.4591
 31
0.0000
  0
LINE
  8
51
 10
29.1277
 20
-7.2726
 30
0.0000
 11
29.3989
 21
-7.2726
 31
0.0000
  0
LINE
  8
51
 10
29.3989
 20
-7.2726
 30
0.0000
 11
29.3989
 21
-7.5438
 31
0.0000
  0
LINE
  8
51
 10
29.3989
 20
-7.5438
 30
0.0000
 11
29.1277
 21
-7.5438
 31
0.0000
  0
LINE
  8
51
 10
29.1277
 20
-7.5438
 30
0.0000
 11
29.1277
 21
-7.2726
 31
0.0000
  0
LINE
  8
51
 10
29.9463
 20
-7.5438
 30
0.0000
 11
31.0309
 21
-5.9168
 31
0.0000
  0
LINE
  8
51
 10
31.5834
 20
-7.5438
 30
0.0000
 11
32.6681
 21
-5.9168
 31
0.0000
  0
LINE
  8
51
 10
34.3053
 20
-6.4591
 30
0.0000
 11
33.4918
 21
-6.4591
 31
0.0000
  0
LINE
  8
51
 10
33.4918
 20
-6.4591
 30
0.0000
 11
33.2206
 21
-6.7303
 31
0.0000
  0
LINE
  8
51
 10
33.2206
 20
-6.7303
 30
0.0000
 11
33.2206
 21
-7.2726
 31
0.0000
  0
LINE
  8
51
 10
33.2206
 20
-7.2726
 30
0.0000
 11
33.4918
 21
-7.5438
 31
0.0000
  0
LINE
  8
51
 10
33.4918
 20
-7.5438
 30
0.0000
 11
34.3053
 21
-7.5438
 31
0.0000
  0
LINE
  8
51
 10
34.8577
 20
-7.5438
 30
0.0000
 11
34.8577
 21
-6.4591
 31
0.0000
  0
LINE
  8
51
 10
34.8577
 20
-7.0015
 30
0.0000
 11
35.4001
 21
-6.4591
 31
0.0000
  0
LINE
  8
51
 10
35.4001
 20
-6.4591
 30
0.0000
 11
35.6712
 21
-6.4591
 31
0.0000
  0
LINE
  8
51
 10
37.0355
 20
-7.5438
 30
0.0000
 11
36.4932
 21
-7.5438
 31
0.0000
  0
LINE
  8
51
 10
36.4932
 20
-7.5438
 30
0.0000
 11
36.2220
 21
-7.2726
 31
0.0000
  0
LINE
  8
51
 10
36.2220
 20
-7.2726
 30
0.0000
 11
36.2220
 21
-6.7303
 31
0.0000
  0
LINE
  8
51
 10
36.2220
 20
-6.7303
 30
0.0000
 11
36.4932
 21
-6.4591
 31
0.0000
  0
LINE
  8
51
 10
36.4932
 20
-6.4591
 30
0.0000
 11
37.0355
 21
-6.4591
 31
0.0000
  0
LINE
  8
51
 10
37.0355
 20
-6.4591
 30
0.0000
 11
37.3067
 21
-6.7303
 31
0.0000
  0
LINE
  8
51
 10
37.3067
 20
-6.7303
 30
0.0000
 11
37.3067
 21
-7.0015
 31
0.0000
  0
LINE
  8
51
 10
37.3067
 20
-7.0015
 30
0.0000
 11
36.2220
 21
-7.0015
 31
0.0000
  0
LINE
  8
51
 10
38.1304
 20
-6.4591
 30
0.0000
 11
38.6727
 21
-6.4591
 31
0.0000
  0
LINE
  8
51
 10
38.6727
 20
-6.4591
 30
0.0000
 11
38.9439
 21
-6.7303
 31
0.0000
  0
LINE
  8
51
 10
38.9439
 20
-6.7303
 30
0.0000
 11
38.9439
 21
-7.5438
 31
0.0000
  0
LINE
  8
51
 10
38.9439
 20
-7.5438
 30
0.0000
 11
38.1304
 21
-7.5438
 31
0.0000
  0
LINE
  8
51
 10
38.1304
 20
-7.5438
 30
0.0000
 11
37.8592
 21
-7.2726
 31
0.0000
  0
LINE
  8
51
 10
37.8592
 20
-7.2726
 30
0.0000
 11
38.1304
 21
-7.0015
 31
0.0000
  0
LINE
  8
51
 10
38.1304
 20
-7.0015
 30
0.0000
 11
38.9439
 21
-7.0015
 31
0.0000
  0
LINE
  8
51
 10
39.7675
 20
-6.1880
 30
0.0000
 11
39.7675
 21
-7.2726
 31
0.0000
  0
LINE
  8
51
 10
39.7675
 20
-7.2726
 30
0.0000
 11
40.0387
 21
-7.5438
 31
0.0000
  0
LINE
  8
51
 10
39.4964
 20
-6.4591
 30
0.0000
 11
40.0387
 21
-6.4591
 31
0.0000
  0
LINE
  8
51
 10
40.5878
 20
-6.4591
 30
0.0000
 11
40.8590
 21
-6.4591
 31
0.0000
  0
LINE
  8
51
 10
40.8590
 20
-6.4591
 30
0.0000
 11
40.8590
 21
-7.5438
 31
0.0000
  0
LINE
  8
51
 10
40.5878
 20
-7.5438
 30
0.0000
 11
41.1301
 21
-7.5438
 31
0.0000
  0
LINE
  8
51
 10
40.8590
 20
-5.6456
 30
0.0000
 11
40.8590
 21
-5.9168
 31
0.0000
  0
LINE
  8
51
 10
41.6792
 20
-6.4591
 30
0.0000
 11
42.2216
 21
-7.5438
 31
0.0000
  0
LINE
  8
51
 10
42.2216
 20
-7.5438
 30
0.0000
 11
42.7639
 21
-6.4591
 31
0.0000
  0
LINE
  8
51
 10
44.1299
 20
-7.5438
 30
0.0000
 11
43.5876
 21
-7.5438
 31
0.0000
  0
LINE
  8
51
 10
43.5876
 20
-7.5438
 30
0.0000
 11
43.3164
 21
-7.2726
 31
0.0000
  0
LINE
  8
51
 10
43.3164
 20
-7.2726
 30
0.0000
 11
43.3164
 21
-6.7303
 31
0.0000
  0
LINE
  8
51
 10
43.3164
 20
-6.7303
 30
0.0000
 11
43.5876
 21
-6.4591
 31
0.0000
  0
LINE
  8
51
 10
43.5876
 20
-6.4591
 30
0.0000
 11
44.1299
 21
-6.4591
 31
0.0000
  0
LINE
  8
51
 10
44.1299
 20
-6.4591
 30
0.0000
 11
44.4010
 21
-6.7303
 31
0.0000
  0
LINE
  8
51
 10
44.4010
 20
-6.7303
 30
0.0000
 11
44.4010
 21
-7.0015
 31
0.0000
  0
LINE
  8
51
 10
44.4010
 20
-7.0015
 30
0.0000
 11
43.3164
 21
-7.0015
 31
0.0000
  0
LINE
  8
51
 10
46.0382
 20
-6.4591
 30
0.0000
 11
45.2247
 21
-6.4591
 31
0.0000
  0
LINE
  8
51
 10
45.2247
 20
-6.4591
 30
0.0000
 11
44.9535
 21
-6.7303
 31
0.0000
  0
LINE
  8
51
 10
44.9535
 20
-6.7303
 30
0.0000
 11
44.9535
 21
-7.2726
 31
0.0000
  0
LINE
  8
51
 10
44.9535
 20
-7.2726
 30
0.0000
 11
45.2247
 21
-7.5438
 31
0.0000
  0
LINE
  8
51
 10
45.2247
 20
-7.5438
 30
0.0000
 11
46.0382
 21
-7.5438
 31
0.0000
  0
LINE
  8
51
 10
46.8619
 20
-7.5438
 30
0.0000
 11
47.4042
 21
-7.5438
 31
0.0000
  0
LINE
  8
51
 10
47.4042
 20
-7.5438
 30
0.0000
 11
47.6754
 21
-7.2726
 31
0.0000
  0
LINE
  8
51
 10
47.6754
 20
-7.2726
 30
0.0000
 11
47.6754
 21
-6.7303
 31
0.0000
  0
LINE
  8
51
 10
47.6754
 20
-6.7303
 30
0.0000
 11
47.4042
 21
-6.4591
 31
0.0000
  0
LINE
  8
51
 10
47.4042
 20
-6.4591
 30
0.0000
 11
46.8619
 21
-6.4591
 31
0.0000
  0
LINE
  8
51
 10
46.8619
 20
-6.4591
 30
0.0000
 11
46.5907
 21
-6.7303
 31
0.0000
  0
LINE
  8
51
 10
46.5907
 20
-6.7303
 30
0.0000
 11
46.5907
 21
-7.2726
 31
0.0000
  0
LINE
  8
51
 10
46.5907
 20
-7.2726
 30
0.0000
 11
46.8619
 21
-7.5438
 31
0.0000
  0
LINE
  8
51
 10
48.2279
 20
-7.5438
 30
0.0000
 11
48.2279
 21
-6.4591
 31
0.0000
  0
LINE
  8
51
 10
48.2279
 20
-6.4591
 30
0.0000
 11
48.4990
 21
-6.4591
 31
0.0000
  0
LINE
  8
51
 10
48.4990
 20
-6.4591
 30
0.0000
 11
48.7702
 21
-6.7303
 31
0.0000
  0
LINE
  8
51
 10
48.7702
 20
-6.7303
 30
0.0000
 11
48.7702
 21
-7.5438
 31
0.0000
  0
LINE
  8
51
 10
48.7702
 20
-6.7303
 30
0.0000
 11
49.0414
 21
-6.4591
 31
0.0000
  0
LINE
  8
51
 10
49.0414
 20
-6.4591
 30
0.0000
 11
49.3125
 21
-6.7303
 31
0.0000
  0
LINE
  8
51
 10
49.3125
 20
-6.7303
 30
0.0000
 11
49.3125
 21
-7.5438
 31
0.0000
  0
LINE
  8
51
 10
49.8650
 20
-7.5438
 30
0.0000
 11
49.8650
 21
-6.4591
 31
0.0000
  0
LINE
  8
51
 10
49.8650
 20
-6.4591
 30
0.0000
 11
50.1362
 21
-6.4591
 31
0.0000
  0
LINE
  8
51
 10
50.1362
 20
-6.4591
 30
0.0000
 11
50.4073
 21
-6.7303
 31
0.0000
  0
LINE
  8
51
 10
50.4073
 20
-6.7303
 30
0.0000
 11
50.4073
 21
-7.5438
 31
0.0000
  0
LINE
  8
51
 10
50.4073
 20
-6.7303
 30
0.0000
 11
50.6785
 21
-6.4591
 31
0.0000
  0
LINE
  8
51
 10
50.6785
 20
-6.4591
 30
0.0000
 11
50.9497
 21
-6.7303
 31
0.0000
  0
LINE
  8
51
 10
50.9497
 20
-6.7303
 30
0.0000
 11
50.9497
 21
-7.5438
 31
0.0000
  0
LINE
  8
51
 10
51.7733
 20
-7.5438
 30
0.0000
 11
52.3157
 21
-7.5438
 31
0.0000
  0
LINE
  8
51
 10
52.3157
 20
-7.5438
 30
0.0000
 11
52.5868
 21
-7.2726
 31
0.0000
  0
LINE
  8
51
 10
52.5868
 20
-7.2726
 30
0.0000
 11
52.5868
 21
-6.7303
 31
0.0000
  0
LINE
  8
51
 10
52.5868
 20
-6.7303
 30
0.0000
 11
52.3157
 21
-6.4591
 31
0.0000
  0
LINE
  8
51
 10
52.3157
 20
-6.4591
 30
0.0000
 11
51.7733
 21
-6.4591
 31
0.0000
  0
LINE
  8
51
 10
51.7733
 20
-6.4591
 30
0.0000
 11
51.5022
 21
-6.7303
 31
0.0000
  0
LINE
  8
51
 10
51.5022
 20
-6.7303
 30
0.0000
 11
51.5022
 21
-7.2726
 31
0.0000
  0
LINE
  8
51
 10
51.5022
 20
-7.2726
 30
0.0000
 11
51.7733
 21
-7.5438
 31
0.0000
  0
LINE
  8
51
 10
53.1393
 20
-7.5438
 30
0.0000
 11
53.1393
 21
-6.4591
 31
0.0000
  0
LINE
  8
51
 10
53.1393
 20
-6.4591
 30
0.0000
 11
53.9528
 21
-6.4591
 31
0.0000
  0
LINE
  8
51
 10
53.9528
 20
-6.4591
 30
0.0000
 11
54.2240
 21
-6.7303
 31
0.0000
  0
LINE
  8
51
 10
54.2240
 20
-6.7303
 30
0.0000
 11
54.2240
 21
-7.5438
 31
0.0000
  0
LINE
  8
51
 10
54.7765
 20
-7.5438
 30
0.0000
 11
55.5900
 21
-7.5438
 31
0.0000
  0
LINE
  8
51
 10
55.5900
 20
-7.5438
 30
0.0000
 11
55.8611
 21
-7.2726
 31
0.0000
  0
LINE
  8
51
 10
55.8611
 20
-7.2726
 30
0.0000
 11
55.5900
 21
-7.0015
 31
0.0000
  0
LINE
  8
51
 10
55.5900
 20
-7.0015
 30
0.0000
 11
55.0476
 21
-7.0015
 31
0.0000
  0
LINE
  8
51
 10
55.0476
 20
-7.0015
 30
0.0000
 11
54.7765
 21
-6.7303
 31
0.0000
  0
LINE
  8
51
 10
54.7765
 20
-6.7303
 30
0.0000
 11
55.0476
 21
-6.4591
 31
0.0000
  0
LINE
  8
51
 10
55.0476
 20
-6.4591
 30
0.0000
 11
55.8611
 21
-6.4591
 31
0.0000
  0
LINE
  8
51
 10
56.4136
 20
-7.5438
 30
0.0000
 11
56.4136
 21
-7.2726
 31
0.0000
  0
LINE
  8
51
 10
56.4136
 20
-7.2726
 30
0.0000
 11
56.6848
 21
-7.2726
 31
0.0000
  0
LINE
  8
51
 10
56.6848
 20
-7.2726
 30
0.0000
 11
56.6848
 21
-7.5438
 31
0.0000
  0
LINE
  8
51
 10
56.6848
 20
-7.5438
 30
0.0000
 11
56.4136
 21
-7.5438
 31
0.0000
  0
LINE
  8
51
 10
57.5034
 20
-7.5438
 30
0.0000
 11
58.0457
 21
-7.5438
 31
0.0000
  0
LINE
  8
51
 10
58.0457
 20
-7.5438
 30
0.0000
 11
58.3169
 21
-7.2726
 31
0.0000
  0
LINE
  8
51
 10
58.3169
 20
-7.2726
 30
0.0000
 11
58.3169
 21
-6.7303
 31
0.0000
  0
LINE
  8
51
 10
58.3169
 20
-6.7303
 30
0.0000
 11
58.0457
 21
-6.4591
 31
0.0000
  0
LINE
  8
51
 10
58.0457
 20
-6.4591
 30
0.0000
 11
57.5034
 21
-6.4591
 31
0.0000
  0
LINE
  8
51
 10
57.5034
 20
-6.4591
 30
0.0000
 11
57.2322
 21
-6.7303
 31
0.0000
  0
LINE
  8
51
 10
57.2322
 20
-6.7303
 30
0.0000
 11
57.2322
 21
-7.2726
 31
0.0000
  0
LINE
  8
51
 10
57.2322
 20
-7.2726
 30
0.0000
 11
57.5034
 21
-7.5438
 31
0.0000
  0
LINE
  8
51
 10
58.8694
 20
-7.5438
 30
0.0000
 11
58.8694
 21
-6.4591
 31
0.0000
  0
LINE
  8
51
 10
58.8694
 20
-7.0015
 30
0.0000
 11
59.4117
 21
-6.4591
 31
0.0000
  0
LINE
  8
51
 10
59.4117
 20
-6.4591
 30
0.0000
 11
59.6829
 21
-6.4591
 31
0.0000
  0
LINE
  8
51
 10
60.7760
 20
-8.0861
 30
0.0000
 11
61.0472
 21
-8.0861
 31
0.0000
  0
LINE
  8
51
 10
61.0472
 20
-8.0861
 30
0.0000
 11
61.3183
 21
-7.8150
 31
0.0000
  0
LINE
  8
51
 10
61.3183
 20
-7.8150
 30
0.0000
 11
61.3183
 21
-6.4591
 31
0.0000
  0
LINE
  8
51
 10
61.3183
 20
-6.4591
 30
0.0000
 11
60.5048
 21
-6.4591
 31
0.0000
  0
LINE
  8
51
 10
60.5048
 20
-6.4591
 30
0.0000
 11
60.2337
 21
-6.7303
 31
0.0000
  0
LINE
  8
51
 10
60.2337
 20
-6.7303
 30
0.0000
 11
60.2337
 21
-7.2726
 31
0.0000
  0
LINE
  8
51
 10
60.2337
 20
-7.2726
 30
0.0000
 11
60.5048
 21
-7.5438
 31
0.0000
  0
LINE
  8
51
 10
60.5048
 20
-7.5438
 30
0.0000
 11
61.3183
 21
-7.5438
 31
0.0000
  0
LINE
  8
51
 10
61.8708
 20
-7.5438
 30
0.0000
 11
62.9555
 21
-5.9168
 31
0.0000
  0
LINE
  8
51
 10
63.5080
 20
-5.9168
 30
0.0000
 11
63.7791
 21
-5.9168
 31
0.0000
  0
LINE
  8
51
 10
63.7791
 20
-5.9168
 30
0.0000
 11
63.7791
 21
-7.5438
 31
0.0000
  0
LINE
  8
51
 10
63.5080
 20
-7.5438
 30
0.0000
 11
64.0503
 21
-7.5438
 31
0.0000
  0
LINE
  8
51
 10
64.5994
 20
-6.4591
 30
0.0000
 11
64.8706
 21
-6.4591
 31
0.0000
  0
LINE
  8
51
 10
64.8706
 20
-6.4591
 30
0.0000
 11
64.8706
 21
-7.5438
 31
0.0000
  0
LINE
  8
51
 10
64.5994
 20
-7.5438
 30
0.0000
 11
65.1417
 21
-7.5438
 31
0.0000
  0
LINE
  8
51
 10
64.8706
 20
-5.6456
 30
0.0000
 11
64.8706
 21
-5.9168
 31
0.0000
  0
LINE
  8
51
 10
66.7755
 20
-6.4591
 30
0.0000
 11
65.9620
 21
-6.4591
 31
0.0000
  0
LINE
  8
51
 10
65.9620
 20
-6.4591
 30
0.0000
 11
65.6909
 21
-6.7303
 31
0.0000
  0
LINE
  8
51
 10
65.6909
 20
-6.7303
 30
0.0000
 11
65.6909
 21
-7.2726
 31
0.0000
  0
LINE
  8
51
 10
65.6909
 20
-7.2726
 30
0.0000
 11
65.9620
 21
-7.5438
 31
0.0000
  0
LINE
  8
51
 10
65.9620
 20
-7.5438
 30
0.0000
 11
66.7755
 21
-7.5438
 31
0.0000
  0
LINE
  8
51
 10
68.1415
 20
-7.5438
 30
0.0000
 11
67.5992
 21
-7.5438
 31
0.0000
  0
LINE
  8
51
 10
67.5992
 20
-7.5438
 30
0.0000
 11
67.3280
 21
-7.2726
 31
0.0000
  0
LINE
  8
51
 10
67.3280
 20
-7.2726
 30
0.0000
 11
67.3280
 21
-6.7303
 31
0.0000
  0
LINE
  8
51
 10
67.3280
 20
-6.7303
 30
0.0000
 11
67.5992
 21
-6.4591
 31
0.0000
  0
LINE
  8
51
 10
67.5992
 20
-6.4591
 30
0.0000
 11
68.1415
 21
-6.4591
 31
0.0000
  0
LINE
  8
51
 10
68.1415
 20
-6.4591
 30
0.0000
 11
68.4127
 21
-6.7303
 31
0.0000
  0
LINE
  8
51
 10
68.4127
 20
-6.7303
 30
0.0000
 11
68.4127
 21
-7.0015
 31
0.0000
  0
LINE
  8
51
 10
68.4127
 20
-7.0015
 30
0.0000
 11
67.3280
 21
-7.0015
 31
0.0000
  0
LINE
  8
51
 10
68.9652
 20
-7.5438
 30
0.0000
 11
68.9652
 21
-6.4591
 31
0.0000
  0
LINE
  8
51
 10
68.9652
 20
-6.4591
 30
0.0000
 11
69.7787
 21
-6.4591
 31
0.0000
  0
LINE
  8
51
 10
69.7787
 20
-6.4591
 30
0.0000
 11
70.0498
 21
-6.7303
 31
0.0000
  0
LINE
  8
51
 10
70.0498
 20
-6.7303
 30
0.0000
 11
70.0498
 21
-7.5438
 31
0.0000
  0
LINE
  8
51
 10
70.6023
 20
-7.5438
 30
0.0000
 11
71.4158
 21
-7.5438
 31
0.0000
  0
LINE
  8
51
 10
71.4158
 20
-7.5438
 30
0.0000
 11
71.6870
 21
-7.2726
 31
0.0000
  0
LINE
  8
51
 10
71.6870
 20
-7.2726
 30
0.0000
 11
71.4158
 21
-7.0015
 31
0.0000
  0
LINE
  8
51
 10
71.4158
 20
-7.0015
 30
0.0000
 11
70.8735
 21
-7.0015
 31
0.0000
  0
LINE
  8
51
 10
70.8735
 20
-7.0015
 30
0.0000
 11
70.6023
 21
-6.7303
 31
0.0000
  0
LINE
  8
51
 10
70.6023
 20
-6.7303
 30
0.0000
 11
70.8735
 21
-6.4591
 31
0.0000
  0
LINE
  8
51
 10
70.8735
 20
-6.4591
 30
0.0000
 11
71.6870
 21
-6.4591
 31
0.0000
  0
LINE
  8
51
 10
73.0530
 20
-7.5438
 30
0.0000
 11
72.5106
 21
-7.5438
 31
0.0000
  0
LINE
  8
51
 10
72.5106
 20
-7.5438
 30
0.0000
 11
72.2395
 21
-7.2726
 31
0.0000
  0
LINE
  8
51
 10
72.2395
 20
-7.2726
 30
0.0000
 11
72.2395
 21
-6.7303
 31
0.0000
  0
LINE
  8
51
 10
72.2395
 20
-6.7303
 30
0.0000
 11
72.5106
 21
-6.4591
 31
0.0000
  0
LINE
  8
51
 10
72.5106
 20
-6.4591
 30
0.0000
 11
73.0530
 21
-6.4591
 31
0.0000
  0
LINE
  8
51
 10
73.0530
 20
-6.4591
 30
0.0000
 11
73.3241
 21
-6.7303
 31
0.0000
  0
LINE
  8
51
 10
73.3241
 20
-6.7303
 30
0.0000
 11
73.3241
 21
-7.0015
 31
0.0000
  0
LINE
  8
51
 10
73.3241
 20
-7.0015
 30
0.0000
 11
72.2395
 21
-7.0015
 31
0.0000
  0
LINE
  8
51
 10
73.8766
 20
-7.5438
 30
0.0000
 11
74.6901
 21
-7.5438
 31
0.0000
  0
LINE
  8
51
 10
74.6901
 20
-7.5438
 30
0.0000
 11
74.9613
 21
-7.2726
 31
0.0000
  0
LINE
  8
51
 10
74.9613
 20
-7.2726
 30
0.0000
 11
74.6901
 21
-7.0015
 31
0.0000
  0
LINE
  8
51
 10
74.6901
 20
-7.0015
 30
0.0000
 11
74.1478
 21
-7.0015
 31
0.0000
  0
LINE
  8
51
 10
74.1478
 20
-7.0015
 30
0.0000
 11
73.8766
 21
-6.7303
 31
0.0000
  0
LINE
  8
51
 10
73.8766
 20
-6.7303
 30
0.0000
 11
74.1478
 21
-6.4591
 31
0.0000
  0
LINE
  8
51
 10
74.1478
 20
-6.4591
 30
0.0000
 11
74.9613
 21
-6.4591
 31
0.0000
  0
LINE
  8
51
 10
75.5138
 20
-7.5438
 30
0.0000
 11
76.5985
 21
-5.9168
 31
0.0000
  0
LINE
  8
51
 10
77.1510
 20
-5.9168
 30
0.0000
 11
77.1510
 21
-7.5438
 31
0.0000
  0
LINE
  8
51
 10
77.1510
 20
-7.5438
 30
0.0000
 11
77.9644
 21
-7.5438
 31
0.0000
  0
LINE
  8
51
 10
77.9644
 20
-7.5438
 30
0.0000
 11
78.2356
 21
-7.2726
 31
0.0000
  0
LINE
  8
51
 10
78.2356
 20
-7.2726
 30
0.0000
 11
78.2356
 21
-6.7303
 31
0.0000
  0
LINE
  8
51
 10
78.2356
 20
-6.7303
 30
0.0000
 11
77.9644
 21
-6.4591
 31
0.0000
  0
LINE
  8
51
 10
77.9644
 20
-6.4591
 30
0.0000
 11
77.1510
 21
-6.4591
 31
0.0000
  0
LINE
  8
51
 10
78.7881
 20
-6.4591
 30
0.0000
 11
78.7881
 21
-7.2726
 31
0.0000
  0
LINE
  8
51
 10
78.7881
 20
-7.2726
 30
0.0000
 11
79.0593
 21
-7.5438
 31
0.0000
  0
LINE
  8
51
 10
79.0593
 20
-7.5438
 30
0.0000
 11
79.8728
 21
-7.5438
 31
0.0000
  0
LINE
  8
51
 10
79.8728
 20
-6.4591
 30
0.0000
 11
79.8728
 21
-7.8150
 31
0.0000
  0
LINE
  8
51
 10
79.8728
 20
-7.8150
 30
0.0000
 11
79.6016
 21
-8.0861
 31
0.0000
  0
LINE
  8
51
 10
79.6016
 20
-8.0861
 30
0.0000
 11
79.3304
 21
-8.0861
 31
0.0000
  0
LINE
  8
51
 10
80.4253
 20
-6.7303
 30
0.0000
 11
81.5099
 21
-6.7303
 31
0.0000
  0
LINE
  8
51
 10
82.0624
 20
-7.5438
 30
0.0000
 11
82.8759
 21
-7.5438
 31
0.0000
  0
LINE
  8
51
 10
82.8759
 20
-7.5438
 30
0.0000
 11
83.1471
 21
-7.2726
 31
0.0000
  0
LINE
  8
51
 10
83.1471
 20
-7.2726
 30
0.0000
 11
82.8759
 21
-7.0015
 31
0.0000
  0
LINE
  8
51
 10
82.8759
 20
-7.0015
 30
0.0000
 11
82.3336
 21
-7.0015
 31
0.0000
  0
LINE
  8
51
 10
82.3336
 20
-7.0015
 30
0.0000
 11
82.0624
 21
-6.7303
 31
0.0000
  0
LINE
  8
51
 10
82.0624
 20
-6.7303
 30
0.0000
 11
82.3336
 21
-6.4591
 31
0.0000
  0
LINE
  8
51
 10
82.3336
 20
-6.4591
 30
0.0000
 11
83.1471
 21
-6.4591
 31
0.0000
  0
LINE
  8
51
 10
83.9707
 20
-6.4591
 30
0.0000
 11
84.5131
 21
-6.4591
 31
0.0000
  0
LINE
  8
51
 10
84.5131
 20
-6.4591
 30
0.0000
 11
84.7842
 21
-6.7303
 31
0.0000
  0
LINE
  8
51
 10
84.7842
 20
-6.7303
 30
0.0000
 11
84.7842
 21
-7.5438
 31
0.0000
  0
LINE
  8
51
 10
84.7842
 20
-7.5438
 30
0.0000
 11
83.9707
 21
-7.5438
 31
0.0000
  0
LINE
  8
51
 10
83.9707
 20
-7.5438
 30
0.0000
 11
83.6996
 21
-7.2726
 31
0.0000
  0
LINE
  8
51
 10
83.6996
 20
-7.2726
 30
0.0000
 11
83.9707
 21
-7.0015
 31
0.0000
  0
LINE
  8
51
 10
83.9707
 20
-7.0015
 30
0.0000
 11
84.7842
 21
-7.0015
 31
0.0000
  0
LINE
  8
51
 10
85.3367
 20
-7.5438
 30
0.0000
 11
86.4214
 21
-5.9168
 31
0.0000
  0
LINE
  8
51
 10
87.7874
 20
-7.5438
 30
0.0000
 11
87.7874
 21
-5.9168
 31
0.0000
  0
LINE
  8
51
 10
87.7874
 20
-5.9168
 30
0.0000
 11
86.9739
 21
-6.7303
 31
0.0000
  0
LINE
  8
51
 10
86.9739
 20
-6.7303
 30
0.0000
 11
88.0585
 21
-6.7303
 31
0.0000
  0
LINE
  8
51
 10
88.6110
 20
-7.5438
 30
0.0000
 11
88.6110
 21
-7.2726
 31
0.0000
  0
LINE
  8
51
 10
88.6110
 20
-7.2726
 30
0.0000
 11
88.8822
 21
-7.2726
 31
0.0000
  0
LINE
  8
51
 10
88.8822
 20
-7.2726
 30
0.0000
 11
88.8822
 21
-7.5438
 31
0.0000
  0
LINE
  8
51
 10
88.8822
 20
-7.5438
 30
0.0000
 11
88.6110
 21
-7.5438
 31
0.0000
  0
LINE
  8
51
 10
89.4296
 20
-7.2726
 30
0.0000
 11
89.4296
 21
-6.1880
 31
0.0000
  0
LINE
  8
51
 10
89.4296
 20
-6.1880
 30
0.0000
 11
89.7008
 21
-5.9168
 31
0.0000
  0
LINE
  8
51
 10
89.7008
 20
-5.9168
 30
0.0000
 11
90.2431
 21
-5.9168
 31
0.0000
  0
LINE
  8
51
 10
90.2431
 20
-5.9168
 30
0.0000
 11
90.5143
 21
-6.1880
 31
0.0000
  0
LINE
  8
51
 10
90.5143
 20
-6.1880
 30
0.0000
 11
90.5143
 21
-7.2726
 31
0.0000
  0
LINE
  8
51
 10
90.5143
 20
-7.2726
 30
0.0000
 11
90.2431
 21
-7.5438
 31
0.0000
  0
LINE
  8
51
 10
90.2431
 20
-7.5438
 30
0.0000
 11
89.7008
 21
-7.5438
 31
0.0000
  0
LINE
  8
51
 10
89.7008
 20
-7.5438
 30
0.0000
 11
89.4296
 21
-7.2726
 31
0.0000
  0
LINE
  8
51
 10
89.4296
 20
-7.2726
 30
0.0000
 11
90.5143
 21
-6.1880
 31
0.0000
  0
LINE
  8
51
 10
91.0668
 20
-7.5438
 30
0.0000
 11
92.1514
 21
-5.9168
 31
0.0000
  0
LINE
  8
51
 10
31.8262
 20
-8.4568
 30
0.0000
 11
31.8262
 21
-10.0838
 31
0.0000
  0
LINE
  8
51
 10
31.8262
 20
-10.0838
 30
0.0000
 11
32.6397
 21
-10.0838
 31
0.0000
  0
LINE
  8
51
 10
32.6397
 20
-10.0838
 30
0.0000
 11
32.9109
 21
-9.8126
 31
0.0000
  0
LINE
  8
51
 10
32.9109
 20
-9.8126
 30
0.0000
 11
32.9109
 21
-8.7280
 31
0.0000
  0
LINE
  8
51
 10
32.9109
 20
-8.7280
 30
0.0000
 11
32.6397
 21
-8.4568
 31
0.0000
  0
LINE
  8
51
 10
32.6397
 20
-8.4568
 30
0.0000
 11
31.8262
 21
-8.4568
 31
0.0000
  0
LINE
  8
51
 10
34.2769
 20
-10.0838
 30
0.0000
 11
33.7345
 21
-10.0838
 31
0.0000
  0
LINE
  8
51
 10
33.7345
 20
-10.0838
 30
0.0000
 11
33.4634
 21
-9.8126
 31
0.0000
  0
LINE
  8
51
 10
33.4634
 20
-9.8126
 30
0.0000
 11
33.4634
 21
-9.2703
 31
0.0000
  0
LINE
  8
51
 10
33.4634
 20
-9.2703
 30
0.0000
 11
33.7345
 21
-8.9991
 31
0.0000
  0
LINE
  8
51
 10
33.7345
 20
-8.9991
 30
0.0000
 11
34.2769
 21
-8.9991
 31
0.0000
  0
LINE
  8
51
 10
34.2769
 20
-8.9991
 30
0.0000
 11
34.5480
 21
-9.2703
 31
0.0000
  0
LINE
  8
51
 10
34.5480
 20
-9.2703
 30
0.0000
 11
34.5480
 21
-9.5415
 31
0.0000
  0
LINE
  8
51
 10
34.5480
 20
-9.5415
 30
0.0000
 11
33.4634
 21
-9.5415
 31
0.0000
  0
LINE
  8
51
 10
35.1005
 20
-10.0838
 30
0.0000
 11
35.9140
 21
-10.0838
 31
0.0000
  0
LINE
  8
51
 10
35.9140
 20
-10.0838
 30
0.0000
 11
36.1852
 21
-9.8126
 31
0.0000
  0
LINE
  8
51
 10
36.1852
 20
-9.8126
 30
0.0000
 11
35.9140
 21
-9.5415
 31
0.0000
  0
LINE
  8
51
 10
35.9140
 20
-9.5415
 30
0.0000
 11
35.3717
 21
-9.5415
 31
0.0000
  0
LINE
  8
51
 10
35.3717
 20
-9.5415
 30
0.0000
 11
35.1005
 21
-9.2703
 31
0.0000
  0
LINE
  8
51
 10
35.1005
 20
-9.2703
 30
0.0000
 11
35.3717
 21
-8.9991
 31
0.0000
  0
LINE
  8
51
 10
35.3717
 20
-8.9991
 30
0.0000
 11
36.1852
 21
-8.9991
 31
0.0000
  0
LINE
  8
51
 10
36.7377
 20
-8.9991
 30
0.0000
 11
37.0088
 21
-8.9991
 31
0.0000
  0
LINE
  8
51
 10
37.0088
 20
-8.9991
 30
0.0000
 11
37.0088
 21
-10.0838
 31
0.0000
  0
LINE
  8
51
 10
36.7377
 20
-10.0838
 30
0.0000
 11
37.2800
 21
-10.0838
 31
0.0000
  0
LINE
  8
51
 10
37.0088
 20
-8.1856
 30
0.0000
 11
37.0088
 21
-8.4568
 31
0.0000
  0
LINE
  8
51
 10
38.3714
 20
-10.6261
 30
0.0000
 11
38.6426
 21
-10.6261
 31
0.0000
  0
LINE
  8
51
 10
38.6426
 20
-10.6261
 30
0.0000
 11
38.9138
 21
-10.3550
 31
0.0000
  0
LINE
  8
51
 10
38.9138
 20
-10.3550
 30
0.0000
 11
38.9138
 21
-8.9991
 31
0.0000
  0
LINE
  8
51
 10
38.9138
 20
-8.9991
 30
0.0000
 11
38.1003
 21
-8.9991
 31
0.0000
  0
LINE
  8
51
 10
38.1003
 20
-8.9991
 30
0.0000
 11
37.8291
 21
-9.2703
 31
0.0000
  0
LINE
  8
51
 10
37.8291
 20
-9.2703
 30
0.0000
 11
37.8291
 21
-9.8126
 31
0.0000
  0
LINE
  8
51
 10
37.8291
 20
-9.8126
 30
0.0000
 11
38.1003
 21
-10.0838
 31
0.0000
  0
LINE
  8
51
 10
38.1003
 20
-10.0838
 30
0.0000
 11
38.9138
 21
-10.0838
 31
0.0000
  0
LINE
  8
51
 10
39.4663
 20
-10.0838
 30
0.0000
 11
39.4663
 21
-8.9991
 31
0.0000
  0
LINE
  8
51
 10
39.4663
 20
-8.9991
 30
0.0000
 11
40.2798
 21
-8.9991
 31
0.0000
  0
LINE
  8
51
 10
40.2798
 20
-8.9991
 30
0.0000
 11
40.5509
 21
-9.2703
 31
0.0000
  0
LINE
  8
51
 10
40.5509
 20
-9.2703
 30
0.0000
 11
40.5509
 21
-10.0838
 31
0.0000
  0
LINE
  8
51
 10
41.9169
 20
-10.0838
 30
0.0000
 11
41.3746
 21
-10.0838
 31
0.0000
  0
LINE
  8
51
 10
41.3746
 20
-10.0838
 30
0.0000
 11
41.1034
 21
-9.8126
 31
0.0000
  0
LINE
  8
51
 10
41.1034
 20
-9.8126
 30
0.0000
 11
41.1034
 21
-9.2703
 31
0.0000
  0
LINE
  8
51
 10
41.1034
 20
-9.2703
 30
0.0000
 11
41.3746
 21
-8.9991
 31
0.0000
  0
LINE
  8
51
 10
41.3746
 20
-8.9991
 30
0.0000
 11
41.9169
 21
-8.9991
 31
0.0000
  0
LINE
  8
51
 10
41.9169
 20
-8.9991
 30
0.0000
 11
42.1881
 21
-9.2703
 31
0.0000
  0
LINE
  8
51
 10
42.1881
 20
-9.2703
 30
0.0000
 11
42.1881
 21
-9.5415
 31
0.0000
  0
LINE
  8
51
 10
42.1881
 20
-9.5415
 30
0.0000
 11
41.1034
 21
-9.5415
 31
0.0000
  0
LINE
  8
51
 10
43.8252
 20
-8.4568
 30
0.0000
 11
43.8252
 21
-10.0838
 31
0.0000
  0
LINE
  8
51
 10
43.8252
 20
-10.0838
 30
0.0000
 11
43.0117
 21
-10.0838
 31
0.0000
  0
LINE
  8
51
 10
43.0117
 20
-10.0838
 30
0.0000
 11
42.7406
 21
-9.8126
 31
0.0000
  0
LINE
  8
51
 10
42.7406
 20
-9.8126
 30
0.0000
 11
42.7406
 21
-9.2703
 31
0.0000
  0
LINE
  8
51
 10
42.7406
 20
-9.2703
 30
0.0000
 11
43.0117
 21
-8.9991
 31
0.0000
  0
LINE
  8
51
 10
43.0117
 20
-8.9991
 30
0.0000
 11
43.8252
 21
-8.9991
 31
0.0000
  0
LINE
  8
51
 10
46.0149
 20
-8.4568
 30
0.0000
 11
46.0149
 21
-10.0838
 31
0.0000
  0
LINE
  8
51
 10
46.0149
 20
-10.0838
 30
0.0000
 11
46.8284
 21
-10.0838
 31
0.0000
  0
LINE
  8
51
 10
46.8284
 20
-10.0838
 30
0.0000
 11
47.0995
 21
-9.8126
 31
0.0000
  0
LINE
  8
51
 10
47.0995
 20
-9.8126
 30
0.0000
 11
47.0995
 21
-9.2703
 31
0.0000
  0
LINE
  8
51
 10
47.0995
 20
-9.2703
 30
0.0000
 11
46.8284
 21
-8.9991
 31
0.0000
  0
LINE
  8
51
 10
46.8284
 20
-8.9991
 30
0.0000
 11
46.0149
 21
-8.9991
 31
0.0000
  0
LINE
  8
51
 10
47.6520
 20
-8.9991
 30
0.0000
 11
47.6520
 21
-9.8126
 31
0.0000
  0
LINE
  8
51
 10
47.6520
 20
-9.8126
 30
0.0000
 11
47.9232
 21
-10.0838
 31
0.0000
  0
LINE
  8
51
 10
47.9232
 20
-10.0838
 30
0.0000
 11
48.7367
 21
-10.0838
 31
0.0000
  0
LINE
  8
51
 10
48.7367
 20
-8.9991
 30
0.0000
 11
48.7367
 21
-10.3550
 31
0.0000
  0
LINE
  8
51
 10
48.7367
 20
-10.3550
 30
0.0000
 11
48.4655
 21
-10.6261
 31
0.0000
  0
LINE
  8
51
 10
48.4655
 20
-10.6261
 30
0.0000
 11
48.1944
 21
-10.6261
 31
0.0000
  0
LINE
  8
51
 10
49.2892
 20
-8.9991
 30
0.0000
 11
49.5604
 21
-8.9991
 31
0.0000
  0
LINE
  8
51
 10
49.5604
 20
-8.9991
 30
0.0000
 11
49.5604
 21
-9.2703
 31
0.0000
  0
LINE
  8
51
 10
49.5604
 20
-9.2703
 30
0.0000
 11
49.2892
 21
-9.2703
 31
0.0000
  0
LINE
  8
51
 10
49.2892
 20
-9.2703
 30
0.0000
 11
49.2892
 21
-8.9991
 31
0.0000
  0
LINE
  8
51
 10
49.2892
 20
-9.8126
 30
0.0000
 11
49.5604
 21
-9.8126
 31
0.0000
  0
LINE
  8
51
 10
49.5604
 20
-9.8126
 30
0.0000
 11
49.5604
 21
-10.0838
 31
0.0000
  0
LINE
  8
51
 10
49.5604
 20
-10.0838
 30
0.0000
 11
49.2892
 21
-10.0838
 31
0.0000
  0
LINE
  8
51
 10
49.2892
 20
-10.0838
 30
0.0000
 11
49.2892
 21
-9.8126
 31
0.0000
  0
POINT
  8
23
 10
34.7218
 20
22.2250
 30
0.0000
  0
LINE
  8
21
 10
38.1218
 20
24.5250
 30
0.0000
 11
38.1218
 21
12.9250
 31
0.0000
  0
LINE
  8
21
 10
38.1218
 20
12.9250
 30
0.0000
 11
31.9218
 21
12.9250
 31
0.0000
  0
LINE
  8
21
 10
31.9218
 20
12.9250
 30
0.0000
 11
31.1218
 21
12.9250
 31
0.0000
  0
LINE
  8
21
 10
31.1218
 20
12.9250
 30
0.0000
 11
31.1218
 21
24.5250
 31
0.0000
  0
LINE
  8
21
 10
31.1218
 20
24.5250
 30
0.0000
 11
31.9218
 21
24.5250
 31
0.0000
  0
LINE
  8
21
 10
31.9218
 20
24.5250
 30
0.0000
 11
38.1218
 21
24.5250
 31
0.0000
  0
LINE
  8
21
 10
31.9218
 20
12.9250
 30
0.0000
 11
31.9218
 21
24.5250
 31
0.0000
  0
LINE
  8
51
 10
33.3718
 20
24.5250
 30
0.0000
 11
33.3718
 21
24.9250
 31
0.0000
  0
LINE
  8
51
 10
33.3718
 20
24.9250
 30
0.0000
 11
32.3718
 21
24.9250
 31
0.0000
  0
LINE
  8
51
 10
32.3718
 20
24.9250
 30
0.0000
 11
32.3718
 21
24.5250
 31
0.0000
  0
LINE
  8
51
 10
37.8718
 20
12.9250
 30
0.0000
 11
37.8718
 21
12.5250
 31
0.0000
  0
LINE
  8
51
 10
37.8718
 20
12.5250
 30
0.0000
 11
36.8718
 21
12.5250
 31
0.0000
  0
LINE
  8
51
 10
36.8718
 20
12.5250
 30
0.0000
 11
36.8718
 21
12.9250
 31
0.0000
  0
INSERT
  8
17
  2
ROUNDP
 10
34.7218
 20
22.2250
 30
0.0000
 41
2.4130
 42
2.4130
 43
1.0000
 50
270.0000
  0
INSERT
  8
17
  2
ROUNDP
 10
34.7218
 20
22.2250
 30
0.0000
 41
2.4130
 42
2.4130
 43
1.0000
 50
270.0000
  0
CIRCLE
  8
44
 10
34.7218
 20
22.2250
 30
0.0000
 40
0.6000
  0
INSERT
  8
17
  2
ROUNDP
 10
34.7218
 20
18.7250
 30
0.0000
 41
2.4130
 42
2.4130
 43
1.0000
 50
270.0000
  0
INSERT
  8
17
  2
ROUNDP
 10
34.7218
 20
18.7250
 30
0.0000
 41
2.4130
 42
2.4130
 43
1.0000
 50
270.0000
  0
CIRCLE
  8
44
 10
34.7218
 20
18.7250
 30
0.0000
 40
0.6000
  0
INSERT
  8
17
  2
ROUNDP
 10
34.7218
 20
15.2250
 30
0.0000
 41
2.4130
 42
2.4130
 43
1.0000
 50
270.0000
  0
INSERT
  8
17
  2
ROUNDP
 10
34.7218
 20
15.2250
 30
0.0000
 41
2.4130
 42
2.4130
 43
1.0000
 50
270.0000
  0
CIRCLE
  8
44
 10
34.7218
 20
15.2250
 30
0.0000
 40
0.6000
  0
POINT
  8
23
 10
1.9050
 20
19.6850
 30
0.0000
  0
LINE
  8
21
 10
3.1750
 20
5.0800
 30
0.0000
 11
3.1750
 21
3.8100
 31
0.0000
  0
LINE
  8
21
 10
3.1750
 20
3.8100
 30
0.0000
 11
2.5400
 21
3.1750
 31
0.0000
  0
LINE
  8
21
 10
1.2700
 20
3.1750
 30
0.0000
 11
0.6350
 21
3.8100
 31
0.0000
  0
LINE
  8
21
 10
2.5400
 20
8.2550
 30
0.0000
 11
3.1750
 21
7.6200
 31
0.0000
  0
LINE
  8
21
 10
3.1750
 20
7.6200
 30
0.0000
 11
3.1750
 21
6.3500
 31
0.0000
  0
LINE
  8
21
 10
3.1750
 20
6.3500
 30
0.0000
 11
2.5400
 21
5.7150
 31
0.0000
  0
LINE
  8
21
 10
1.2700
 20
5.7150
 30
0.0000
 11
0.6350
 21
6.3500
 31
0.0000
  0
LINE
  8
21
 10
0.6350
 20
6.3500
 30
0.0000
 11
0.6350
 21
7.6200
 31
0.0000
  0
LINE
  8
21
 10
0.6350
 20
7.6200
 30
0.0000
 11
1.2700
 21
8.2550
 31
0.0000
  0
LINE
  8
21
 10
3.1750
 20
5.0800
 30
0.0000
 11
2.5400
 21
5.7150
 31
0.0000
  0
LINE
  8
21
 10
1.2700
 20
5.7150
 30
0.0000
 11
0.6350
 21
5.0800
 31
0.0000
  0
LINE
  8
21
 10
0.6350
 20
3.8100
 30
0.0000
 11
0.6350
 21
5.0800
 31
0.0000
  0
LINE
  8
21
 10
3.1750
 20
12.7000
 30
0.0000
 11
3.1750
 21
11.4300
 31
0.0000
  0
LINE
  8
21
 10
3.1750
 20
11.4300
 30
0.0000
 11
2.5400
 21
10.7950
 31
0.0000
  0
LINE
  8
21
 10
1.2700
 20
10.7950
 30
0.0000
 11
0.6350
 21
11.4300
 31
0.0000
  0
LINE
  8
21
 10
2.5400
 20
10.7950
 30
0.0000
 11
3.1750
 21
10.1600
 31
0.0000
  0
LINE
  8
21
 10
3.1750
 20
10.1600
 30
0.0000
 11
3.1750
 21
8.8900
 31
0.0000
  0
LINE
  8
21
 10
3.1750
 20
8.8900
 30
0.0000
 11
2.5400
 21
8.2550
 31
0.0000
  0
LINE
  8
21
 10
1.2700
 20
8.2550
 30
0.0000
 11
0.6350
 21
8.8900
 31
0.0000
  0
LINE
  8
21
 10
0.6350
 20
8.8900
 30
0.0000
 11
0.6350
 21
10.1600
 31
0.0000
  0
LINE
  8
21
 10
0.6350
 20
10.1600
 30
0.0000
 11
1.2700
 21
10.7950
 31
0.0000
  0
LINE
  8
21
 10
2.5400
 20
15.8750
 30
0.0000
 11
3.1750
 21
15.2400
 31
0.0000
  0
LINE
  8
21
 10
3.1750
 20
15.2400
 30
0.0000
 11
3.1750
 21
13.9700
 31
0.0000
  0
LINE
  8
21
 10
3.1750
 20
13.9700
 30
0.0000
 11
2.5400
 21
13.3350
 31
0.0000
  0
LINE
  8
21
 10
1.2700
 20
13.3350
 30
0.0000
 11
0.6350
 21
13.9700
 31
0.0000
  0
LINE
  8
21
 10
0.6350
 20
13.9700
 30
0.0000
 11
0.6350
 21
15.2400
 31
0.0000
  0
LINE
  8
21
 10
0.6350
 20
15.2400
 30
0.0000
 11
1.2700
 21
15.8750
 31
0.0000
  0
LINE
  8
21
 10
3.1750
 20
12.7000
 30
0.0000
 11
2.5400
 21
13.3350
 31
0.0000
  0
LINE
  8
21
 10
1.2700
 20
13.3350
 30
0.0000
 11
0.6350
 21
12.7000
 31
0.0000
  0
LINE
  8
21
 10
0.6350
 20
11.4300
 30
0.0000
 11
0.6350
 21
12.7000
 31
0.0000
  0
LINE
  8
21
 10
3.1750
 20
20.3200
 30
0.0000
 11
3.1750
 21
19.0500
 31
0.0000
  0
LINE
  8
21
 10
3.1750
 20
19.0500
 30
0.0000
 11
2.5400
 21
18.4150
 31
0.0000
  0
LINE
  8
21
 10
1.2700
 20
18.4150
 30
0.0000
 11
0.6350
 21
19.0500
 31
0.0000
  0
LINE
  8
21
 10
2.5400
 20
18.4150
 30
0.0000
 11
3.1750
 21
17.7800
 31
0.0000
  0
LINE
  8
21
 10
3.1750
 20
17.7800
 30
0.0000
 11
3.1750
 21
16.5100
 31
0.0000
  0
LINE
  8
21
 10
3.1750
 20
16.5100
 30
0.0000
 11
2.5400
 21
15.8750
 31
0.0000
  0
LINE
  8
21
 10
1.2700
 20
15.8750
 30
0.0000
 11
0.6350
 21
16.5100
 31
0.0000
  0
LINE
  8
21
 10
0.6350
 20
16.5100
 30
0.0000
 11
0.6350
 21
17.7800
 31
0.0000
  0
LINE
  8
21
 10
0.6350
 20
17.7800
 30
0.0000
 11
1.2700
 21
18.4150
 31
0.0000
  0
LINE
  8
21
 10
2.5400
 20
20.9550
 30
0.0000
 11
1.2700
 21
20.9550
 31
0.0000
  0
LINE
  8
21
 10
3.1750
 20
20.3200
 30
0.0000
 11
2.5400
 21
20.9550
 31
0.0000
  0
LINE
  8
21
 10
1.2700
 20
20.9550
 30
0.0000
 11
0.6350
 21
20.3200
 31
0.0000
  0
LINE
  8
21
 10
0.6350
 20
19.0500
 30
0.0000
 11
0.6350
 21
20.3200
 31
0.0000
  0
LINE
  8
21
 10
3.1750
 20
2.5400
 30
0.0000
 11
3.1750
 21
1.2700
 31
0.0000
  0
LINE
  8
21
 10
3.1750
 20
1.2700
 30
0.0000
 11
2.5400
 21
0.6350
 31
0.0000
  0
LINE
  8
21
 10
2.5400
 20
0.6350
 30
0.0000
 11
1.2700
 21
0.6350
 31
0.0000
  0
LINE
  8
21
 10
1.2700
 20
0.6350
 30
0.0000
 11
0.6350
 21
1.2700
 31
0.0000
  0
LINE
  8
21
 10
3.1750
 20
2.5400
 30
0.0000
 11
2.5400
 21
3.1750
 31
0.0000
  0
LINE
  8
21
 10
1.2700
 20
3.1750
 30
0.0000
 11
0.6350
 21
2.5400
 31
0.0000
  0
LINE
  8
21
 10
0.6350
 20
1.2700
 30
0.0000
 11
0.6350
 21
2.5400
 31
0.0000
  0
INSERT
  8
51
  2
RECT
 10
1.9050
 20
4.4450
 30
0.0000
 41
0.5080
 42
0.5080
 43
1.0000
 50
270.0000
  0
INSERT
  8
51
  2
RECT
 10
1.9050
 20
6.9850
 30
0.0000
 41
0.5080
 42
0.5080
 43
1.0000
 50
270.0000
  0
INSERT
  8
51
  2
RECT
 10
1.9050
 20
9.5250
 30
0.0000
 41
0.5080
 42
0.5080
 43
1.0000
 50
270.0000
  0
INSERT
  8
51
  2
RECT
 10
1.9050
 20
12.0650
 30
0.0000
 41
0.5080
 42
0.5080
 43
1.0000
 50
270.0000
  0
INSERT
  8
51
  2
RECT
 10
1.9050
 20
14.6050
 30
0.0000
 41
0.5080
 42
0.5080
 43
1.0000
 50
270.0000
  0
INSERT
  8
51
  2
RECT
 10
1.9050
 20
17.1450
 30
0.0000
 41
0.5080
 42
0.5080
 43
1.0000
 50
270.0000
  0
INSERT
  8
51
  2
RECT
 10
1.9050
 20
19.6850
 30
0.0000
 41
0.5080
 42
0.5080
 43
1.0000
 50
270.0000
  0
INSERT
  8
51
  2
RECT
 10
1.9050
 20
1.9050
 30
0.0000
 41
0.5080
 42
0.5080
 43
1.0000
 50
270.0000
  0
INSERT
  8
17
  2
ROUNDP
 10
1.9050
 20
19.6850
 30
0.0000
 41
1.8796
 42
1.8796
 43
1.0000
 50
0.0000
  0
INSERT
  8
17
  2
ROUNDP
 10
1.9050
 20
19.6850
 30
0.0000
 41
1.8796
 42
1.8796
 43
1.0000
 50
0.0000
  0
CIRCLE
  8
44
 10
1.9050
 20
19.6850
 30
0.0000
 40
0.5080
  0
INSERT
  8
17
  2
ROUNDP
 10
1.9050
 20
17.1450
 30
0.0000
 41
1.8796
 42
1.8796
 43
1.0000
 50
0.0000
  0
INSERT
  8
17
  2
ROUNDP
 10
1.9050
 20
17.1450
 30
0.0000
 41
1.8796
 42
1.8796
 43
1.0000
 50
0.0000
  0
CIRCLE
  8
44
 10
1.9050
 20
17.1450
 30
0.0000
 40
0.5080
  0
INSERT
  8
17
  2
ROUNDP
 10
1.9050
 20
14.6050
 30
0.0000
 41
1.8796
 42
1.8796
 43
1.0000
 50
0.0000
  0
INSERT
  8
17
  2
ROUNDP
 10
1.9050
 20
14.6050
 30
0.0000
 41
1.8796
 42
1.8796
 43
1.0000
 50
0.0000
  0
CIRCLE
  8
44
 10
1.9050
 20
14.6050
 30
0.0000
 40
0.5080
  0
INSERT
  8
17
  2
ROUNDP
 10
1.9050
 20
12.0650
 30
0.0000
 41
1.8796
 42
1.8796
 43
1.0000
 50
0.0000
  0
INSERT
  8
17
  2
ROUNDP
 10
1.9050
 20
12.0650
 30
0.0000
 41
1.8796
 42
1.8796
 43
1.0000
 50
0.0000
  0
CIRCLE
  8
44
 10
1.9050
 20
12.0650
 30
0.0000
 40
0.5080
  0
INSERT
  8
17
  2
ROUNDP
 10
1.9050
 20
9.5250
 30
0.0000
 41
1.8796
 42
1.8796
 43
1.0000
 50
0.0000
  0
INSERT
  8
17
  2
ROUNDP
 10
1.9050
 20
9.5250
 30
0.0000
 41
1.8796
 42
1.8796
 43
1.0000
 50
0.0000
  0
CIRCLE
  8
44
 10
1.9050
 20
9.5250
 30
0.0000
 40
0.5080
  0
INSERT
  8
17
  2
ROUNDP
 10
1.9050
 20
6.9850
 30
0.0000
 41
1.8796
 42
1.8796
 43
1.0000
 50
0.0000
  0
INSERT
  8
17
  2
ROUNDP
 10
1.9050
 20
6.9850
 30
0.0000
 41
1.8796
 42
1.8796
 43
1.0000
 50
0.0000
  0
CIRCLE
  8
44
 10
1.9050
 20
6.9850
 30
0.0000
 40
0.5080
  0
INSERT
  8
17
  2
ROUNDP
 10
1.9050
 20
4.4450
 30
0.0000
 41
1.8796
 42
1.8796
 43
1.0000
 50
0.0000
  0
INSERT
  8
17
  2
ROUNDP
 10
1.9050
 20
4.4450
 30
0.0000
 41
1.8796
 42
1.8796
 43
1.0000
 50
0.0000
  0
CIRCLE
  8
44
 10
1.9050
 20
4.4450
 30
0.0000
 40
0.5080
  0
INSERT
  8
17
  2
ROUNDP
 10
1.9050
 20
1.9050
 30
0.0000
 41
1.8796
 42
1.8796
 43
1.0000
 50
0.0000
  0
INSERT
  8
17
  2
ROUNDP
 10
1.9050
 20
1.9050
 30
0.0000
 41
1.8796
 42
1.8796
 43
1.0000
 50
0.0000
  0
CIRCLE
  8
44
 10
1.9050
 20
1.9050
 30
0.0000
 40
0.5080
  0
POINT
  8
23
 10
25.4000
 20
17.1450
 30
0.0000
  0
LINE
  8
39
 10
24.4170
 20
14.6720
 30
0.0000
 11
24.4170
 21
19.6180
 31
0.0000
  0
LINE
  8
39
 10
26.3830
 20
19.6180
 30
0.0000
 11
26.3830
 21
14.6720
 31
0.0000
  0
LINE
  8
39
 10
26.3830
 20
14.6720
 30
0.0000
 11
24.4170
 21
14.6720
 31
0.0000
  0
LINE
  8
39
 10
24.4170
 20
19.6180
 30
0.0000
 11
26.3830
 21
19.6180
 31
0.0000
  0
LINE
  8
51
 10
24.6130
 20
16.1800
 30
0.0000
 11
24.6130
 21
18.1100
 31
0.0000
  0
LINE
  8
51
 10
26.1870
 20
16.1800
 30
0.0000
 11
26.1870
 21
18.1100
 31
0.0000
  0
INSERT
  8
51
  2
RECT
 10
25.4009
 20
15.8183
 30
0.0000
 41
0.7501
 42
1.7000
 43
1.0000
 50
90.0000
  0
INSERT
  8
51
  2
RECT
 10
25.3991
 20
18.4718
 30
0.0000
 41
0.7501
 42
1.7000
 43
1.0000
 50
90.0000
  0
INSERT
  8
1
  2
RECT
 10
25.4000
 20
15.7450
 30
0.0000
 41
1.6000
 42
1.8000
 43
1.0000
 50
90.0000
  0
INSERT
  8
1
  2
RECT
 10
25.4000
 20
18.5450
 30
0.0000
 41
1.6000
 42
1.8000
 43
1.0000
 50
90.0000
  0
POINT
  8
23
 10
29.4386
 20
19.6850
 30
0.0000
  0
LINE
  8
39
 10
30.4216
 20
22.1580
 30
0.0000
 11
30.4216
 21
17.2120
 31
0.0000
  0
LINE
  8
39
 10
28.4556
 20
17.2120
 30
0.0000
 11
28.4556
 21
22.1580
 31
0.0000
  0
LINE
  8
39
 10
28.4556
 20
22.1580
 30
0.0000
 11
30.4216
 21
22.1580
 31
0.0000
  0
LINE
  8
39
 10
30.4216
 20
17.2120
 30
0.0000
 11
28.4556
 21
17.2120
 31
0.0000
  0
LINE
  8
51
 10
30.2256
 20
20.6500
 30
0.0000
 11
30.2256
 21
18.7200
 31
0.0000
  0
LINE
  8
51
 10
28.6516
 20
20.6500
 30
0.0000
 11
28.6516
 21
18.7200
 31
0.0000
  0
INSERT
  8
51
  2
RECT
 10
29.4377
 20
21.0117
 30
0.0000
 41
0.7501
 42
1.7000
 43
1.0000
 50
270.0000
  0
INSERT
  8
51
  2
RECT
 10
29.4395
 20
18.3583
 30
0.0000
 41
0.7501
 42
1.7000
 43
1.0000
 50
270.0000
  0
INSERT
  8
1
  2
RECT
 10
29.4386
 20
21.0850
 30
0.0000
 41
1.6000
 42
1.8000
 43
1.0000
 50
270.0000
  0
INSERT
  8
1
  2
RECT
 10
29.4386
 20
18.2850
 30
0.0000
 41
1.6000
 42
1.8000
 43
1.0000
 50
270.0000
  0
POINT
  8
23
 10
29.4386
 20
14.6050
 30
0.0000
  0
LINE
  8
39
 10
28.4556
 20
12.1320
 30
0.0000
 11
28.4556
 21
17.0780
 31
0.0000
  0
LINE
  8
39
 10
30.4216
 20
17.0780
 30
0.0000
 11
30.4216
 21
12.1320
 31
0.0000
  0
LINE
  8
39
 10
30.4216
 20
12.1320
 30
0.0000
 11
28.4556
 21
12.1320
 31
0.0000
  0
LINE
  8
39
 10
28.4556
 20
17.0780
 30
0.0000
 11
30.4216
 21
17.0780
 31
0.0000
  0
LINE
  8
51
 10
28.6516
 20
13.6400
 30
0.0000
 11
28.6516
 21
15.5700
 31
0.0000
  0
LINE
  8
51
 10
30.2256
 20
13.6400
 30
0.0000
 11
30.2256
 21
15.5700
 31
0.0000
  0
INSERT
  8
51
  2
RECT
 10
29.4395
 20
13.2782
 30
0.0000
 41
0.7501
 42
1.7000
 43
1.0000
 50
90.0000
  0
INSERT
  8
51
  2
RECT
 10
29.4377
 20
15.9318
 30
0.0000
 41
0.7501
 42
1.7000
 43
1.0000
 50
90.0000
  0
INSERT
  8
1
  2
RECT
 10
29.4386
 20
13.2050
 30
0.0000
 41
1.6000
 42
1.8000
 43
1.0000
 50
90.0000
  0
INSERT
  8
1
  2
RECT
 10
29.4386
 20
16.0050
 30
0.0000
 41
1.6000
 42
1.8000
 43
1.0000
 50
90.0000
  0
POINT
  8
23
 10
25.4000
 20
23.4950
 30
0.0000
  0
LINE
  8
39
 10
27.8730
 20
22.5120
 30
0.0000
 11
22.9270
 21
22.5120
 31
0.0000
  0
LINE
  8
39
 10
22.9270
 20
24.4780
 30
0.0000
 11
27.8730
 21
24.4780
 31
0.0000
  0
LINE
  8
39
 10
27.8730
 20
24.4780
 30
0.0000
 11
27.8730
 21
22.5120
 31
0.0000
  0
LINE
  8
39
 10
22.9270
 20
22.5120
 30
0.0000
 11
22.9270
 21
24.4780
 31
0.0000
  0
LINE
  8
51
 10
26.3650
 20
22.7080
 30
0.0000
 11
24.4350
 21
22.7080
 31
0.0000
  0
LINE
  8
51
 10
26.3650
 20
24.2820
 30
0.0000
 11
24.4350
 21
24.2820
 31
0.0000
  0
INSERT
  8
51
  2
RECT
 10
26.7268
 20
23.4959
 30
0.0000
 41
0.7501
 42
1.7000
 43
1.0000
 50
180.0000
  0
INSERT
  8
51
  2
RECT
 10
24.0733
 20
23.4941
 30
0.0000
 41
0.7501
 42
1.7000
 43
1.0000
 50
180.0000
  0
INSERT
  8
1
  2
RECT
 10
26.8000
 20
23.4950
 30
0.0000
 41
1.6000
 42
1.8000
 43
1.0000
 50
180.0000
  0
INSERT
  8
1
  2
RECT
 10
24.0000
 20
23.4950
 30
0.0000
 41
1.6000
 42
1.8000
 43
1.0000
 50
180.0000
  0
POINT
  8
23
 10
21.5900
 20
13.3350
 30
0.0000
  0
LINE
  8
21
 10
21.0820
 20
19.3802
 30
0.0000
 11
21.0820
 21
19.9898
 31
0.0000
  0
LINE
  8
21
 10
21.0820
 20
16.8402
 30
0.0000
 11
21.0820
 21
17.4498
 31
0.0000
  0
LINE
  8
21
 10
14.4780
 20
14.9098
 30
0.0000
 11
14.4780
 21
14.3002
 31
0.0000
  0
LINE
  8
21
 10
14.4780
 20
17.4498
 30
0.0000
 11
14.4780
 21
16.8402
 31
0.0000
  0
LINE
  8
21
 10
14.4780
 20
12.2428
 30
0.0000
 11
21.0820
 21
12.2428
 31
0.0000
  0
LINE
  8
21
 10
21.0820
 20
14.3002
 30
0.0000
 11
21.0820
 21
14.9098
 31
0.0000
  0
LINE
  8
21
 10
21.0820
 20
22.0472
 30
0.0000
 11
14.7574
 21
22.0472
 31
0.0000
  0
LINE
  8
21
 10
14.4780
 20
19.8628
 30
0.0000
 11
14.4780
 21
19.3802
 31
0.0000
  0
LINE
  8
51
 10
14.4780
 20
20.4470
 30
0.0000
 11
14.4780
 21
21.4630
 31
0.0000
  0
LINE
  8
51
 10
14.4780
 20
21.4630
 30
0.0000
 11
13.4874
 21
21.4630
 31
0.0000
  0
LINE
  8
51
 10
13.4874
 20
21.4630
 30
0.0000
 11
13.4874
 21
20.4470
 31
0.0000
  0
LINE
  8
51
 10
13.4874
 20
20.4470
 30
0.0000
 11
14.4780
 21
20.4470
 31
0.0000
  0
LINE
  8
51
 10
14.4780
 20
17.9070
 30
0.0000
 11
14.4780
 21
18.9230
 31
0.0000
  0
LINE
  8
51
 10
14.4780
 20
18.9230
 30
0.0000
 11
13.4874
 21
18.9230
 31
0.0000
  0
LINE
  8
51
 10
13.4874
 20
18.9230
 30
0.0000
 11
13.4874
 21
17.9070
 31
0.0000
  0
LINE
  8
51
 10
13.4874
 20
17.9070
 30
0.0000
 11
14.4780
 21
17.9070
 31
0.0000
  0
LINE
  8
51
 10
14.4780
 20
15.3670
 30
0.0000
 11
14.4780
 21
16.3830
 31
0.0000
  0
LINE
  8
51
 10
14.4780
 20
16.3830
 30
0.0000
 11
13.4874
 21
16.3830
 31
0.0000
  0
LINE
  8
51
 10
13.4874
 20
16.3830
 30
0.0000
 11
13.4874
 21
15.3670
 31
0.0000
  0
LINE
  8
51
 10
13.4874
 20
15.3670
 30
0.0000
 11
14.4780
 21
15.3670
 31
0.0000
  0
LINE
  8
51
 10
14.4780
 20
12.8270
 30
0.0000
 11
14.4780
 21
13.8430
 31
0.0000
  0
LINE
  8
51
 10
14.4780
 20
13.8430
 30
0.0000
 11
13.4874
 21
13.8176
 31
0.0000
  0
LINE
  8
51
 10
13.4874
 20
13.8176
 30
0.0000
 11
13.4874
 21
12.8270
 31
0.0000
  0
LINE
  8
51
 10
13.4874
 20
12.8270
 30
0.0000
 11
14.4780
 21
12.8270
 31
0.0000
  0
LINE
  8
51
 10
21.0820
 20
13.8430
 30
0.0000
 11
21.0820
 21
12.8270
 31
0.0000
  0
LINE
  8
51
 10
21.0820
 20
12.8270
 30
0.0000
 11
22.0726
 21
12.8524
 31
0.0000
  0
LINE
  8
51
 10
22.0726
 20
12.8524
 30
0.0000
 11
22.0726
 21
13.8430
 31
0.0000
  0
LINE
  8
51
 10
22.0726
 20
13.8430
 30
0.0000
 11
21.0820
 21
13.8430
 31
0.0000
  0
LINE
  8
51
 10
21.0820
 20
16.3830
 30
0.0000
 11
21.0820
 21
15.3670
 31
0.0000
  0
LINE
  8
51
 10
21.0820
 20
15.3670
 30
0.0000
 11
22.0726
 21
15.3924
 31
0.0000
  0
LINE
  8
51
 10
22.0726
 20
15.3924
 30
0.0000
 11
22.0726
 21
16.3830
 31
0.0000
  0
LINE
  8
51
 10
22.0726
 20
16.3830
 30
0.0000
 11
21.0820
 21
16.3830
 31
0.0000
  0
LINE
  8
51
 10
21.0820
 20
18.9230
 30
0.0000
 11
21.0820
 21
17.9070
 31
0.0000
  0
LINE
  8
51
 10
21.0820
 20
17.9070
 30
0.0000
 11
22.0726
 21
17.9070
 31
0.0000
  0
LINE
  8
51
 10
22.0726
 20
17.9070
 30
0.0000
 11
22.0726
 21
18.9230
 31
0.0000
  0
LINE
  8
51
 10
22.0726
 20
18.9230
 30
0.0000
 11
21.0820
 21
18.9230
 31
0.0000
  0
LINE
  8
51
 10
21.0820
 20
21.4630
 30
0.0000
 11
21.0820
 21
20.4470
 31
0.0000
  0
LINE
  8
51
 10
21.0820
 20
20.4470
 30
0.0000
 11
22.0726
 21
20.4470
 31
0.0000
  0
LINE
  8
51
 10
22.0726
 20
20.4470
 30
0.0000
 11
22.0726
 21
21.4630
 31
0.0000
  0
LINE
  8
51
 10
22.0726
 20
21.4630
 30
0.0000
 11
21.0820
 21
21.4630
 31
0.0000
  0
LINE
  8
51
 10
14.4780
 20
12.2428
 30
0.0000
 11
21.0820
 21
12.2428
 31
0.0000
  0
LINE
  8
51
 10
21.0820
 20
12.2428
 30
0.0000
 11
21.0820
 21
22.0472
 31
0.0000
  0
LINE
  8
51
 10
21.0820
 20
22.0472
 30
0.0000
 11
14.4780
 21
22.0472
 31
0.0000
  0
LINE
  8
51
 10
14.4780
 20
22.0472
 30
0.0000
 11
14.4780
 21
12.2428
 31
0.0000
  0
LINE
  8
21
 10
13.4239
 20
22.8524
 30
0.0000
 11
14.2204
 21
22.0558
 31
0.0000
  0
LINE
  8
21
 10
13.4239
 20
22.0558
 30
0.0000
 11
14.2204
 21
22.8524
 31
0.0000
  0
LINE
  8
21
 10
13.4239
 20
22.4541
 30
0.0000
 11
14.2204
 21
22.4541
 31
0.0000
  0
LINE
  8
21
 10
13.8222
 20
22.0558
 30
0.0000
 11
13.8222
 21
22.8524
 31
0.0000
  0
LINE
  8
51
 10
13.4239
 20
22.8524
 30
0.0000
 11
14.2204
 21
22.0558
 31
0.0000
  0
LINE
  8
51
 10
13.4239
 20
22.0558
 30
0.0000
 11
14.2204
 21
22.8524
 31
0.0000
  0
LINE
  8
51
 10
13.4239
 20
22.4541
 30
0.0000
 11
14.2204
 21
22.4541
 31
0.0000
  0
LINE
  8
51
 10
13.8222
 20
22.0558
 30
0.0000
 11
13.8222
 21
22.8524
 31
0.0000
  0
INSERT
  8
17
  2
ROUNDP
 10
13.9700
 20
20.9550
 30
0.0000
 41
1.4859
 42
1.4859
 43
1.0000
 50
0.0000
  0
INSERT
  8
17
  2
ROUNDP
 10
13.9700
 20
20.9550
 30
0.0000
 41
1.4859
 42
1.4859
 43
1.0000
 50
0.0000
  0
CIRCLE
  8
44
 10
13.9700
 20
20.9550
 30
0.0000
 40
0.4953
  0
INSERT
  8
17
  2
ROUNDP
 10
13.9700
 20
18.4150
 30
0.0000
 41
1.4859
 42
1.4859
 43
1.0000
 50
0.0000
  0
INSERT
  8
17
  2
ROUNDP
 10
13.9700
 20
18.4150
 30
0.0000
 41
1.4859
 42
1.4859
 43
1.0000
 50
0.0000
  0
CIRCLE
  8
44
 10
13.9700
 20
18.4150
 30
0.0000
 40
0.4953
  0
INSERT
  8
17
  2
ROUNDP
 10
13.9700
 20
15.8750
 30
0.0000
 41
1.4859
 42
1.4859
 43
1.0000
 50
0.0000
  0
INSERT
  8
17
  2
ROUNDP
 10
13.9700
 20
15.8750
 30
0.0000
 41
1.4859
 42
1.4859
 43
1.0000
 50
0.0000
  0
CIRCLE
  8
44
 10
13.9700
 20
15.8750
 30
0.0000
 40
0.4953
  0
INSERT
  8
17
  2
ROUNDP
 10
13.9700
 20
13.3350
 30
0.0000
 41
1.4859
 42
1.4859
 43
1.0000
 50
0.0000
  0
INSERT
  8
17
  2
ROUNDP
 10
13.9700
 20
13.3350
 30
0.0000
 41
1.4859
 42
1.4859
 43
1.0000
 50
0.0000
  0
CIRCLE
  8
44
 10
13.9700
 20
13.3350
 30
0.0000
 40
0.4953
  0
INSERT
  8
17
  2
ROUNDP
 10
21.5900
 20
13.3350
 30
0.0000
 41
1.4859
 42
1.4859
 43
1.0000
 50
0.0000
  0
INSERT
  8
17
  2
ROUNDP
 10
21.5900
 20
13.3350
 30
0.0000
 41
1.4859
 42
1.4859
 43
1.0000
 50
0.0000
  0
CIRCLE
  8
44
 10
21.5900
 20
13.3350
 30
0.0000
 40
0.4953
  0
INSERT
  8
17
  2
ROUNDP
 10
21.5900
 20
15.8750
 30
0.0000
 41
1.4859
 42
1.4859
 43
1.0000
 50
0.0000
  0
INSERT
  8
17
  2
ROUNDP
 10
21.5900
 20
15.8750
 30
0.0000
 41
1.4859
 42
1.4859
 43
1.0000
 50
0.0000
  0
CIRCLE
  8
44
 10
21.5900
 20
15.8750
 30
0.0000
 40
0.4953
  0
INSERT
  8
17
  2
ROUNDP
 10
21.5900
 20
18.4150
 30
0.0000
 41
1.4859
 42
1.4859
 43
1.0000
 50
0.0000
  0
INSERT
  8
17
  2
ROUNDP
 10
21.5900
 20
18.4150
 30
0.0000
 41
1.4859
 42
1.4859
 43
1.0000
 50
0.0000
  0
CIRCLE
  8
44
 10
21.5900
 20
18.4150
 30
0.0000
 40
0.4953
  0
INSERT
  8
17
  2
ROUNDP
 10
21.5900
 20
20.9550
 30
0.0000
 41
1.4859
 42
1.4859
 43
1.0000
 50
0.0000
  0
INSERT
  8
17
  2
ROUNDP
 10
21.5900
 20
20.9550
 30
0.0000
 41
1.4859
 42
1.4859
 43
1.0000
 50
0.0000
  0
CIRCLE
  8
44
 10
21.5900
 20
20.9550
 30
0.0000
 40
0.4953
  0
POINT
  8
23
 10
8.8900
 20
1.9050
 30
0.0000
  0
LINE
  8
21
 10
30.1752
 20
2.4130
 30
0.0000
 11
30.5562
 21
2.4130
 31
0.0000
  0
LINE
  8
21
 10
27.6352
 20
2.4130
 30
0.0000
 11
28.2448
 21
2.4130
 31
0.0000
  0
LINE
  8
21
 10
25.0952
 20
2.4130
 30
0.0000
 11
25.7048
 21
2.4130
 31
0.0000
  0
LINE
  8
21
 10
22.5552
 20
2.4130
 30
0.0000
 11
23.1648
 21
2.4130
 31
0.0000
  0
LINE
  8
21
 10
20.0152
 20
2.4130
 30
0.0000
 11
20.6248
 21
2.4130
 31
0.0000
  0
LINE
  8
21
 10
7.5438
 20
9.0170
 30
0.0000
 11
7.5438
 21
2.4130
 31
0.0000
  0
LINE
  8
21
 10
7.5438
 20
2.4130
 30
0.0000
 11
7.9248
 21
2.4130
 31
0.0000
  0
LINE
  8
21
 10
30.5562
 20
2.4130
 30
0.0000
 11
30.5562
 21
5.4102
 31
0.0000
  0
LINE
  8
21
 10
30.5562
 20
5.4102
 30
0.0000
 11
30.5562
 21
6.0198
 31
0.0000
  0
LINE
  8
21
 10
30.5562
 20
6.0198
 30
0.0000
 11
30.5562
 21
9.0170
 31
0.0000
  0
LINE
  8
21
 10
30.5562
 20
9.0170
 30
0.0000
 11
30.3022
 21
9.0170
 31
0.0000
  0
LINE
  8
21
 10
28.1178
 20
9.0170
 30
0.0000
 11
27.6352
 21
9.0170
 31
0.0000
  0
LINE
  8
21
 10
25.7048
 20
9.0170
 30
0.0000
 11
25.0952
 21
9.0170
 31
0.0000
  0
LINE
  8
21
 10
23.1648
 20
9.0170
 30
0.0000
 11
22.5552
 21
9.0170
 31
0.0000
  0
LINE
  8
21
 10
20.6248
 20
9.0170
 30
0.0000
 11
20.0152
 21
9.0170
 31
0.0000
  0
LINE
  8
21
 10
18.0848
 20
9.0170
 30
0.0000
 11
17.4752
 21
9.0170
 31
0.0000
  0
LINE
  8
21
 10
15.5448
 20
9.0170
 30
0.0000
 11
14.9352
 21
9.0170
 31
0.0000
  0
LINE
  8
21
 10
13.0048
 20
9.0170
 30
0.0000
 11
12.3952
 21
9.0170
 31
0.0000
  0
LINE
  8
21
 10
10.4648
 20
9.0170
 30
0.0000
 11
9.8552
 21
9.0170
 31
0.0000
  0
LINE
  8
21
 10
7.9248
 20
9.0170
 30
0.0000
 11
7.5438
 21
9.0170
 31
0.0000
  0
LINE
  8
21
 10
9.8552
 20
2.4130
 30
0.0000
 11
10.4648
 21
2.4130
 31
0.0000
  0
LINE
  8
21
 10
12.3952
 20
2.4130
 30
0.0000
 11
13.0048
 21
2.4130
 31
0.0000
  0
LINE
  8
21
 10
14.9352
 20
2.4130
 30
0.0000
 11
15.5448
 21
2.4130
 31
0.0000
  0
LINE
  8
21
 10
17.4752
 20
2.4130
 30
0.0000
 11
18.0848
 21
2.4130
 31
0.0000
  0
ARC
  8
21
 10
30.5562
 20
5.7150
 30
0.0000
 40
0.3048
 50
90.0000
 51
270.0000
  0
LINE
  8
51
 10
28.7020
 20
9.0170
 30
0.0000
 11
29.7180
 21
9.0170
 31
0.0000
  0
LINE
  8
51
 10
29.7180
 20
9.0170
 30
0.0000
 11
29.7180
 21
10.0076
 31
0.0000
  0
LINE
  8
51
 10
29.7180
 20
10.0076
 30
0.0000
 11
28.7020
 21
10.0076
 31
0.0000
  0
LINE
  8
51
 10
28.7020
 20
10.0076
 30
0.0000
 11
28.7020
 21
9.0170
 31
0.0000
  0
LINE
  8
51
 10
26.1620
 20
9.0170
 30
0.0000
 11
27.1780
 21
9.0170
 31
0.0000
  0
LINE
  8
51
 10
27.1780
 20
9.0170
 30
0.0000
 11
27.1780
 21
10.0076
 31
0.0000
  0
LINE
  8
51
 10
27.1780
 20
10.0076
 30
0.0000
 11
26.1620
 21
10.0076
 31
0.0000
  0
LINE
  8
51
 10
26.1620
 20
10.0076
 30
0.0000
 11
26.1620
 21
9.0170
 31
0.0000
  0
LINE
  8
51
 10
23.6220
 20
9.0170
 30
0.0000
 11
24.6380
 21
9.0170
 31
0.0000
  0
LINE
  8
51
 10
24.6380
 20
9.0170
 30
0.0000
 11
24.6380
 21
10.0076
 31
0.0000
  0
LINE
  8
51
 10
24.6380
 20
10.0076
 30
0.0000
 11
23.6220
 21
10.0076
 31
0.0000
  0
LINE
  8
51
 10
23.6220
 20
10.0076
 30
0.0000
 11
23.6220
 21
9.0170
 31
0.0000
  0
LINE
  8
51
 10
21.0820
 20
9.0170
 30
0.0000
 11
22.0980
 21
9.0170
 31
0.0000
  0
LINE
  8
51
 10
22.0980
 20
9.0170
 30
0.0000
 11
22.0980
 21
10.0076
 31
0.0000
  0
LINE
  8
51
 10
22.0980
 20
10.0076
 30
0.0000
 11
21.0820
 21
10.0076
 31
0.0000
  0
LINE
  8
51
 10
21.0820
 20
10.0076
 30
0.0000
 11
21.0820
 21
9.0170
 31
0.0000
  0
LINE
  8
51
 10
18.5420
 20
9.0170
 30
0.0000
 11
19.5580
 21
9.0170
 31
0.0000
  0
LINE
  8
51
 10
19.5580
 20
9.0170
 30
0.0000
 11
19.5580
 21
10.0076
 31
0.0000
  0
LINE
  8
51
 10
19.5580
 20
10.0076
 30
0.0000
 11
18.5420
 21
10.0076
 31
0.0000
  0
LINE
  8
51
 10
18.5420
 20
10.0076
 30
0.0000
 11
18.5420
 21
9.0170
 31
0.0000
  0
LINE
  8
51
 10
16.0020
 20
9.0170
 30
0.0000
 11
17.0180
 21
9.0170
 31
0.0000
  0
LINE
  8
51
 10
17.0180
 20
9.0170
 30
0.0000
 11
17.0180
 21
10.0076
 31
0.0000
  0
LINE
  8
51
 10
17.0180
 20
10.0076
 30
0.0000
 11
16.0020
 21
10.0076
 31
0.0000
  0
LINE
  8
51
 10
16.0020
 20
10.0076
 30
0.0000
 11
16.0020
 21
9.0170
 31
0.0000
  0
LINE
  8
51
 10
13.4620
 20
9.0170
 30
0.0000
 11
14.4780
 21
9.0170
 31
0.0000
  0
LINE
  8
51
 10
14.4780
 20
9.0170
 30
0.0000
 11
14.4780
 21
10.0076
 31
0.0000
  0
LINE
  8
51
 10
14.4780
 20
10.0076
 30
0.0000
 11
13.4620
 21
10.0076
 31
0.0000
  0
LINE
  8
51
 10
13.4620
 20
10.0076
 30
0.0000
 11
13.4620
 21
9.0170
 31
0.0000
  0
LINE
  8
51
 10
10.9220
 20
9.0170
 30
0.0000
 11
11.9380
 21
9.0170
 31
0.0000
  0
LINE
  8
51
 10
11.9380
 20
9.0170
 30
0.0000
 11
11.9380
 21
10.0076
 31
0.0000
  0
LINE
  8
51
 10
11.9380
 20
10.0076
 30
0.0000
 11
10.9220
 21
10.0076
 31
0.0000
  0
LINE
  8
51
 10
10.9220
 20
10.0076
 30
0.0000
 11
10.9220
 21
9.0170
 31
0.0000
  0
LINE
  8
51
 10
8.3820
 20
9.0170
 30
0.0000
 11
9.3980
 21
9.0170
 31
0.0000
  0
LINE
  8
51
 10
9.3980
 20
9.0170
 30
0.0000
 11
9.3726
 21
10.0076
 31
0.0000
  0
LINE
  8
51
 10
9.3726
 20
10.0076
 30
0.0000
 11
8.3820
 21
10.0076
 31
0.0000
  0
LINE
  8
51
 10
8.3820
 20
10.0076
 30
0.0000
 11
8.3820
 21
9.0170
 31
0.0000
  0
LINE
  8
51
 10
9.3980
 20
2.4130
 30
0.0000
 11
8.3820
 21
2.4130
 31
0.0000
  0
LINE
  8
51
 10
8.3820
 20
2.4130
 30
0.0000
 11
8.4074
 21
1.4224
 31
0.0000
  0
LINE
  8
51
 10
8.4074
 20
1.4224
 30
0.0000
 11
9.3980
 21
1.4224
 31
0.0000
  0
LINE
  8
51
 10
9.3980
 20
1.4224
 30
0.0000
 11
9.3980
 21
2.4130
 31
0.0000
  0
LINE
  8
51
 10
11.9380
 20
2.4130
 30
0.0000
 11
10.9220
 21
2.4130
 31
0.0000
  0
LINE
  8
51
 10
10.9220
 20
2.4130
 30
0.0000
 11
10.9474
 21
1.4224
 31
0.0000
  0
LINE
  8
51
 10
10.9474
 20
1.4224
 30
0.0000
 11
11.9380
 21
1.4224
 31
0.0000
  0
LINE
  8
51
 10
11.9380
 20
1.4224
 30
0.0000
 11
11.9380
 21
2.4130
 31
0.0000
  0
LINE
  8
51
 10
14.4780
 20
2.4130
 30
0.0000
 11
13.4620
 21
2.4130
 31
0.0000
  0
LINE
  8
51
 10
13.4620
 20
2.4130
 30
0.0000
 11
13.4620
 21
1.4224
 31
0.0000
  0
LINE
  8
51
 10
13.4620
 20
1.4224
 30
0.0000
 11
14.4780
 21
1.4224
 31
0.0000
  0
LINE
  8
51
 10
14.4780
 20
1.4224
 30
0.0000
 11
14.4780
 21
2.4130
 31
0.0000
  0
LINE
  8
51
 10
17.0180
 20
2.4130
 30
0.0000
 11
16.0020
 21
2.4130
 31
0.0000
  0
LINE
  8
51
 10
16.0020
 20
2.4130
 30
0.0000
 11
16.0020
 21
1.4224
 31
0.0000
  0
LINE
  8
51
 10
16.0020
 20
1.4224
 30
0.0000
 11
17.0180
 21
1.4224
 31
0.0000
  0
LINE
  8
51
 10
17.0180
 20
1.4224
 30
0.0000
 11
17.0180
 21
2.4130
 31
0.0000
  0
LINE
  8
51
 10
19.5580
 20
2.4130
 30
0.0000
 11
18.5420
 21
2.4130
 31
0.0000
  0
LINE
  8
51
 10
18.5420
 20
2.4130
 30
0.0000
 11
18.5420
 21
1.4224
 31
0.0000
  0
LINE
  8
51
 10
18.5420
 20
1.4224
 30
0.0000
 11
19.5580
 21
1.4224
 31
0.0000
  0
LINE
  8
51
 10
19.5580
 20
1.4224
 30
0.0000
 11
19.5580
 21
2.4130
 31
0.0000
  0
LINE
  8
51
 10
22.0980
 20
2.4130
 30
0.0000
 11
21.0820
 21
2.4130
 31
0.0000
  0
LINE
  8
51
 10
21.0820
 20
2.4130
 30
0.0000
 11
21.0820
 21
1.4224
 31
0.0000
  0
LINE
  8
51
 10
21.0820
 20
1.4224
 30
0.0000
 11
22.0980
 21
1.4224
 31
0.0000
  0
LINE
  8
51
 10
22.0980
 20
1.4224
 30
0.0000
 11
22.0980
 21
2.4130
 31
0.0000
  0
LINE
  8
51
 10
24.6380
 20
2.4130
 30
0.0000
 11
23.6220
 21
2.4130
 31
0.0000
  0
LINE
  8
51
 10
23.6220
 20
2.4130
 30
0.0000
 11
23.6220
 21
1.4224
 31
0.0000
  0
LINE
  8
51
 10
23.6220
 20
1.4224
 30
0.0000
 11
24.6380
 21
1.4224
 31
0.0000
  0
LINE
  8
51
 10
24.6380
 20
1.4224
 30
0.0000
 11
24.6380
 21
2.4130
 31
0.0000
  0
LINE
  8
51
 10
27.1780
 20
2.4130
 30
0.0000
 11
26.1620
 21
2.4130
 31
0.0000
  0
LINE
  8
51
 10
26.1620
 20
2.4130
 30
0.0000
 11
26.1620
 21
1.4224
 31
0.0000
  0
LINE
  8
51
 10
26.1620
 20
1.4224
 30
0.0000
 11
27.1780
 21
1.4224
 31
0.0000
  0
LINE
  8
51
 10
27.1780
 20
1.4224
 30
0.0000
 11
27.1780
 21
2.4130
 31
0.0000
  0
LINE
  8
51
 10
29.7180
 20
2.4130
 30
0.0000
 11
28.7020
 21
2.4130
 31
0.0000
  0
LINE
  8
51
 10
28.7020
 20
2.4130
 30
0.0000
 11
28.7020
 21
1.4224
 31
0.0000
  0
LINE
  8
51
 10
28.7020
 20
1.4224
 30
0.0000
 11
29.7180
 21
1.4224
 31
0.0000
  0
LINE
  8
51
 10
29.7180
 20
1.4224
 30
0.0000
 11
29.7180
 21
2.4130
 31
0.0000
  0
LINE
  8
51
 10
7.5438
 20
9.0170
 30
0.0000
 11
7.5438
 21
2.4130
 31
0.0000
  0
LINE
  8
51
 10
7.5438
 20
2.4130
 30
0.0000
 11
30.5562
 21
2.4130
 31
0.0000
  0
LINE
  8
51
 10
30.5562
 20
2.4130
 30
0.0000
 11
30.5562
 21
5.4102
 31
0.0000
  0
LINE
  8
51
 10
30.5562
 20
5.4102
 30
0.0000
 11
30.5562
 21
6.0198
 31
0.0000
  0
LINE
  8
51
 10
30.5562
 20
6.0198
 30
0.0000
 11
30.5562
 21
9.0170
 31
0.0000
  0
LINE
  8
51
 10
30.5562
 20
9.0170
 30
0.0000
 11
7.5438
 21
9.0170
 31
0.0000
  0
ARC
  8
51
 10
30.5562
 20
5.7150
 30
0.0000
 40
0.3048
 50
90.0000
 51
270.0000
  0
LINE
  8
21
 10
31.1074
 20
10.0711
 30
0.0000
 11
30.3108
 21
9.2746
 31
0.0000
  0
LINE
  8
21
 10
30.3108
 20
10.0711
 30
0.0000
 11
31.1074
 21
9.2746
 31
0.0000
  0
LINE
  8
21
 10
30.7091
 20
10.0711
 30
0.0000
 11
30.7091
 21
9.2746
 31
0.0000
  0
LINE
  8
21
 10
30.3108
 20
9.6728
 30
0.0000
 11
31.1074
 21
9.6728
 31
0.0000
  0
LINE
  8
51
 10
31.1074
 20
10.0711
 30
0.0000
 11
30.3108
 21
9.2746
 31
0.0000
  0
LINE
  8
51
 10
30.3108
 20
10.0711
 30
0.0000
 11
31.1074
 21
9.2746
 31
0.0000
  0
LINE
  8
51
 10
30.7091
 20
10.0711
 30
0.0000
 11
30.7091
 21
9.2746
 31
0.0000
  0
LINE
  8
51
 10
30.3108
 20
9.6728
 30
0.0000
 11
31.1074
 21
9.6728
 31
0.0000
  0
INSERT
  8
17
  2
ROUNDP
 10
29.2100
 20
9.5250
 30
0.0000
 41
1.4859
 42
1.4859
 43
1.0000
 50
270.0000
  0
INSERT
  8
17
  2
ROUNDP
 10
29.2100
 20
9.5250
 30
0.0000
 41
1.4859
 42
1.4859
 43
1.0000
 50
270.0000
  0
CIRCLE
  8
44
 10
29.2100
 20
9.5250
 30
0.0000
 40
0.4953
  0
INSERT
  8
17
  2
ROUNDP
 10
26.6700
 20
9.5250
 30
0.0000
 41
1.4859
 42
1.4859
 43
1.0000
 50
270.0000
  0
INSERT
  8
17
  2
ROUNDP
 10
26.6700
 20
9.5250
 30
0.0000
 41
1.4859
 42
1.4859
 43
1.0000
 50
270.0000
  0
CIRCLE
  8
44
 10
26.6700
 20
9.5250
 30
0.0000
 40
0.4953
  0
INSERT
  8
17
  2
ROUNDP
 10
24.1300
 20
9.5250
 30
0.0000
 41
1.4859
 42
1.4859
 43
1.0000
 50
270.0000
  0
INSERT
  8
17
  2
ROUNDP
 10
24.1300
 20
9.5250
 30
0.0000
 41
1.4859
 42
1.4859
 43
1.0000
 50
270.0000
  0
CIRCLE
  8
44
 10
24.1300
 20
9.5250
 30
0.0000
 40
0.4953
  0
INSERT
  8
17
  2
ROUNDP
 10
21.5900
 20
9.5250
 30
0.0000
 41
1.4859
 42
1.4859
 43
1.0000
 50
270.0000
  0
INSERT
  8
17
  2
ROUNDP
 10
21.5900
 20
9.5250
 30
0.0000
 41
1.4859
 42
1.4859
 43
1.0000
 50
270.0000
  0
CIRCLE
  8
44
 10
21.5900
 20
9.5250
 30
0.0000
 40
0.4953
  0
INSERT
  8
17
  2
ROUNDP
 10
19.0500
 20
9.5250
 30
0.0000
 41
1.4859
 42
1.4859
 43
1.0000
 50
270.0000
  0
INSERT
  8
17
  2
ROUNDP
 10
19.0500
 20
9.5250
 30
0.0000
 41
1.4859
 42
1.4859
 43
1.0000
 50
270.0000
  0
CIRCLE
  8
44
 10
19.0500
 20
9.5250
 30
0.0000
 40
0.4953
  0
INSERT
  8
17
  2
ROUNDP
 10
16.5100
 20
9.5250
 30
0.0000
 41
1.4859
 42
1.4859
 43
1.0000
 50
270.0000
  0
INSERT
  8
17
  2
ROUNDP
 10
16.5100
 20
9.5250
 30
0.0000
 41
1.4859
 42
1.4859
 43
1.0000
 50
270.0000
  0
CIRCLE
  8
44
 10
16.5100
 20
9.5250
 30
0.0000
 40
0.4953
  0
INSERT
  8
17
  2
ROUNDP
 10
13.9700
 20
9.5250
 30
0.0000
 41
1.4859
 42
1.4859
 43
1.0000
 50
270.0000
  0
INSERT
  8
17
  2
ROUNDP
 10
13.9700
 20
9.5250
 30
0.0000
 41
1.4859
 42
1.4859
 43
1.0000
 50
270.0000
  0
CIRCLE
  8
44
 10
13.9700
 20
9.5250
 30
0.0000
 40
0.4953
  0
INSERT
  8
17
  2
ROUNDP
 10
11.4300
 20
9.5250
 30
0.0000
 41
1.4859
 42
1.4859
 43
1.0000
 50
270.0000
  0
INSERT
  8
17
  2
ROUNDP
 10
11.4300
 20
9.5250
 30
0.0000
 41
1.4859
 42
1.4859
 43
1.0000
 50
270.0000
  0
CIRCLE
  8
44
 10
11.4300
 20
9.5250
 30
0.0000
 40
0.4953
  0
INSERT
  8
17
  2
ROUNDP
 10
8.8900
 20
9.5250
 30
0.0000
 41
1.4859
 42
1.4859
 43
1.0000
 50
270.0000
  0
INSERT
  8
17
  2
ROUNDP
 10
8.8900
 20
9.5250
 30
0.0000
 41
1.4859
 42
1.4859
 43
1.0000
 50
270.0000
  0
CIRCLE
  8
44
 10
8.8900
 20
9.5250
 30
0.0000
 40
0.4953
  0
INSERT
  8
17
  2
ROUNDP
 10
8.8900
 20
1.9050
 30
0.0000
 41
1.4859
 42
1.4859
 43
1.0000
 50
270.0000
  0
INSERT
  8
17
  2
ROUNDP
 10
8.8900
 20
1.9050
 30
0.0000
 41
1.4859
 42
1.4859
 43
1.0000
 50
270.0000
  0
CIRCLE
  8
44
 10
8.8900
 20
1.9050
 30
0.0000
 40
0.4953
  0
INSERT
  8
17
  2
ROUNDP
 10
11.4300
 20
1.9050
 30
0.0000
 41
1.4859
 42
1.4859
 43
1.0000
 50
270.0000
  0
INSERT
  8
17
  2
ROUNDP
 10
11.4300
 20
1.9050
 30
0.0000
 41
1.4859
 42
1.4859
 43
1.0000
 50
270.0000
  0
CIRCLE
  8
44
 10
11.4300
 20
1.9050
 30
0.0000
 40
0.4953
  0
INSERT
  8
17
  2
ROUNDP
 10
13.9700
 20
1.9050
 30
0.0000
 41
1.4859
 42
1.4859
 43
1.0000
 50
270.0000
  0
INSERT
  8
17
  2
ROUNDP
 10
13.9700
 20
1.9050
 30
0.0000
 41
1.4859
 42
1.4859
 43
1.0000
 50
270.0000
  0
CIRCLE
  8
44
 10
13.9700
 20
1.9050
 30
0.0000
 40
0.4953
  0
INSERT
  8
17
  2
ROUNDP
 10
16.5100
 20
1.9050
 30
0.0000
 41
1.4859
 42
1.4859
 43
1.0000
 50
270.0000
  0
INSERT
  8
17
  2
ROUNDP
 10
16.5100
 20
1.9050
 30
0.0000
 41
1.4859
 42
1.4859
 43
1.0000
 50
270.0000
  0
CIRCLE
  8
44
 10
16.5100
 20
1.9050
 30
0.0000
 40
0.4953
  0
INSERT
  8
17
  2
ROUNDP
 10
19.0500
 20
1.9050
 30
0.0000
 41
1.4859
 42
1.4859
 43
1.0000
 50
270.0000
  0
INSERT
  8
17
  2
ROUNDP
 10
19.0500
 20
1.9050
 30
0.0000
 41
1.4859
 42
1.4859
 43
1.0000
 50
270.0000
  0
CIRCLE
  8
44
 10
19.0500
 20
1.9050
 30
0.0000
 40
0.4953
  0
INSERT
  8
17
  2
ROUNDP
 10
21.5900
 20
1.9050
 30
0.0000
 41
1.4859
 42
1.4859
 43
1.0000
 50
270.0000
  0
INSERT
  8
17
  2
ROUNDP
 10
21.5900
 20
1.9050
 30
0.0000
 41
1.4859
 42
1.4859
 43
1.0000
 50
270.0000
  0
CIRCLE
  8
44
 10
21.5900
 20
1.9050
 30
0.0000
 40
0.4953
  0
INSERT
  8
17
  2
ROUNDP
 10
24.1300
 20
1.9050
 30
0.0000
 41
1.4859
 42
1.4859
 43
1.0000
 50
270.0000
  0
INSERT
  8
17
  2
ROUNDP
 10
24.1300
 20
1.9050
 30
0.0000
 41
1.4859
 42
1.4859
 43
1.0000
 50
270.0000
  0
CIRCLE
  8
44
 10
24.1300
 20
1.9050
 30
0.0000
 40
0.4953
  0
INSERT
  8
17
  2
ROUNDP
 10
26.6700
 20
1.9050
 30
0.0000
 41
1.4859
 42
1.4859
 43
1.0000
 50
270.0000
  0
INSERT
  8
17
  2
ROUNDP
 10
26.6700
 20
1.9050
 30
0.0000
 41
1.4859
 42
1.4859
 43
1.0000
 50
270.0000
  0
CIRCLE
  8
44
 10
26.6700
 20
1.9050
 30
0.0000
 40
0.4953
  0
INSERT
  8
17
  2
ROUNDP
 10
29.2100
 20
1.9050
 30
0.0000
 41
1.4859
 42
1.4859
 43
1.0000
 50
270.0000
  0
INSERT
  8
17
  2
ROUNDP
 10
29.2100
 20
1.9050
 30
0.0000
 41
1.4859
 42
1.4859
 43
1.0000
 50
270.0000
  0
CIRCLE
  8
44
 10
29.2100
 20
1.9050
 30
0.0000
 40
0.4953
  0
POINT
  8
23
 10
10.1600
 20
17.7800
 30
0.0000
  0
LINE
  8
21
 10
12.4460
 20
14.3510
 30
0.0000
 11
12.4460
 21
21.2090
 31
0.0000
  0
LINE
  8
21
 10
7.8740
 20
21.2090
 30
0.0000
 11
7.8740
 21
14.3510
 31
0.0000
  0
ARC
  8
21
 10
10.1600
 20
21.2090
 30
0.0000
 40
2.2860
 50
0.0000
 51
180.0000
  0
ARC
  8
21
 10
10.1600
 20
14.3510
 30
0.0000
 40
2.2860
 50
180.0000
 51
0.0000
  0
INSERT
  8
17
  2
ROUNDP
 10
10.1600
 20
15.2400
 30
0.0000
 41
1.6510
 42
1.6510
 43
1.0000
 50
180.0000
  0
INSERT
  8
17
  2
ROUNDP
 10
10.1600
 20
15.2400
 30
0.0000
 41
1.6510
 42
1.6510
 43
1.0000
 50
180.0000
  0
CIRCLE
  8
44
 10
10.1600
 20
15.2400
 30
0.0000
 40
0.3500
  0
INSERT
  8
17
  2
ROUNDP
 10
10.1600
 20
20.3200
 30
0.0000
 41
1.6510
 42
1.6510
 43
1.0000
 50
180.0000
  0
INSERT
  8
17
  2
ROUNDP
 10
10.1600
 20
20.3200
 30
0.0000
 41
1.6510
 42
1.6510
 43
1.0000
 50
180.0000
  0
CIRCLE
  8
44
 10
10.1600
 20
20.3200
 30
0.0000
 40
0.3500
  0
LINE
  8
1
 10
29.4386
 20
18.2850
 30
0.0000
 11
25.6600
 21
18.2850
 31
0.0000
  0
LINE
  8
1
 10
25.6600
 20
18.2850
 30
0.0000
 11
25.4000
 21
18.5450
 31
0.0000
  0
LINE
  8
1
 10
21.5900
 20
18.4150
 30
0.0000
 11
25.2700
 21
18.4150
 31
0.0000
  0
LINE
  8
1
 10
25.2700
 20
18.4150
 30
0.0000
 11
25.4000
 21
18.5450
 31
0.0000
  0
LINE
  8
1
 10
29.4386
 20
18.2850
 30
0.0000
 11
34.5418
 21
18.2850
 31
0.0000
  0
LINE
  8
1
 10
34.5418
 20
18.2850
 30
0.0000
 11
34.7218
 21
18.7250
 31
0.0000
  0
LINE
  8
1
 10
21.5900
 20
15.8750
 30
0.0000
 11
25.2700
 21
15.8750
 31
0.0000
  0
LINE
  8
1
 10
25.2700
 20
15.8750
 30
0.0000
 11
25.4000
 21
15.7450
 31
0.0000
  0
LINE
  8
1
 10
25.4000
 20
15.7450
 30
0.0000
 11
29.1786
 21
15.7450
 31
0.0000
  0
LINE
  8
1
 10
29.1786
 20
15.7450
 30
0.0000
 11
29.4386
 21
16.0050
 31
0.0000
  0
LINE
  8
1
 10
29.4386
 20
16.0050
 30
0.0000
 11
33.9418
 21
16.0050
 31
0.0000
  0
LINE
  8
1
 10
33.9418
 20
16.0050
 30
0.0000
 11
34.7218
 21
15.2250
 31
0.0000
  0
LINE
  8
1
 10
1.9050
 20
4.4450
 30
0.0000
 11
4.4450
 21
4.4450
 31
0.0000
  0
LINE
  8
1
 10
4.4450
 20
4.4450
 30
0.0000
 11
5.7150
 21
3.1750
 31
0.0000
  0
LINE
  8
1
 10
5.7150
 20
3.1750
 30
0.0000
 11
22.8600
 21
3.1750
 31
0.0000
  0
LINE
  8
1
 10
22.8600
 20
3.1750
 30
0.0000
 11
24.1300
 21
1.9050
 31
0.0000
  0
LINE
  8
1
 10
13.9700
 20
13.3350
 30
0.0000
 11
15.8750
 21
13.3350
 31
0.0000
  0
LINE
  8
1
 10
15.8750
 20
13.3350
 30
0.0000
 11
17.7800
 21
11.4300
 31
0.0000
  0
LINE
  8
1
 10
17.7800
 20
11.4300
 30
0.0000
 11
24.7650
 21
11.4300
 31
0.0000
  0
LINE
  8
1
 10
24.7650
 20
11.4300
 30
0.0000
 11
26.6700
 21
9.5250
 31
0.0000
  0
LINE
  8
16
 10
16.5100
 20
13.9700
 30
0.0000
 11
16.5100
 21
19.6850
 31
0.0000
  0
LINE
  8
16
 10
16.5100
 20
19.6850
 30
0.0000
 11
15.2400
 21
20.9550
 31
0.0000
  0
LINE
  8
16
 10
15.2400
 20
20.9550
 30
0.0000
 11
13.9700
 21
20.9550
 31
0.0000
  0
LINE
  8
16
 10
16.5100
 20
13.9700
 30
0.0000
 11
19.0500
 21
11.4300
 31
0.0000
  0
LINE
  8
16
 10
19.0500
 20
11.4300
 30
0.0000
 11
27.3050
 21
11.4300
 31
0.0000
  0
LINE
  8
16
 10
27.3050
 20
11.4300
 30
0.0000
 11
29.2100
 21
9.5250
 31
0.0000
  0
LINE
  8
1
 10
0.0000
 20
0.0000
 30
0.0000
 11
99.6950
 21
0.0000
 31
0.0000
  0
LINE
  8
1
 10
99.6950
 20
0.0000
 30
0.0000
 11
100.3300
 21
80.0100
 31
0.0000
  0
LINE
  8
1
 10
100.3300
 20
80.0100
 30
0.0000
 11
0.0000
 21
80.0100
 31
0.0000
  0
LINE
  8
1
 10
0.0000
 20
80.0100
 30
0.0000
 11
0.0000
 21
0.0000
 31
0.0000
  0
LINE
  8
16
 10
13.9700
 20
1.9050
 30
0.0000
 11
12.7000
 21
3.1750
 31
0.0000
  0
LINE
  8
16
 10
12.7000
 20
3.1750
 30
0.0000
 11
4.4450
 21
3.1750
 31
0.0000
  0
LINE
  8
16
 10
4.4450
 20
3.1750
 30
0.0000
 11
3.1750
 21
1.9050
 31
0.0000
  0
LINE
  8
16
 10
3.1750
 20
1.9050
 30
0.0000
 11
1.9050
 21
1.9050
 31
0.0000
  0
LINE
  8
16
 10
16.5100
 20
6.9850
 30
0.0000
 11
21.5900
 21
1.9050
 31
0.0000
  0
LINE
  8
16
 10
6.9850
 20
6.9850
 30
0.0000
 11
16.5100
 21
6.9850
 31
0.0000
  0
LINE
  8
16
 10
1.9050
 20
12.0650
 30
0.0000
 11
6.9850
 21
6.9850
 31
0.0000
  0
LINE
  8
16
 10
15.2400
 20
5.7150
 30
0.0000
 11
19.0500
 21
1.9050
 31
0.0000
  0
LINE
  8
16
 10
1.9050
 20
9.5250
 30
0.0000
 11
5.7150
 21
5.7150
 31
0.0000
  0
LINE
  8
16
 10
5.7150
 20
5.7150
 30
0.0000
 11
15.2400
 21
5.7150
 31
0.0000
  0
LINE
  8
1
 10
21.5900
 20
20.9550
 30
0.0000
 11
21.5900
 21
22.2250
 31
0.0000
  0
LINE
  8
1
 10
21.5900
 20
22.2250
 30
0.0000
 11
22.8600
 21
23.4950
 31
0.0000
  0
LINE
  8
1
 10
22.8600
 20
23.4950
 30
0.0000
 11
24.0000
 21
23.4950
 31
0.0000
  0
LINE
  8
1
 10
26.8000
 20
20.9550
 30
0.0000
 11
29.3086
 21
20.9550
 31
0.0000
  0
LINE
  8
1
 10
29.3086
 20
20.9550
 30
0.0000
 11
29.4386
 21
21.0850
 31
0.0000
  0
LINE
  8
1
 10
26.8000
 20
13.3350
 30
0.0000
 11
29.3086
 21
13.3350
 31
0.0000
  0
LINE
  8
1
 10
29.3086
 20
13.3350
 30
0.0000
 11
29.4386
 21
13.2050
 31
0.0000
  0
LINE
  8
1
 10
11.4300
 20
9.5250
 30
0.0000
 11
11.4300
 21
13.9700
 31
0.0000
  0
LINE
  8
1
 10
11.4300
 20
13.9700
 30
0.0000
 11
10.1600
 21
15.2400
 31
0.0000
  0
LINE
  8
1
 10
5.7150
 20
13.3380
 30
0.0000
 11
6.9880
 21
13.3380
 31
0.0000
  0
LINE
  8
1
 10
6.9880
 20
13.3380
 30
0.0000
 11
8.8900
 21
15.2400
 31
0.0000
  0
LINE
  8
1
 10
8.8900
 20
15.2400
 30
0.0000
 11
10.1600
 21
15.2400
 31
0.0000
  0
LINE
  8
1
 10
13.9700
 20
9.5250
 30
0.0000
 11
13.9700
 21
10.1600
 31
0.0000
  0
LINE
  8
1
 10
13.9700
 20
10.1600
 30
0.0000
 11
12.7000
 21
11.4300
 31
0.0000
  0
LINE
  8
1
 10
12.7000
 20
11.4300
 30
0.0000
 11
12.7000
 21
17.7800
 31
0.0000
  0
LINE
  8
1
 10
12.7000
 20
17.7800
 30
0.0000
 11
10.1600
 21
20.3200
 31
0.0000
  0
LINE
  8
1
 10
5.7150
 20
19.0530
 30
0.0000
 11
7.6230
 21
19.0530
 31
0.0000
  0
LINE
  8
1
 10
7.6230
 20
19.0530
 30
0.0000
 11
8.8900
 21
20.3200
 31
0.0000
  0
LINE
  8
1
 10
8.8900
 20
20.3200
 30
0.0000
 11
10.1600
 21
20.3200
 31
0.0000
  0
LINE
  8
16
 10
1.9050
 20
14.6050
 30
0.0000
 11
3.8100
 21
12.7000
 31
0.0000
  0
LINE
  8
16
 10
3.8100
 20
12.7000
 30
0.0000
 11
3.8100
 21
11.4300
 31
0.0000
  0
LINE
  8
16
 10
3.8100
 20
11.4300
 30
0.0000
 11
7.6200
 21
7.6200
 31
0.0000
  0
LINE
  8
16
 10
7.6200
 20
7.6200
 30
0.0000
 11
20.9550
 21
7.6200
 31
0.0000
  0
LINE
  8
16
 10
20.9550
 20
7.6200
 30
0.0000
 11
26.6700
 21
1.9050
 31
0.0000
  0
LINE
  8
16
 10
16.5100
 20
1.9050
 30
0.0000
 11
13.9700
 21
4.4450
 31
0.0000
  0
LINE
  8
16
 10
13.9700
 20
4.4450
 30
0.0000
 11
4.4450
 21
4.4450
 31
0.0000
  0
LINE
  8
16
 10
1.9050
 20
6.9850
 30
0.0000
 11
4.4450
 21
4.4450
 31
0.0000
  0
LINE
  8
16
 10
0.0000
 20
0.0000
 30
0.0000
 11
99.6950
 21
0.0000
 31
0.0000
  0
LINE
  8
16
 10
99.6950
 20
0.0000
 30
0.0000
 11
100.3300
 21
80.0100
 31
0.0000
  0
LINE
  8
16
 10
100.3300
 20
80.0100
 30
0.0000
 11
0.0000
 21
80.0100
 31
0.0000
  0
LINE
  8
16
 10
0.0000
 20
80.0100
 30
0.0000
 11
0.0000
 21
0.0000
 31
0.0000
  0
LINE
  8
1
 10
29.2100
 20
1.9050
 30
0.0000
 11
30.4800
 21
1.9050
 31
0.0000
  0
LINE
  8
1
 10
30.4800
 20
1.9050
 30
0.0000
 11
31.1150
 21
2.5400
 31
0.0000
  0
LINE
  8
1
 10
31.1150
 20
2.5400
 30
0.0000
 11
31.1150
 21
4.9500
 31
0.0000
  0
LINE
  8
1
 10
31.1150
 20
4.9500
 30
0.0000
 11
31.7500
 21
5.5850
 31
0.0000
  0
LINE
  8
1
 10
13.9700
 20
15.8750
 30
0.0000
 11
15.2400
 21
15.8750
 31
0.0000
  0
LINE
  8
1
 10
15.2400
 20
15.8750
 30
0.0000
 11
16.5100
 21
17.1450
 31
0.0000
  0
LINE
  8
1
 10
16.5100
 20
17.1450
 30
0.0000
 11
16.5100
 21
23.3650
 31
0.0000
  0
LINE
  8
1
 10
16.5100
 20
23.3650
 30
0.0000
 11
16.3800
 21
23.4950
 31
0.0000
  0
ENDSEC
  0
EOF
